<svg xmlns="http://www.w3.org/2000/svg" viewBox="0 0 47.08 47.07"><defs><style>.cls-1{fill:#fece55;}</style></defs><title>Recurso 8</title><g id="Capa_2" data-name="Capa 2"><g id="Capa_1-2" data-name="Capa 1"><path class="cls-1" d="M23.54,35.71A12.17,12.17,0,1,1,35.71,23.54,12.18,12.18,0,0,1,23.54,35.71Z"/><path class="cls-1" d="M23.54,8.23a.9.9,0,0,1-.9-.9V.9a.9.9,0,0,1,1.8,0V7.33A.9.9,0,0,1,23.54,8.23Z"/><path class="cls-1" d="M23.54,47.07a.9.9,0,0,1-.9-.9V39.75a.9.9,0,0,1,1.8,0v6.42A.9.9,0,0,1,23.54,47.07Z"/><path class="cls-1" d="M46.17,24.44H39.75a.9.9,0,0,1,0-1.8h6.42a.9.9,0,0,1,0,1.8Z"/><path class="cls-1" d="M7.33,24.44H.9a.9.9,0,0,1,0-1.8H7.33a.9.9,0,0,1,0,1.8Z"/><path class="cls-1" d="M35,13a.9.9,0,0,1-.64-1.54l4.54-4.54a.9.9,0,1,1,1.28,1.28l-4.54,4.54A.9.9,0,0,1,35,13Z"/><path class="cls-1" d="M7.53,40.45a.9.9,0,0,1-.64-1.54l4.54-4.54a.9.9,0,0,1,1.28,1.28L8.17,40.18A.9.9,0,0,1,7.53,40.45Z"/><path class="cls-1" d="M12.07,13a.9.9,0,0,1-.64-.26L6.89,8.17A.9.9,0,1,1,8.17,6.89l4.54,4.54A.9.9,0,0,1,12.07,13Z"/><path class="cls-1" d="M39.54,40.45a.9.9,0,0,1-.64-.26l-4.54-4.54a.9.9,0,0,1,1.28-1.28l4.54,4.54a.9.9,0,0,1-.64,1.54Z"/></g></g></svg>