<svg xmlns="http://www.w3.org/2000/svg" viewBox="0 0 52.09 42.14"><defs><style>.cls-1{fill:#fece55;}.cls-2{fill:none;stroke:#61c3d7;stroke-linecap:round;stroke-linejoin:round;stroke-width:1.03px;}.cls-3{fill:#c6c6c6;}.cls-4{fill:#fff;}.cls-5{fill:#e3e3e3;}</style></defs><title>Recurso 14</title><g id="Capa_2" data-name="Capa 2"><g id="Capa_1-2" data-name="Capa 1"><path class="cls-1" d="M19.93,30A10.09,10.09,0,1,1,30,19.93,10.1,10.1,0,0,1,19.93,30Z"/><path class="cls-1" d="M19.93,7.67A1.17,1.17,0,0,1,18.76,6.5V1.17a1.17,1.17,0,0,1,2.35,0V6.5A1.17,1.17,0,0,1,19.93,7.67Z"/><path class="cls-1" d="M19.93,39.86a1.17,1.17,0,0,1-1.17-1.17V33.37a1.17,1.17,0,0,1,2.35,0v5.32A1.17,1.17,0,0,1,19.93,39.86Z"/><path class="cls-1" d="M38.69,21.1H33.37a1.17,1.17,0,1,1,0-2.34h5.32a1.17,1.17,0,1,1,0,2.34Z"/><path class="cls-1" d="M6.5,21.1H1.17a1.17,1.17,0,1,1,0-2.34H6.5a1.17,1.17,0,1,1,0,2.34Z"/><path class="cls-1" d="M29.43,11.6a1.17,1.17,0,0,1-.83-2l3.76-3.76A1.17,1.17,0,1,1,34,7.5l-3.76,3.76A1.17,1.17,0,0,1,29.43,11.6Z"/><path class="cls-1" d="M10.43,11.6a1.17,1.17,0,0,1-.83-.34L5.84,7.5A1.17,1.17,0,0,1,7.5,5.84L11.26,9.6a1.17,1.17,0,0,1-.83,2Z"/><path class="cls-1" d="M33.2,34.37a1.17,1.17,0,0,1-.83-.34L28.6,30.26a1.17,1.17,0,0,1,1.66-1.66L34,32.37a1.17,1.17,0,0,1-.83,2Z"/><path class="cls-2" d="M39.73,41.12"/><path class="cls-2" d="M47.92,46.37"/><path class="cls-2" d="M51.4,41.12"/><path class="cls-3" d="M43.35,41.49H11.19A6.43,6.43,0,0,1,9.73,28.8,11.12,11.12,0,0,1,9.59,27a11.25,11.25,0,0,1,22-3.25A7.23,7.23,0,0,1,43.3,28.63h0a6.43,6.43,0,0,1,0,12.86Z"/><path class="cls-4" d="M43.35,42.14H11.19A7.08,7.08,0,0,1,9,28.32a11.9,11.9,0,0,1,22.94-5.58A7.89,7.89,0,0,1,43.87,28a7.08,7.08,0,0,1-.52,14.14ZM20.84,16.42A10.61,10.61,0,0,0,10.37,28.69a.65.65,0,0,1-.49.74,5.78,5.78,0,0,0,1.31,11.41H43.35a5.78,5.78,0,0,0,0-11.56.7.7,0,0,1-.69-.58A6.58,6.58,0,0,0,32,24.28.65.65,0,0,1,31,24,10.67,10.67,0,0,0,20.84,16.42Z"/><path class="cls-5" d="M47.38,29H27.07a4.06,4.06,0,0,1-.92-8,7,7,0,0,1-.09-1.12A7.11,7.11,0,0,1,40,17.8a4.57,4.57,0,0,1,7.38,3.07h0a4.06,4.06,0,0,1,0,8.13Z"/><path class="cls-4" d="M47.38,29.65H27.07a4.71,4.71,0,0,1-1.64-9.13c0-.22,0-.44,0-.66A7.76,7.76,0,0,1,40.3,16.8a5.23,5.23,0,0,1,7.61,3.45,4.71,4.71,0,0,1-.53,9.39ZM33.16,13.4a6.47,6.47,0,0,0-6.38,7.48l-.49.74a3.41,3.41,0,0,0,.78,6.74H47.38a3.41,3.41,0,0,0,0-6.83l-.68-.58a3.92,3.92,0,0,0-6.33-2.64l-1-.32A6.5,6.5,0,0,0,33.16,13.4Z"/></g></g></svg>