<svg xmlns="http://www.w3.org/2000/svg" viewBox="0 0 50.66 35.28"><defs><style>.cls-1{fill:none;stroke:#61c3d7;stroke-linecap:round;stroke-linejoin:round;stroke-width:1.06px;}.cls-2{fill:#c6c6c6;}.cls-3{fill:#fff;}.cls-4{fill:#878787;}</style></defs><title>Recurso 17</title><g id="Capa_2" data-name="Capa 2"><g id="Capa_1-2" data-name="Capa 1"><path class="cls-1" d="M38,36.85"/><path class="cls-2" d="M44.88,21.18H19.2A5.13,5.13,0,0,1,18,11.05a8.88,8.88,0,0,1-.11-1.42A9,9,0,0,1,35.51,7a5.78,5.78,0,0,1,9.33,3.88h0a5.13,5.13,0,0,1,0,10.27Z"/><path class="cls-3" d="M44.88,21.83H19.2a5.79,5.79,0,0,1-1.88-11.25c0-.31,0-.63,0-.95A9.63,9.63,0,0,1,35.84,6a6.43,6.43,0,0,1,9.56,4.27,5.78,5.78,0,0,1-.52,11.54ZM26.91,1.3a8.34,8.34,0,0,0-8.23,9.65.65.65,0,0,1-.49.74,4.48,4.48,0,0,0,1,8.85H44.88a4.48,4.48,0,0,0,0-9,.69.69,0,0,1-.68-.58,5.13,5.13,0,0,0-8.28-3.44.65.65,0,0,1-1-.32A8.39,8.39,0,0,0,26.91,1.3Z"/><path class="cls-4" d="M40.57,34.63H7.3A6.65,6.65,0,0,1,5.78,21.5a11.51,11.51,0,0,1-.14-1.84A11.64,11.64,0,0,1,28.43,16.3a7.49,7.49,0,0,1,12.09,5h0a6.65,6.65,0,0,1,0,13.3Z"/><path class="cls-3" d="M40.57,35.28H7.3A7.3,7.3,0,0,1,5.06,21,12.51,12.51,0,0,1,5,19.67a12.29,12.29,0,0,1,23.77-4.4A8.14,8.14,0,0,1,41.08,20.7a7.3,7.3,0,0,1-.52,14.58ZM17.28,8.68A11,11,0,0,0,6.43,21.4a.65.65,0,0,1-.49.74A6,6,0,0,0,7.3,34H40.57a6,6,0,0,0,0-12,.7.7,0,0,1-.7-.58,6.84,6.84,0,0,0-11-4.59.65.65,0,0,1-1-.32A11.06,11.06,0,0,0,17.28,8.68Z"/></g></g></svg>