<svg xmlns="http://www.w3.org/2000/svg" viewBox="0 0 51.3 54.9"><defs><style>.cls-1{fill:#fece55;}.cls-2{fill:#878787;}.cls-3{fill:#fff;}</style></defs><title>Recurso 18</title><g id="Capa_2" data-name="Capa 2"><g id="Capa_1-2" data-name="Capa 1"><path class="cls-1" d="M33.15,26.95a9,9,0,1,1,9-9A9.06,9.06,0,0,1,33.15,26.95Z"/><path class="cls-1" d="M33.15,6.93a1.08,1.08,0,0,1-1.08-1.08V1.08a1.08,1.08,0,1,1,2.16,0V5.85A1.08,1.08,0,0,1,33.15,6.93Z"/><path class="cls-1" d="M33.15,35.8a1.08,1.08,0,0,1-1.08-1.08V30a1.08,1.08,0,0,1,2.16,0v4.77A1.08,1.08,0,0,1,33.15,35.8Z"/><path class="cls-1" d="M50,19H45.2a1.08,1.08,0,0,1,0-2.16H50A1.08,1.08,0,0,1,50,19Z"/><path class="cls-1" d="M21.11,19H16.33a1.08,1.08,0,0,1,0-2.16h4.77a1.08,1.08,0,0,1,0,2.16Z"/><path class="cls-1" d="M41.67,10.46a1.08,1.08,0,0,1-.76-1.84l3.38-3.38a1.08,1.08,0,1,1,1.53,1.53l-3.38,3.38A1.08,1.08,0,0,1,41.67,10.46Z"/><path class="cls-1" d="M21.26,30.88A1.08,1.08,0,0,1,20.5,29l3.38-3.38a1.08,1.08,0,0,1,1.53,1.53L22,30.56A1.08,1.08,0,0,1,21.26,30.88Z"/><path class="cls-1" d="M24.63,10.46a1.08,1.08,0,0,1-.76-.32L20.5,6.77A1.08,1.08,0,0,1,22,5.24L25.4,8.62a1.08,1.08,0,0,1-.76,1.84Z"/><path class="cls-1" d="M45,30.88a1.08,1.08,0,0,1-.76-.32l-3.38-3.38a1.08,1.08,0,0,1,1.53-1.53L45.81,29A1.08,1.08,0,0,1,45,30.88Z"/><path class="cls-2" d="M43.51,40.25H7.79a7.14,7.14,0,0,1-1.63-14.1,12.36,12.36,0,0,1-.16-2,12.5,12.5,0,0,1,24.47-3.62,8,8,0,0,1,13,5.4h.05a7.14,7.14,0,0,1,0,14.29Z"/><path class="cls-3" d="M43.51,40.9H7.79A7.8,7.8,0,0,1,5.44,25.67a13.15,13.15,0,0,1,25.37-6.15A8.69,8.69,0,0,1,44,25.33a7.79,7.79,0,0,1-.51,15.57Zm-25-28.57A11.86,11.86,0,0,0,6.66,24.18,11.74,11.74,0,0,0,6.8,26a.65.65,0,0,1-.49.74A6.49,6.49,0,0,0,7.79,39.6H43.51a6.49,6.49,0,0,0,0-13,.71.71,0,0,1-.7-.58,7.39,7.39,0,0,0-11.93-5,.64.64,0,0,1-.6.11.65.65,0,0,1-.43-.43A11.93,11.93,0,0,0,18.51,12.33Z"/><path class="cls-1" d="M21.23,54.25,21,53.92c-.22-.34-.12-.76.11-1.28l4.35-9.94a.35.35,0,0,0-.37-.57H21a1.72,1.72,0,0,1-1.7-2.39l3.78-10.92a3.07,3.07,0,0,1,2.75-2H31a1.5,1.5,0,0,1,1.38,2.37l-4,7.14c-.11.19-.11.31-.09.34s.12.09.34.09h5.64a1.3,1.3,0,0,1,1,2.29L22.6,53.59c-.41.47-.7.65-1,.65Z"/><path class="cls-3" d="M31,27.52c.89,0,1.25.63.81,1.4l-4,7.14c-.44.77-.07,1.4.82,1.4h5.64c.89,0,1.14.55.55,1.21L22.11,53.16c-.25.29-.43.43-.52.43s-.09-.24.11-.7L26,43a1,1,0,0,0-1-1.48H21A1.08,1.08,0,0,1,20,40L23.74,29a2.43,2.43,0,0,1,2.14-1.52H31m0-1.3H25.88a3.71,3.71,0,0,0-3.37,2.4L18.73,39.54A2.37,2.37,0,0,0,21,42.79h3.65L20.5,52.38a2,2,0,0,0-.06,1.9,1.36,1.36,0,0,0,1.14.62,2,2,0,0,0,1.5-.88l12.65-14.5a1.94,1.94,0,0,0-1.53-3.37h-5l3.74-6.6A2.14,2.14,0,0,0,31,26.22Z"/></g></g></svg>