<svg xmlns="http://www.w3.org/2000/svg" viewBox="0 0 51 46.27"><defs><style>.cls-1{fill:#fece55;}.cls-2{fill:#c6c6c6;}.cls-3{fill:#fff;}</style></defs><title>Recurso 20</title><g id="Capa_2" data-name="Capa 2"><g id="Capa_1-2" data-name="Capa 1"><path class="cls-1" d="M25.5,35A11.88,11.88,0,1,1,37.38,23.14,11.9,11.9,0,0,1,25.5,35Z"/><path class="cls-1" d="M25.5,8.35a1,1,0,0,1-1-1V1a1,1,0,0,1,2.08,0V7.31A1,1,0,0,1,25.5,8.35Z"/><path class="cls-1" d="M25.5,46.27a1,1,0,0,1-1-1V39a1,1,0,0,1,2.08,0v6.27A1,1,0,0,1,25.5,46.27Z"/><path class="cls-1" d="M47.59,24.18H41.32a1,1,0,0,1,0-2.08h6.27a1,1,0,1,1,0,2.08Z"/><path class="cls-1" d="M9.67,24.18H3.4a1,1,0,1,1,0-2.08H9.67a1,1,0,1,1,0,2.08Z"/><path class="cls-1" d="M36.69,13A1,1,0,0,1,36,11.21l4.43-4.43a1,1,0,1,1,1.47,1.47l-4.43,4.43A1,1,0,0,1,36.69,13Z"/><path class="cls-1" d="M9.87,39.8A1,1,0,0,1,9.14,38l4.43-4.43A1,1,0,0,1,15,35.06L10.61,39.5A1,1,0,0,1,9.87,39.8Z"/><path class="cls-1" d="M14.31,13a1,1,0,0,1-.74-.3L9.14,8.25a1,1,0,0,1,1.47-1.47L15,11.21A1,1,0,0,1,14.31,13Z"/><path class="cls-1" d="M41.12,39.8a1,1,0,0,1-.74-.3L36,35.06a1,1,0,0,1,1.47-1.47L41.86,38a1,1,0,0,1-.74,1.78Z"/><path class="cls-2" d="M22.55,21.94a2.28,2.28,0,0,0-3.07-2.14,2.6,2.6,0,0,0-3.22-2,3.38,3.38,0,0,0-6.34-.45,3.9,3.9,0,0,0-6.39,2.45,2.28,2.28,0,1,0-.75,4.44H20.45A2.28,2.28,0,0,0,22.55,21.94Z"/><path class="cls-3" d="M20.45,24.72H2.78a2.78,2.78,0,1,1,0-5.56l.36,0A4.4,4.4,0,0,1,9.76,16.6a3.88,3.88,0,0,1,6.83.62,3.11,3.11,0,0,1,3.23,2,2.74,2.74,0,0,1,.45,0,2.78,2.78,0,0,1,.3,5.55ZM2.78,20.16a1.78,1.78,0,1,0,0,3.56H20.41a1.78,1.78,0,1,0-.76-3.45A.5.5,0,0,1,19,19.9a2.12,2.12,0,0,0-2.6-1.62.5.5,0,0,1-.61-.35,2.88,2.88,0,0,0-5.4-.39.5.5,0,0,1-.35.28.49.49,0,0,1-.43-.11A3.4,3.4,0,0,0,4,19.85a.5.5,0,0,1-.66.4A1.78,1.78,0,0,0,2.78,20.16Z"/><path class="cls-2" d="M50.5,12.27a2.28,2.28,0,0,0-3.07-2.14,2.6,2.6,0,0,0-3.22-2,3.38,3.38,0,0,0-6.34-.45,3.9,3.9,0,0,0-6.39,2.45,2.28,2.28,0,1,0-.75,4.44H48.4A2.28,2.28,0,0,0,50.5,12.27Z"/><path class="cls-3" d="M48.4,15.05H30.73a2.78,2.78,0,0,1,0-5.56l.36,0a4.4,4.4,0,0,1,6.61-2.58,3.88,3.88,0,0,1,6.83.63,3.12,3.12,0,0,1,3.23,2,2.74,2.74,0,0,1,.45,0A2.78,2.78,0,0,1,48.53,15ZM30.73,10.49a1.78,1.78,0,0,0,0,3.56H48.36a1.78,1.78,0,0,0-.14-3.56,1.77,1.77,0,0,0-.62.11.5.5,0,0,1-.66-.37,2.14,2.14,0,0,0-2.6-1.62.5.5,0,0,1-.61-.35,2.88,2.88,0,0,0-5.4-.39.5.5,0,0,1-.35.28A.49.49,0,0,1,37.55,8,3.4,3.4,0,0,0,32,10.18a.5.5,0,0,1-.66.4A1.78,1.78,0,0,0,30.73,10.49Z"/></g></g></svg>