<svg xmlns="http://www.w3.org/2000/svg" viewBox="0 0 51.52 52.18"><defs><style>.cls-1{fill:#61c3d7;}.cls-2{fill:#fece55;}.cls-3{fill:#c6c6c6;}.cls-4{fill:#fff;}</style></defs><title>Recurso 24</title><g id="Capa_2" data-name="Capa 2"><g id="Capa_1-2" data-name="Capa 1"><path class="cls-1" d="M11.81,52.18A1,1,0,0,1,11,50.62l3.62-5.47a1,1,0,0,1,1.67,1.11l-3.62,5.47A1,1,0,0,1,11.81,52.18Z"/><path class="cls-1" d="M24,52.18a1,1,0,0,1-.83-1.55l3.62-5.47a1,1,0,0,1,1.67,1.11l-3.62,5.47A1,1,0,0,1,24,52.18Z"/><path class="cls-1" d="M36.09,52.18a1,1,0,0,1-.83-1.55l3.62-5.47a1,1,0,1,1,1.67,1.11l-3.62,5.47A1,1,0,0,1,36.09,52.18Z"/><path class="cls-2" d="M33.3,27.07A9.09,9.09,0,1,1,42.38,18,9.1,9.1,0,0,1,33.3,27.07Z"/><path class="cls-2" d="M33.3,7a1.08,1.08,0,0,1-1.08-1.08V1.08a1.08,1.08,0,0,1,2.17,0V5.88A1.08,1.08,0,0,1,33.3,7Z"/><path class="cls-2" d="M33.3,36a1.08,1.08,0,0,1-1.08-1.08V30.08a1.08,1.08,0,0,1,2.17,0v4.79A1.08,1.08,0,0,1,33.3,36Z"/><path class="cls-2" d="M50.19,19.06H45.4a1.08,1.08,0,1,1,0-2.17h4.79a1.08,1.08,0,1,1,0,2.17Z"/><path class="cls-2" d="M21.2,19.06H16.4a1.08,1.08,0,1,1,0-2.17H21.2a1.08,1.08,0,1,1,0,2.17Z"/><path class="cls-2" d="M41.86,10.5a1.08,1.08,0,0,1-.77-1.85l3.39-3.39A1.08,1.08,0,0,1,46,6.8l-3.39,3.39A1.08,1.08,0,0,1,41.86,10.5Z"/><path class="cls-2" d="M21.35,31a1.08,1.08,0,0,1-.77-1.85L24,25.77a1.08,1.08,0,0,1,1.53,1.53l-3.39,3.39A1.08,1.08,0,0,1,21.35,31Z"/><path class="cls-2" d="M24.74,10.5a1.08,1.08,0,0,1-.77-.32L20.58,6.8a1.08,1.08,0,0,1,1.53-1.53l3.39,3.39a1.08,1.08,0,0,1-.77,1.85Z"/><path class="cls-2" d="M45.25,31a1.08,1.08,0,0,1-.77-.32L41.09,27.3a1.08,1.08,0,0,1,1.53-1.53L46,29.16A1.08,1.08,0,0,1,45.25,31Z"/><path class="cls-3" d="M43.7,40.43H7.82A7.18,7.18,0,0,1,6.19,26.26a12.41,12.41,0,0,1-.16-2,12.56,12.56,0,0,1,24.58-3.63,8.07,8.07,0,0,1,13,5.43h.05a7.17,7.17,0,0,1,0,14.35Z"/><path class="cls-4" d="M43.7,41.08H7.82A7.83,7.83,0,0,1,5.47,25.79a13.21,13.21,0,0,1,25.47-6.17,8.62,8.62,0,0,1,4.68-1.36,8.71,8.71,0,0,1,8.59,7.2,7.82,7.82,0,0,1-.51,15.63ZM18.59,12.38A11.91,11.91,0,0,0,6.83,26.16a.65.65,0,0,1-.49.74A6.53,6.53,0,0,0,7.82,39.78H43.7a6.52,6.52,0,0,0,0-13,.71.71,0,0,1-.7-.58,7.42,7.42,0,0,0-12-5,.64.64,0,0,1-.6.11.65.65,0,0,1-.43-.43A12,12,0,0,0,18.59,12.38Z"/></g></g></svg>