<svg xmlns="http://www.w3.org/2000/svg" viewBox="0 0 51.43 46.56"><defs><style>.cls-1{fill:#878787;}.cls-2{fill:#fff;}.cls-3{fill:#f39424;}</style></defs><title>Recurso 32</title><g id="Capa_2" data-name="Capa 2"><g id="Capa_1-2" data-name="Capa 1"><path class="cls-1" d="M43.62,29.29H7.81A7.16,7.16,0,0,1,6.18,15.16a12.39,12.39,0,0,1-.16-2A12.53,12.53,0,0,1,30.55,9.56a8.06,8.06,0,0,1,13,5.42h.05a7.16,7.16,0,0,1,0,14.32Z"/><path class="cls-2" d="M43.62,29.94H7.81A7.81,7.81,0,0,1,5.46,14.68a13.43,13.43,0,0,1-.08-1.5A13.18,13.18,0,0,1,30.88,8.52a8.71,8.71,0,0,1,13.25,5.82,7.81,7.81,0,0,1-.51,15.6ZM18.55,1.3A11.89,11.89,0,0,0,6.82,15.05a.65.65,0,0,1-.49.74A6.51,6.51,0,0,0,7.81,28.64H43.62a6.51,6.51,0,0,0,0-13,.71.71,0,0,1-.7-.58,7.41,7.41,0,0,0-12-5,.65.65,0,0,1-1-.32A12,12,0,0,0,18.55,1.3Z"/><path class="cls-3" d="M18.6,45.91l-.25-.33c-.23-.36-.12-.81.13-1.38l5-11.4A.49.49,0,0,0,23,32H18.34a1.88,1.88,0,0,1-1.86-2.61l4.34-12.53a3.42,3.42,0,0,1,3.07-2.18h5.86a1.62,1.62,0,0,1,1.5,2.58l-4.64,8.19c-.14.25-.15.42-.11.49s.19.15.48.15h6.47a1.39,1.39,0,0,1,1.12,2.47L20,45.19c-.45.52-.76.72-1.09.72Z"/><path class="cls-2" d="M29.74,15.35c1,0,1.44.72.93,1.61L26,25.14c-.5.88-.08,1.61.94,1.61h6.47c1,0,1.3.63.63,1.39L19.55,44.76c-.29.33-.5.5-.6.5s-.1-.27.13-.8l5-11.4A1.12,1.12,0,0,0,23,31.37H18.34a1.23,1.23,0,0,1-1.24-1.75l4.34-12.53a2.78,2.78,0,0,1,2.45-1.75h5.86m0-1.3H23.88a4.05,4.05,0,0,0-3.68,2.62L15.87,29.2a2.53,2.53,0,0,0,2.47,3.47h4.48L17.89,43.94a2.08,2.08,0,0,0-.08,2,1.37,1.37,0,0,0,1.15.62,2.18,2.18,0,0,0,1.58-.94L35,29a2,2,0,0,0-1.61-3.55H27.35L31.8,17.6A2.27,2.27,0,0,0,29.74,14ZM27.11,25.88Zm-4.21,6.55h0Z"/></g></g></svg>