<svg xmlns="http://www.w3.org/2000/svg" viewBox="0 0 20.03 32.51"><defs><style>.cls-1{fill:#f39424;}.cls-2{fill:#fff;}</style></defs><title>Recurso 33</title><g id="Capa_2" data-name="Capa 2"><g id="Capa_1-2" data-name="Capa 1"><path class="cls-1" d="M2.9,31.86l-.25-.33c-.23-.36-.12-.81.13-1.38l5-11.4a.64.64,0,0,0,0-.58.64.64,0,0,0-.54-.2H2.64A2,2,0,0,1,1,17.18a2,2,0,0,1-.2-1.82L5.12,2.83A3.42,3.42,0,0,1,8.18.65H14a1.77,1.77,0,0,1,1.6.79,1.77,1.77,0,0,1-.1,1.78l-4.64,8.19c-.14.25-.15.42-.11.49s.19.15.48.15h6.47a1.51,1.51,0,0,1,1.54.79,1.51,1.51,0,0,1-.42,1.68L4.35,31.14c-.45.52-.76.72-1.09.72Z"/><path class="cls-2" d="M14,1.3c1,0,1.44.72.93,1.61l-4.64,8.19c-.5.88-.08,1.61.94,1.61h6.47c1,0,1.3.63.63,1.39L3.86,30.72c-.29.33-.5.5-.6.5s-.1-.27.13-.8l5-11.4a1.12,1.12,0,0,0-1.11-1.69H2.64A1.23,1.23,0,0,1,1.4,15.57L5.73,3A2.78,2.78,0,0,1,8.18,1.3H14M14,0H8.18A4.05,4.05,0,0,0,4.5,2.62L.17,15.15a2.62,2.62,0,0,0,.28,2.41,2.63,2.63,0,0,0,2.19,1.06H7.12L2.19,29.89a2.08,2.08,0,0,0-.08,2,1.37,1.37,0,0,0,1.15.62,2.18,2.18,0,0,0,1.58-.94L19.35,14.95a2.14,2.14,0,0,0,.52-2.37,2.15,2.15,0,0,0-2.13-1.17H11.65L16.1,3.55a2.4,2.4,0,0,0,.09-2.43A2.4,2.4,0,0,0,14,0ZM11.42,11.83ZM7.21,18.39h0Z"/></g></g></svg>