<svg xmlns="http://www.w3.org/2000/svg" viewBox="0 0 51.39 63.48"><defs><style>.cls-1{fill:#fece55;}.cls-2{fill:#c6c6c6;}.cls-3{fill:#fff;}.cls-4{fill:#c7c7c6;}.cls-5{fill:#878787;}</style></defs><title>Recurso 37</title><g id="Capa_2" data-name="Capa 2"><g id="Capa_1-2" data-name="Capa 1"><path class="cls-1" d="M33.22,27a9.06,9.06,0,1,1,9.06-9.06A9.07,9.07,0,0,1,33.22,27Z"/><path class="cls-1" d="M33.22,6.94a1.08,1.08,0,0,1-1.08-1.08V1.08a1.08,1.08,0,1,1,2.16,0V5.86A1.08,1.08,0,0,1,33.22,6.94Z"/><path class="cls-1" d="M33.22,35.87a1.08,1.08,0,0,1-1.08-1.08V30a1.08,1.08,0,1,1,2.16,0v4.78A1.08,1.08,0,0,1,33.22,35.87Z"/><path class="cls-1" d="M50.07,19H45.29a1.08,1.08,0,1,1,0-2.16h4.78a1.08,1.08,0,1,1,0,2.16Z"/><path class="cls-1" d="M21.14,19H16.36a1.08,1.08,0,1,1,0-2.16h4.78a1.08,1.08,0,1,1,0,2.16Z"/><path class="cls-1" d="M41.75,10.48A1.08,1.08,0,0,1,41,8.63l3.38-3.38A1.08,1.08,0,0,1,45.9,6.78l-3.38,3.38A1.08,1.08,0,0,1,41.75,10.48Z"/><path class="cls-1" d="M21.3,30.93a1.08,1.08,0,0,1-.76-1.84l3.38-3.38a1.08,1.08,0,0,1,1.53,1.53l-3.38,3.38A1.08,1.08,0,0,1,21.3,30.93Z"/><path class="cls-1" d="M24.68,10.48a1.08,1.08,0,0,1-.76-.32L20.53,6.78a1.08,1.08,0,0,1,1.53-1.53l3.38,3.38a1.08,1.08,0,0,1-.76,1.84Z"/><path class="cls-1" d="M45.13,30.93a1.08,1.08,0,0,1-.76-.32L41,27.23a1.08,1.08,0,0,1,1.53-1.53l3.38,3.38a1.08,1.08,0,0,1-.76,1.84Z"/><path class="cls-2" d="M43.59,40.32H7.8A7.16,7.16,0,0,1,6.17,26.2a12.38,12.38,0,0,1-.16-2A12.52,12.52,0,0,1,30.53,20.6a8.05,8.05,0,0,1,13,5.41h.05a7.16,7.16,0,0,1,0,14.31Z"/><path class="cls-3" d="M43.59,41H7.8A7.81,7.81,0,0,1,5.45,25.72a13.4,13.4,0,0,1-.08-1.5,13.17,13.17,0,0,1,25.5-4.66,8.71,8.71,0,0,1,13.24,5.82A7.8,7.8,0,0,1,43.59,41ZM18.54,12.35A11.88,11.88,0,0,0,6.82,26.09a.65.65,0,0,1-.49.74A6.51,6.51,0,0,0,7.8,39.67H43.59a6.51,6.51,0,0,0,0-13,.71.71,0,0,1-.7-.58,7.4,7.4,0,0,0-12-5,.64.64,0,0,1-.6.11.65.65,0,0,1-.43-.43A12,12,0,0,0,18.54,12.35Z"/><path class="cls-4" d="M13,48.45a.79.79,0,0,1-.6-1.3l4-4.61a.79.79,0,1,1,1.19,1l-4,4.61A.79.79,0,0,1,13,48.45Z"/><path class="cls-4" d="M18.54,53.13a.79.79,0,0,1-.61-1.28l5-6.16a.79.79,0,1,1,1.22,1l-5,6.16A.78.78,0,0,1,18.54,53.13Z"/><path class="cls-4" d="M27.73,52.59a.79.79,0,0,1-.61-1.28L33.06,44a.79.79,0,1,1,1.22,1L28.34,52.3A.79.79,0,0,1,27.73,52.59Z"/><path class="cls-4" d="M28.73,63.48a.79.79,0,0,1-.62-1.28L37.85,50a.79.79,0,1,1,1.23,1L29.34,63.19A.79.79,0,0,1,28.73,63.48Z"/><path class="cls-5" d="M10.37,56a1.8,1.8,0,1,1,1.8-1.81A1.8,1.8,0,0,1,10.37,56Z"/><circle class="cls-5" cx="41.48" cy="46.33" r="1.35"/><circle class="cls-5" cx="24.33" cy="55.5" r="1.35"/></g></g></svg>