<svg xmlns="http://www.w3.org/2000/svg" viewBox="0 0 39.51 14.08"><defs><style>.cls-1{fill:#65778b;}</style></defs><title>Recurso 68</title><g id="Capa_2" data-name="Capa 2"><g id="Capa_1-2" data-name="Capa 1"><path class="cls-1" d="M1.27,3.95H37.44A2.07,2.07,0,0,1,39.51,6v7.42a.64.64,0,0,1-1.29,0V6a.78.78,0,0,0-.78-.78H1.27a.64.64,0,1,1,0-1.29Z"/><path class="cls-1" d="M5.23,0a.64.64,0,0,1,.42,1.13l-4,3.52,4,3.52a.64.64,0,0,1-.85,1l-4.58-4a.64.64,0,0,1,0-1L4.8.16A.64.64,0,0,1,5.23,0Z"/></g></g></svg>