<svg width="52" height="53" viewBox="0 0 52 53" fill="none" xmlns="http://www.w3.org/2000/svg">
<g clip-path="url(#clip0_2_168)">
<path d="M32.3419 1L35.2422 4.75801L39.4343 2.4939L40.5415 7.09602L45.3004 6.7173L44.4229 11.3678L48.9258 12.94L46.2154 16.8347L49.6838 20.0858L45.6091 22.5514L47.4431 26.9194L42.7087 27.5294L42.5914 32.2591L38.0158 30.9082L35.9673 35.1816L32.3419 32.1033L28.7165 35.1816L26.668 30.9082L22.0924 32.2591L21.9751 27.5294L17.2406 26.9194L19.0747 22.5514L15 20.0858L18.4684 16.8347L15.7579 12.94L20.2609 11.3678L19.3834 6.7173L24.1423 7.09602L25.2495 2.4939L29.4416 4.75801L32.3419 1Z" fill="#FFB700"/>
<path d="M32.7014 28.2771C38.4387 28.2771 43.0897 23.6261 43.0897 17.8889C43.0897 12.1516 38.4387 7.50061 32.7014 7.50061C26.9641 7.50061 22.3132 12.1516 22.3132 17.8889C22.3132 23.6261 26.9641 28.2771 32.7014 28.2771Z" fill="#FECE55"/>
<path d="M11.81 52.18C11.6301 52.1767 11.4543 52.1249 11.3013 52.03C11.1484 51.9351 11.0239 51.8007 10.9409 51.641C10.858 51.4812 10.8197 51.3021 10.8301 51.1224C10.8405 50.9427 10.8992 50.7691 11 50.62L14.62 45.15C14.7672 44.9285 14.9964 44.7746 15.257 44.7221C15.5177 44.6696 15.7886 44.7228 16.01 44.87C16.2315 45.0172 16.3854 45.2463 16.4379 45.507C16.4904 45.7677 16.4372 46.0385 16.29 46.26L12.67 51.73C12.5767 51.8719 12.4487 51.9876 12.2983 52.0663C12.1478 52.1451 11.9798 52.1842 11.81 52.18Z" fill="#61C3D7"/>
<path d="M24 52.18C23.8199 52.1791 23.6434 52.1295 23.4892 52.0366C23.3349 51.9437 23.2086 51.8108 23.1236 51.6521C23.0386 51.4933 22.998 51.3146 23.0062 51.1347C23.0144 50.9548 23.071 50.7804 23.17 50.63L26.79 45.16C26.8629 45.0504 26.9567 44.9561 27.066 44.8827C27.1753 44.8093 27.298 44.7581 27.427 44.7321C27.5561 44.7061 27.689 44.7058 27.8182 44.7312C27.9474 44.7566 28.0704 44.8071 28.18 44.88C28.2897 44.9529 28.3839 45.0467 28.4573 45.156C28.5307 45.2653 28.5819 45.3879 28.6079 45.517C28.6339 45.6461 28.6342 45.779 28.6088 45.9082C28.5835 46.0374 28.5329 46.1604 28.46 46.27L24.84 51.74C24.7473 51.8771 24.6221 51.9891 24.4755 52.0659C24.3289 52.1427 24.1655 52.1819 24 52.18Z" fill="#61C3D7"/>
<path d="M36.09 52.18C35.9099 52.1791 35.7334 52.1295 35.5792 52.0366C35.4249 51.9437 35.2986 51.8108 35.2136 51.6521C35.1286 51.4933 35.088 51.3146 35.0962 51.1347C35.1044 50.9548 35.161 50.7804 35.26 50.63L38.88 45.16C38.9529 45.0504 39.0467 44.9561 39.156 44.8827C39.2653 44.8093 39.388 44.7581 39.517 44.7321C39.6461 44.7061 39.779 44.7058 39.9082 44.7312C40.0374 44.7566 40.1604 44.8071 40.27 44.88C40.3797 44.9529 40.4739 45.0467 40.5473 45.156C40.6207 45.2653 40.6719 45.3879 40.6979 45.517C40.7239 45.6461 40.7242 45.779 40.6988 45.9082C40.6735 46.0374 40.6229 46.1604 40.55 46.27L36.93 51.74C36.8373 51.8771 36.7121 51.9891 36.5655 52.0659C36.4189 52.1427 36.2555 52.1819 36.09 52.18Z" fill="#61C3D7"/>
<path d="M33.3 36C33.0136 36 32.7389 35.8862 32.5363 35.6837C32.3338 35.4811 32.22 35.2064 32.22 34.92V30.08C32.22 29.7922 32.3343 29.5163 32.5378 29.3128C32.7413 29.1093 33.0173 28.995 33.305 28.995C33.5928 28.995 33.8688 29.1093 34.0722 29.3128C34.2757 29.5163 34.39 29.7922 34.39 30.08V34.87C34.3968 35.0168 34.3736 35.1635 34.3218 35.301C34.2699 35.4386 34.1905 35.5641 34.0885 35.6699C33.9864 35.7757 33.8639 35.8595 33.7283 35.9163C33.5927 35.973 33.447 36.0015 33.3 36Z" fill="#FECE55"/>
<path d="M21.2 19.06H16.4C16.2575 19.06 16.1164 19.0319 15.9848 18.9774C15.8532 18.9229 15.7336 18.843 15.6328 18.7422C15.5321 18.6415 15.4521 18.5218 15.3976 18.3902C15.3431 18.2586 15.315 18.1175 15.315 17.975C15.315 17.8325 15.3431 17.6914 15.3976 17.5598C15.4521 17.4281 15.5321 17.3085 15.6328 17.2078C15.7336 17.107 15.8532 17.0271 15.9848 16.9726C16.1164 16.9181 16.2575 16.89 16.4 16.89H21.2C21.4878 16.89 21.7638 17.0043 21.9672 17.2078C22.1707 17.4113 22.285 17.6872 22.285 17.975C22.285 18.2628 22.1707 18.5387 21.9672 18.7422C21.7638 18.9457 21.4878 19.06 21.2 19.06Z" fill="#FECE55"/>
<path d="M21.35 31C21.1346 31.0026 20.9233 30.9406 20.7433 30.8221C20.5634 30.7036 20.4229 30.534 20.3402 30.3351C20.2574 30.1362 20.236 29.917 20.2787 29.7058C20.3214 29.4947 20.4264 29.3011 20.58 29.15L24 25.77C24.2029 25.5671 24.4781 25.4531 24.765 25.4531C25.0519 25.4531 25.3271 25.5671 25.53 25.77C25.7329 25.9729 25.8469 26.2481 25.8469 26.535C25.8469 26.8219 25.7329 27.0971 25.53 27.3L22.14 30.69C22.0361 30.7924 21.9125 30.8726 21.7767 30.9259C21.641 30.9791 21.4958 31.0044 21.35 31Z" fill="#FECE55"/>
<path d="M45.25 31C45.1069 31.0004 44.9651 30.9723 44.8329 30.9173C44.7007 30.8624 44.5807 30.7817 44.48 30.68L41.09 27.3C40.9895 27.1996 40.9099 27.0803 40.8555 26.949C40.8011 26.8178 40.7731 26.6771 40.7731 26.535C40.7731 26.3929 40.8011 26.2523 40.8555 26.121C40.9099 25.9897 40.9895 25.8705 41.09 25.77C41.1905 25.6696 41.3097 25.5899 41.441 25.5355C41.5722 25.4811 41.7129 25.4531 41.855 25.4531C41.9971 25.4531 42.1378 25.4811 42.269 25.5355C42.4003 25.5899 42.5195 25.6696 42.62 25.77L46 29.16C46.149 29.3104 46.2505 29.5013 46.2919 29.7089C46.3334 29.9165 46.3128 30.1317 46.2329 30.3278C46.153 30.5239 46.0172 30.6921 45.8425 30.8116C45.6677 30.9311 45.4617 30.9966 45.25 31Z" fill="#FECE55"/>
<path d="M43.7 40.43H7.82002C6.0597 40.4274 4.3617 39.7781 3.04865 38.6057C1.7356 37.4333 0.899008 35.8193 0.697842 34.0705C0.496676 32.3218 0.944954 30.56 1.9575 29.12C2.97004 27.6801 4.47628 26.6623 6.19002 26.26C6.08279 25.5988 6.02928 24.9299 6.03002 24.26C6.03318 21.2491 7.11785 18.3395 9.08642 16.0613C11.055 13.7831 13.7764 12.2879 16.755 11.848C19.7336 11.4081 22.7711 12.0529 25.3142 13.6648C27.8573 15.2767 29.7367 17.7486 30.61 20.63C31.7393 19.7437 33.0846 19.1746 34.5072 18.9816C35.9298 18.7885 37.3781 18.9784 38.7028 19.5318C40.0275 20.0851 41.1806 20.9817 42.0432 22.1293C42.9058 23.2768 43.4467 24.6337 43.61 26.06H43.66C45.5629 26.06 47.3879 26.8159 48.7335 28.1615C50.0791 29.5071 50.835 31.3321 50.835 33.235C50.835 35.1379 50.0791 36.9629 48.7335 38.3085C47.3879 39.6541 45.5629 40.41 43.66 40.41L43.7 40.43Z" fill="#C4D0E0"/>
<path d="M43.7 41.08H7.82001C5.95439 41.0733 4.15248 40.4006 2.73882 39.1831C1.32516 37.9657 0.392645 36.2835 0.109233 34.4395C-0.174179 32.5955 0.210135 30.711 1.19296 29.1252C2.17578 27.5394 3.69252 26.3567 5.47001 25.79C5.11565 22.5963 5.93755 19.3828 7.78183 16.7514C9.62611 14.12 12.3663 12.2511 15.4893 11.4946C18.6124 10.738 21.9041 11.1458 24.7481 12.6414C27.5922 14.1371 29.7935 16.6181 30.94 19.62C32.3367 18.7259 33.9617 18.2537 35.62 18.26C37.6702 18.2572 39.6557 18.9777 41.227 20.2947C42.7983 21.6118 43.8546 23.4408 44.21 25.46C46.2618 25.5571 48.1931 26.4576 49.5864 27.967C50.9797 29.4763 51.7232 31.4733 51.6562 33.5263C51.5892 35.5793 50.7172 37.5236 49.2284 38.9389C47.7397 40.3542 45.7538 41.1269 43.7 41.09V41.08ZM18.59 12.38C16.868 12.3803 15.1665 12.7541 13.6029 13.4755C12.0393 14.1969 10.6507 15.2487 9.53286 16.5586C8.41501 17.8685 7.5945 19.4051 7.12788 21.0627C6.66126 22.7203 6.55964 24.4594 6.83001 26.16C6.85733 26.3225 6.82193 26.4893 6.73097 26.6267C6.64 26.764 6.50027 26.8617 6.34001 26.9C4.78842 27.2719 3.42668 28.199 2.51191 29.5063C1.59713 30.8135 1.19262 32.4105 1.37476 33.9956C1.5569 35.5807 2.31308 37.0443 3.50053 38.11C4.68797 39.1757 6.22451 39.7697 7.82001 39.78H43.7C45.3359 39.6516 46.8631 38.9111 47.9771 37.7063C49.091 36.5014 49.7097 34.9209 49.7097 33.28C49.7097 31.6391 49.091 30.0586 47.9771 28.8538C46.8631 27.6489 45.3359 26.9084 43.7 26.78C43.5339 26.7805 43.3729 26.7227 43.245 26.6167C43.1171 26.5108 43.0304 26.3633 43 26.2C42.8562 24.8797 42.3607 23.6223 41.5652 22.5588C40.7697 21.4954 39.7034 20.6649 38.4775 20.1541C37.2516 19.6433 35.911 19.4709 34.5958 19.6549C33.2805 19.8388 32.0387 20.3725 31 21.2C30.9171 21.2668 30.8187 21.3119 30.714 21.3311C30.6092 21.3503 30.5013 21.3431 30.4 21.31C30.2987 21.2788 30.2066 21.2233 30.1316 21.1484C30.0567 21.0734 30.0012 20.9813 29.97 20.88C29.225 18.4363 27.7195 16.2942 25.6727 14.7654C23.6259 13.2366 21.1446 12.4009 18.59 12.38Z" fill="white"/>
</g>
<defs>
<clipPath id="clip0_2_168">
<rect width="51.52" height="52.18" fill="white"/>
</clipPath>
</defs>
</svg>
