<svg width="53" height="50" viewBox="0 0 53 50" fill="none" xmlns="http://www.w3.org/2000/svg">
<g clip-path="url(#clip0_7_561)">
<path d="M36.01 47.79C37.0428 47.79 37.88 46.9528 37.88 45.92C37.88 44.8872 37.0428 44.05 36.01 44.05C34.9772 44.05 34.14 44.8872 34.14 45.92C34.14 46.9528 34.9772 47.79 36.01 47.79Z" fill="#878787"/>
<path d="M4.40998 41.7C5.44275 41.7 6.27998 40.8628 6.27998 39.83C6.27998 38.7972 5.44275 37.96 4.40998 37.96C3.37721 37.96 2.53998 38.7972 2.53998 39.83C2.53998 40.8628 3.37721 41.7 4.40998 41.7Z" fill="#878787"/>
<path d="M18.1 43.22C19.0113 43.22 19.75 42.4813 19.75 41.57C19.75 40.6587 19.0113 39.92 18.1 39.92C17.1887 39.92 16.45 40.6587 16.45 41.57C16.45 42.4813 17.1887 43.22 18.1 43.22Z" fill="#878787"/>
<path d="M36.59 36.45C37.4129 36.45 38.08 35.7829 38.08 34.96C38.08 34.1371 37.4129 33.47 36.59 33.47C35.7671 33.47 35.1 34.1371 35.1 34.96C35.1 35.7829 35.7671 36.45 36.59 36.45Z" fill="#878787"/>
<path d="M6.92999 37.87C6.8056 37.8683 6.68422 37.8315 6.57986 37.7638C6.47549 37.6961 6.39239 37.6002 6.34013 37.4874C6.28786 37.3745 6.26857 37.2491 6.28447 37.1257C6.30037 37.0023 6.35081 36.886 6.42999 36.79L9.72999 32.95C9.7852 32.8803 9.85393 32.8225 9.93204 32.7801C10.0101 32.7376 10.096 32.7114 10.1845 32.7029C10.273 32.6945 10.3623 32.704 10.447 32.7309C10.5318 32.7578 10.6102 32.8016 10.6776 32.8596C10.745 32.9175 10.8 32.9885 10.8393 33.0682C10.8786 33.148 10.9013 33.2349 10.9062 33.3236C10.9111 33.4124 10.898 33.5012 10.8678 33.5848C10.8375 33.6684 10.7906 33.745 10.73 33.81L7.42999 37.65C7.36718 37.7202 7.29006 37.7762 7.20382 37.8142C7.11757 37.8521 7.0242 37.8712 6.92999 37.87Z" fill="#C7C7C6"/>
<path d="M11.91 41.07C11.7865 41.0687 11.6659 41.0327 11.5619 40.9662C11.4578 40.8998 11.3745 40.8055 11.3214 40.694C11.2682 40.5826 11.2474 40.4584 11.2613 40.3358C11.2752 40.2131 11.3233 40.0967 11.4 40L15.58 34.87C15.6983 34.7699 15.8481 34.7147 16.0031 34.714C16.1581 34.7133 16.3084 34.7671 16.4276 34.8661C16.5469 34.9651 16.6275 35.1029 16.6554 35.2554C16.6832 35.4078 16.6565 35.5652 16.58 35.7L12.4 40.83C12.3406 40.9031 12.266 40.9625 12.1814 41.0039C12.0968 41.0453 12.0042 41.0679 11.91 41.07Z" fill="#C7C7C6"/>
<path d="M25.52 49.69C25.3957 49.6905 25.2737 49.6559 25.1682 49.5902C25.0627 49.5245 24.9779 49.4303 24.9236 49.3185C24.8692 49.2067 24.8476 49.0818 24.8611 48.9582C24.8746 48.8347 24.9228 48.7174 25 48.62L33.11 38.5C33.228 38.4041 33.3756 38.3519 33.5276 38.3523C33.6797 38.3526 33.827 38.4055 33.9446 38.5019C34.0622 38.5984 34.1429 38.7324 34.173 38.8815C34.2031 39.0306 34.1809 39.1855 34.11 39.32L26 49.44C25.9426 49.5137 25.8701 49.5742 25.7872 49.6173C25.7044 49.6605 25.6132 49.6853 25.52 49.69Z" fill="#C7C7C6"/>
<path d="M39.23 41.09C39.1074 41.0891 38.9875 41.054 38.8837 40.9888C38.78 40.9236 38.6964 40.8307 38.6424 40.7207C38.5884 40.6106 38.5662 40.4877 38.5781 40.3657C38.59 40.2437 38.6357 40.1275 38.71 40.03L42.22 35.5C42.3376 35.4077 42.4831 35.358 42.6326 35.3592C42.7821 35.3603 42.9268 35.4122 43.043 35.5063C43.1591 35.6004 43.2399 35.7311 43.2721 35.8772C43.3043 36.0232 43.2859 36.1758 43.22 36.31L39.72 40.8C39.6657 40.8823 39.5933 40.9513 39.5084 41.0015C39.4235 41.0517 39.3283 41.082 39.23 41.09Z" fill="#C7C7C6"/>
<path d="M8.43999 31.04C6.57598 31.0418 4.77294 30.3761 3.35741 29.1633C1.94188 27.9505 1.00746 26.2709 0.723392 24.4287C0.43932 22.5865 0.824375 20.7034 1.80882 19.1206C2.79327 17.5377 4.31201 16.3597 6.08999 15.8C6.03214 15.3054 6.00209 14.808 5.99999 14.31C5.99207 11.2246 7.06849 8.23456 9.04117 5.8622C11.0138 3.48985 13.7574 1.88603 16.7924 1.33095C19.8274 0.77588 22.961 1.30484 25.6457 2.82543C28.3303 4.34602 30.3954 6.76154 31.48 9.64999C32.6877 8.88607 34.065 8.43141 35.4902 8.3262C36.9153 8.22098 38.3445 8.46845 39.6513 9.04673C40.9581 9.62501 42.1023 10.5163 42.9829 11.6418C43.8634 12.7673 44.4532 14.0924 44.7 15.5C46.6903 15.6704 48.5393 16.598 49.8659 18.0914C51.1926 19.5849 51.8956 21.5304 51.8302 23.5269C51.7648 25.5234 50.936 27.4187 49.5144 28.8222C48.0929 30.2256 46.1872 31.0302 44.19 31.07L8.43999 31.04Z" fill="#A0ADBF"/>
<path d="M19.17 1.8C21.8602 1.79458 24.4805 2.65651 26.6421 4.25792C28.8037 5.85933 30.3915 8.11489 31.17 10.69C32.2902 9.7809 33.6353 9.19162 35.063 8.98455C36.4907 8.77749 37.9479 8.96034 39.2801 9.51374C40.6124 10.0672 41.7703 10.9705 42.6311 12.1282C43.4919 13.2859 44.0236 14.6548 44.17 16.09H44.22C46.0687 16.1592 47.8187 16.9422 49.1021 18.2746C50.3856 19.607 51.1026 21.385 51.1026 23.235C51.1026 25.085 50.3856 26.863 49.1021 28.1954C47.8187 29.5278 46.0687 30.3108 44.22 30.38H8.44C6.69512 30.3658 5.01568 29.714 3.71805 28.5474C2.42042 27.3807 1.5942 25.7799 1.39503 24.0464C1.19586 22.3128 1.63749 20.5663 2.63672 19.1358C3.63596 17.7053 5.12381 16.6896 6.82 16.28C6.7126 15.6188 6.65909 14.9499 6.66 14.28C6.66794 10.9673 7.98946 7.79308 10.3347 5.45348C12.6799 3.11389 15.8573 1.79999 19.17 1.8ZM19.17 0.5C15.5082 0.502649 11.9971 1.95848 9.40778 4.54778C6.81848 7.13708 5.36265 10.6482 5.36 14.31C5.36 14.66 5.36 15.01 5.36 15.36C3.52513 16.0703 1.99565 17.3986 1.03534 19.1159C0.0750322 20.8332 -0.255904 22.8318 0.0996074 24.767C0.455119 26.7021 1.47479 28.4526 2.98277 29.7164C4.49074 30.9802 6.39248 31.6782 8.36 31.69H44.19C46.334 31.6812 48.3944 30.8577 49.9539 29.3864C51.5133 27.9151 52.4552 25.906 52.5887 23.7662C52.7222 21.6264 52.0374 19.5159 50.6729 17.8622C49.3083 16.2084 47.3662 15.1353 45.24 14.86C44.9137 13.4706 44.2737 12.1744 43.3689 11.0706C42.4642 9.96678 41.3188 9.08475 40.0205 8.49207C38.7222 7.89939 37.3055 7.61178 35.8788 7.65129C34.4522 7.6908 33.0535 8.05637 31.79 8.72C30.6965 6.28368 28.9254 4.21331 26.6877 2.75582C24.4501 1.29834 21.8404 0.515264 19.17 0.5Z" fill="white"/>
<path d="M20.36 46.77L20.11 46.43C20.0178 46.2333 19.9768 46.0165 19.9908 45.7997C20.0048 45.5829 20.0733 45.3732 20.19 45.19L23.87 36.77C23.8928 36.7019 23.8928 36.6281 23.87 36.56C23.8017 36.5378 23.7282 36.5378 23.66 36.56H20.29C20.017 36.5752 19.7447 36.5211 19.4982 36.4028C19.2518 36.2844 19.0394 36.1056 18.8807 35.883C18.722 35.6604 18.6222 35.4013 18.5906 35.1297C18.559 34.8582 18.5966 34.5831 18.7 34.33L21.9 25.08C22.0951 24.5748 22.434 24.138 22.8748 23.8234C23.3155 23.5088 23.8388 23.3303 24.38 23.31H28.71C28.9721 23.2953 29.2331 23.353 29.4646 23.4768C29.6961 23.6006 29.889 23.7858 30.0222 24.012C30.1554 24.2381 30.2238 24.4966 30.2199 24.7591C30.216 25.0216 30.1399 25.2779 30 25.5L26.57 31.5C26.5478 31.541 26.531 31.5847 26.52 31.63H31.43C31.7043 31.5799 31.9876 31.623 32.2346 31.7525C32.4816 31.8819 32.6783 32.0903 32.7933 32.3444C32.9082 32.5985 32.9349 32.8837 32.8691 33.1547C32.8033 33.4257 32.6487 33.6669 32.43 33.84L21.72 46.16C21.6087 46.3293 21.4614 46.4718 21.2885 46.5772C21.1155 46.6827 20.9214 46.7486 20.72 46.77H20.36Z" fill="#F39424"/>
<path d="M28.71 23.97C29.46 23.97 29.77 24.5 29.4 25.16L25.97 31.16C25.6 31.81 25.91 32.35 26.66 32.35H31.44C32.19 32.35 32.44 32.81 31.91 33.35L21.19 45.7C20.97 45.95 20.82 46.07 20.75 46.07C20.68 46.07 20.67 45.87 20.84 45.48L24.52 37.06C24.6003 36.9262 24.6413 36.7724 24.6381 36.6163C24.635 36.4602 24.5879 36.3082 24.5023 36.1776C24.4167 36.0471 24.296 35.9434 24.154 35.8784C24.0121 35.8133 23.8547 35.7896 23.7 35.81H20.29C20.1271 35.8291 19.962 35.8037 19.8123 35.7367C19.6627 35.6696 19.5339 35.5634 19.4396 35.4292C19.3453 35.2949 19.2891 35.1377 19.2768 34.9742C19.2646 34.8106 19.2968 34.6468 19.37 34.5L22.57 25.25C22.7167 24.8844 22.9653 24.5686 23.2861 24.34C23.6069 24.1113 23.9865 23.9795 24.38 23.96H28.7M28.7 22.54H24.38C23.6908 22.5597 23.0231 22.7842 22.4621 23.1849C21.901 23.5857 21.4721 24.1445 21.23 24.79L18 34.05C17.8605 34.4099 17.8127 34.7989 17.8608 35.1819C17.9089 35.5649 18.0514 35.9299 18.2754 36.2442C18.4995 36.5585 18.7982 36.8122 19.1446 36.9826C19.491 37.1529 19.8742 37.2345 20.26 37.22H22.87L19.53 44.9C19.3707 45.1931 19.2872 45.5214 19.2872 45.855C19.2872 46.1886 19.3707 46.5169 19.53 46.81C19.6631 47.0152 19.8453 47.1839 20.06 47.3009C20.2748 47.4179 20.5154 47.4795 20.76 47.48C21.0593 47.4606 21.3504 47.3742 21.6118 47.227C21.8732 47.0799 22.0981 46.8759 22.27 46.63L33 34.35C33.2763 34.061 33.4597 33.6959 33.5264 33.3017C33.5932 32.9075 33.5402 32.5024 33.3745 32.1385C33.2087 31.7747 32.9377 31.4689 32.5964 31.2606C32.2552 31.0523 31.8593 30.9511 31.46 30.97H27.76L30.66 25.86C30.8818 25.5288 31.0063 25.1419 31.0191 24.7434C31.032 24.3449 30.9328 23.9508 30.7327 23.606C30.5327 23.2611 30.2398 22.9793 29.8876 22.7926C29.5353 22.6059 29.1377 22.5219 28.74 22.55L28.7 22.54Z" fill="white"/>
</g>
<defs>
<clipPath id="clip0_7_561">
<rect width="52.63" height="49.19" fill="white" transform="translate(0 0.5)"/>
</clipPath>
</defs>
</svg>
