<svg xmlns="http://www.w3.org/2000/svg" viewBox="0 0 27.76 34.53"><defs><style>.cls-1{fill:#65778b;}</style></defs><title>Recurso 52</title><g id="Capa_2" data-name="Capa 2"><g id="Capa_1-2" data-name="Capa 1"><path class="cls-1" d="M21.45,34.53a.64.64,0,0,1-.46-1.1l5.25-5.25a.79.79,0,0,0,0-1.1L.67,1.5A.64.64,0,0,1,1.58.59L27.16,26.17a2.07,2.07,0,0,1,0,2.92l-5.25,5.25A.64.64,0,0,1,21.45,34.53Z"/><path class="cls-1" d="M1.05,7.36a.64.64,0,0,1-.64-.6L0,.69A.64.64,0,0,1,.19.19.62.62,0,0,1,.69,0L6.76.42a.64.64,0,0,1,.6.69.63.63,0,0,1-.69.6L1.33,1.34,1.7,6.67a.64.64,0,0,1-.6.69Z"/></g></g></svg>