<svg width="52" height="56" viewBox="0 0 52 56" fill="none" xmlns="http://www.w3.org/2000/svg">
<g clip-path="url(#clip0_7_480)">
<path d="M34.0621 0L36.9919 3.79623L41.2266 1.5091L42.3451 6.15801L47.1524 5.77544L46.2659 10.4732L50.8147 12.0614L48.0767 15.9957L51.5804 19.2799L47.4642 21.7706L49.3169 26.183L44.5343 26.7992L44.4158 31.577L39.7937 30.2124L37.7244 34.5293L34.0621 31.4196L30.3998 34.5293L28.3305 30.2124L23.7084 31.577L23.5898 26.7992L18.8073 26.183L20.66 21.7706L16.5438 19.2799L20.0475 15.9957L17.3095 12.0614L21.8582 10.4732L20.9718 5.77544L25.7791 6.15801L26.8975 1.5091L31.1323 3.79623L34.0621 0Z" fill="#FFB700"/>
<path d="M34.4253 27.5545C40.2209 27.5545 44.9192 22.8562 44.9192 17.0606C44.9192 11.265 40.2209 6.56671 34.4253 6.56671C28.6297 6.56671 23.9314 11.265 23.9314 17.0606C23.9314 22.8562 28.6297 27.5545 34.4253 27.5545Z" fill="#FECE55"/>
<path d="M8.25033 40.0107L8.24694 40.0107C6.63071 40.0191 5.06819 39.431 3.85868 38.3589C2.64918 37.2868 1.87774 35.8062 1.69213 34.2006C1.50652 32.5951 1.9198 30.9775 2.8528 29.6577C3.7858 28.338 5.17292 27.4088 6.74845 27.0483L7.34164 26.9126L7.24404 26.3119C7.14114 25.6787 7.08989 25.0381 7.09081 24.3965L7.09081 24.3946C7.08649 21.5184 8.11724 18.7367 9.99471 16.5577C11.8722 14.3787 14.471 12.9481 17.3163 12.5272C20.1615 12.1063 23.0633 12.7232 25.4912 14.2652C27.9191 15.8072 29.7112 18.1714 30.5398 20.9257L30.8185 21.8522L31.5698 21.2425C32.6105 20.3979 33.8602 19.8504 35.1867 19.658C36.5132 19.4656 37.867 19.6355 39.1048 20.1496C40.3426 20.6638 41.4183 21.5031 42.2181 22.5787C43.0178 23.6543 43.5119 24.9261 43.6479 26.2595L43.7073 26.8424H44.2932H44.3437C46.0859 26.8424 47.7567 27.5345 48.9887 28.7664C50.2206 29.9983 50.9127 31.6692 50.9127 33.4114C50.9127 35.1536 50.2206 36.8244 48.9887 38.0564C47.7567 39.2883 46.0859 39.9804 44.3437 39.9804H43.8762L43.8661 40.0107L8.25033 40.0107Z" fill="#616D7E" stroke="white" stroke-width="1.29737"/>
<path d="M13.1798 53.6097L12.9475 53.2764C12.7253 52.9329 12.8263 52.5086 13.0586 51.9833L17.4529 41.9423C17.5069 41.8846 17.54 41.8105 17.547 41.7318C17.554 41.6531 17.5344 41.5743 17.4914 41.508C17.4484 41.4418 17.3844 41.3918 17.3097 41.3661C17.2349 41.3405 17.1538 41.3406 17.0791 41.3665H12.9475C12.6509 41.3868 12.3541 41.3307 12.0854 41.2035C11.8168 41.0763 11.5852 40.8823 11.4129 40.6401C11.2406 40.3979 11.1333 40.1155 11.1013 39.82C11.0694 39.5244 11.1137 39.2256 11.2302 38.9521L15.0487 27.9211C15.2611 27.3481 15.6381 26.8506 16.1324 26.4912C16.6266 26.1317 17.216 25.9263 17.8266 25.9008H23.0492C23.3408 25.8686 23.6354 25.9217 23.8973 26.0537C24.1593 26.1857 24.3773 26.3909 24.5249 26.6444C24.6725 26.8979 24.7434 27.1888 24.7289 27.4817C24.7144 27.7747 24.6151 28.0572 24.4432 28.2949L20.4026 35.5075C20.2914 35.6994 20.2914 35.8206 20.3116 35.8509C20.3318 35.8812 20.4329 35.9418 20.6551 35.9418H26.3525C26.635 35.9044 26.9221 35.9598 27.1703 36.0999C27.4186 36.2399 27.6145 36.4569 27.7286 36.7181C27.8426 36.9793 27.8686 37.2705 27.8026 37.5478C27.7366 37.8251 27.5822 38.0733 27.3626 38.2551L14.5638 52.943C14.1496 53.4178 13.8567 53.5996 13.5536 53.5996L13.1798 53.6097Z" fill="#FFB700"/>
<path d="M23.0492 26.6079C23.9483 26.6079 24.3119 27.2443 23.8674 28.0221L19.8268 35.2347C19.3823 36.0126 19.7561 36.649 20.6551 36.649H26.3525C27.2515 36.649 27.5041 37.2045 26.9081 37.8713L14.0688 52.5086C13.8163 52.8016 13.6344 52.943 13.5435 52.943C13.4526 52.943 13.4526 52.7006 13.6546 52.2359L17.9984 42.2453C18.0897 42.082 18.1339 41.8966 18.126 41.7097C18.1181 41.5227 18.0585 41.3417 17.9537 41.1867C17.849 41.0316 17.7032 40.9088 17.5328 40.8317C17.3623 40.7546 17.1738 40.7264 16.9882 40.7502H12.9475C12.7644 40.7526 12.5837 40.7088 12.422 40.6229C12.2603 40.5371 12.1228 40.4119 12.0222 40.259C11.9216 40.106 11.8611 39.9302 11.8462 39.7477C11.8314 39.5653 11.8627 39.382 11.9373 39.2148L15.7154 28.1029C15.8909 27.6669 16.1879 27.2904 16.5711 27.0182C16.9543 26.746 17.4076 26.5896 17.8771 26.5675H23.0492M23.0492 25.2542H17.8771C17.1331 25.2746 16.412 25.5161 15.8057 25.9479C15.1994 26.3796 14.7354 26.9822 14.4729 27.6786L10.6544 38.7501C10.5067 39.1189 10.4531 39.5187 10.4985 39.9134C10.5439 40.3081 10.6867 40.6853 10.9142 41.011C11.1417 41.3367 11.4467 41.6007 11.8016 41.7791C12.1566 41.9576 12.5504 42.0449 12.9475 42.0332H16.6346L12.4424 51.7207C12.2739 52.0105 12.1801 52.3376 12.1695 52.6727C12.1589 53.0078 12.2319 53.3402 12.3818 53.64C12.5064 53.8321 12.677 53.99 12.8781 54.0994C13.0792 54.2088 13.3045 54.2661 13.5334 54.2663C13.8366 54.2418 14.1303 54.1491 14.3927 53.9952C14.6551 53.8412 14.8793 53.6301 15.0487 53.3774L27.8273 38.7299C28.1377 38.4515 28.3512 38.0814 28.4368 37.6733C28.5225 37.2652 28.4757 36.8405 28.3033 36.4608C28.1309 36.0812 27.842 35.7664 27.4784 35.5622C27.1148 35.3581 26.6956 35.2752 26.2818 35.3256H21.2309L25.0089 28.6585C25.2362 28.3215 25.3638 27.9272 25.3772 27.521C25.3905 27.1147 25.2891 26.7129 25.0845 26.3617C24.8799 26.0105 24.5804 25.7241 24.2204 25.5353C23.8604 25.3466 23.4545 25.2632 23.0492 25.2946V25.2542Z" fill="white"/>
</g>
<defs>
<clipPath id="clip0_7_480">
<rect width="51.55" height="55.17" fill="white"/>
</clipPath>
</defs>
</svg>
