<svg xmlns="http://www.w3.org/2000/svg" viewBox="0 0 34.53 27.76"><defs><style>.cls-1{fill:#65778b;}</style></defs><title>Recurso 64</title><g id="Capa_2" data-name="Capa 2"><g id="Capa_1-2" data-name="Capa 1"><path class="cls-1" d="M1,27.28a.64.64,0,0,1-.46-1.1L26.17.6a2.07,2.07,0,0,1,2.92,0l5.25,5.25a.64.64,0,1,1-.91.91L28.18,1.51a.78.78,0,0,0-1.1,0L1.5,27.09A.64.64,0,0,1,1,27.28Z"/><path class="cls-1" d="M.64,27.76A.64.64,0,0,1,0,27.07L.41,21a.64.64,0,1,1,1.28.09l-.36,5.33,5.33-.36a.64.64,0,0,1,.09,1.28l-6.07.41Z"/></g></g></svg>