<svg width="52" height="48" viewBox="0 0 52 48" fill="none" xmlns="http://www.w3.org/2000/svg">
<g clip-path="url(#clip0_7_458)">
<path d="M7.91001 42.74C7.72992 42.7391 7.55343 42.6895 7.39917 42.5966C7.24491 42.5037 7.11861 42.3708 7.0336 42.2121C6.94858 42.0533 6.90802 41.8745 6.91619 41.6946C6.92436 41.5147 6.98096 41.3404 7.08001 41.19L10.89 35.44C11.0372 35.2185 11.2663 35.0646 11.527 35.0121C11.7877 34.9596 12.0585 35.0128 12.28 35.16C12.5015 35.3072 12.6554 35.5363 12.7079 35.797C12.7604 36.0577 12.7072 36.3285 12.56 36.55L8.75001 42.29C8.65849 42.429 8.53373 42.5429 8.38705 42.6215C8.24037 42.7001 8.0764 42.7408 7.91001 42.74Z" fill="#61C3D7"/>
<path d="M11 47.72C10.8199 47.7191 10.6434 47.6695 10.4891 47.5766C10.3349 47.4837 10.2086 47.3508 10.1236 47.1921C10.0386 47.0333 9.99799 46.8545 10.0062 46.6746C10.0143 46.4947 10.0709 46.3204 10.17 46.17L17.28 35.44C17.4272 35.2185 17.6563 35.0646 17.917 35.0121C18.1777 34.9596 18.4485 35.0128 18.67 35.16C18.8914 35.3072 19.0453 35.5363 19.0978 35.797C19.1504 36.0577 19.0972 36.3285 18.95 36.55L11.83 47.27C11.7394 47.4076 11.6162 47.5206 11.4714 47.5991C11.3266 47.6776 11.1647 47.7191 11 47.72Z" fill="#61C3D7"/>
<path d="M20.68 42.74C20.4999 42.7391 20.3234 42.6895 20.1691 42.5966C20.0149 42.5037 19.8886 42.3708 19.8036 42.2121C19.7185 42.0533 19.678 41.8745 19.6861 41.6946C19.6943 41.5147 19.7509 41.3404 19.85 41.19L23.66 35.44C23.7328 35.3303 23.8266 35.2361 23.9359 35.1627C24.0452 35.0893 24.1679 35.0381 24.297 35.0121C24.426 34.9861 24.559 34.9858 24.6882 35.0112C24.8174 35.0365 24.9403 35.0871 25.05 35.16C25.1596 35.2329 25.2538 35.3266 25.3273 35.4359C25.4007 35.5452 25.4518 35.6679 25.4778 35.797C25.5038 35.9261 25.5042 36.059 25.4788 36.1882C25.4534 36.3174 25.4028 36.4403 25.33 36.55L21.52 42.3C21.4273 42.4371 21.302 42.5491 21.1554 42.6259C21.0088 42.7027 20.8455 42.7419 20.68 42.74Z" fill="#61C3D7"/>
<path d="M23.76 47.72C23.5799 47.7191 23.4034 47.6695 23.2491 47.5766C23.0949 47.4837 22.9686 47.3508 22.8836 47.1921C22.7986 47.0333 22.758 46.8545 22.7662 46.6746C22.7743 46.4947 22.8309 46.3204 22.93 46.17L30 35.44C30.1472 35.2185 30.3763 35.0646 30.637 35.0121C30.8977 34.9596 31.1685 35.0128 31.39 35.16C31.6114 35.3072 31.7653 35.5363 31.8179 35.797C31.8704 36.0577 31.8172 36.3285 31.67 36.55L24.6 47.27C24.5085 47.409 24.3837 47.5229 24.237 47.6015C24.0903 47.6801 23.9264 47.7208 23.76 47.72Z" fill="#61C3D7"/>
<path d="M33.44 42.74C33.2599 42.7391 33.0834 42.6895 32.9291 42.5966C32.7749 42.5037 32.6486 42.3708 32.5636 42.2121C32.4786 42.0533 32.438 41.8745 32.4462 41.6946C32.4543 41.5147 32.5109 41.3404 32.61 41.19L36.42 35.44C36.4929 35.3303 36.5866 35.2361 36.6959 35.1627C36.8052 35.0893 36.9279 35.0381 37.057 35.0121C37.1861 34.9861 37.319 34.9858 37.4482 35.0112C37.5774 35.0365 37.7003 35.0871 37.81 35.16C37.9196 35.2329 38.0139 35.3266 38.0873 35.4359C38.1607 35.5452 38.2118 35.6679 38.2378 35.797C38.2639 35.9261 38.2642 36.059 38.2388 36.1882C38.2134 36.3174 38.1629 36.4403 38.09 36.55L34.28 42.3C34.1873 42.4371 34.062 42.5491 33.9154 42.6259C33.7688 42.7027 33.6055 42.7419 33.44 42.74Z" fill="#61C3D7"/>
<path d="M36.53 47.72C36.3499 47.7191 36.1734 47.6695 36.0192 47.5766C35.8649 47.4837 35.7386 47.3508 35.6536 47.1921C35.5686 47.0333 35.528 46.8545 35.5362 46.6746C35.5444 46.4947 35.601 46.3204 35.7 46.17L42.8 35.44C42.9472 35.2185 43.1763 35.0646 43.437 35.0121C43.6977 34.9596 43.9685 35.0128 44.19 35.16C44.4115 35.3072 44.5654 35.5363 44.6179 35.797C44.6704 36.0577 44.6172 36.3285 44.47 36.55L37.36 47.27C37.2694 47.4076 37.1462 47.5206 37.0014 47.5991C36.8567 47.6776 36.6947 47.7191 36.53 47.72Z" fill="#61C3D7"/>
<path d="M43.73 29.36H7.81999C6.05967 29.3574 4.36167 28.7081 3.04862 27.5357C1.73557 26.3633 0.898977 24.7493 0.697812 23.0005C0.496646 21.2517 0.944924 19.49 1.95747 18.05C2.97001 16.6101 4.47625 15.5923 6.18999 15.19C6.0828 14.5287 6.0293 13.8599 6.02999 13.19C6.03001 10.175 7.11457 7.2606 9.08561 4.97909C11.0566 2.69758 13.7826 1.20121 16.7656 0.763281C19.7487 0.325349 22.7897 0.975077 25.3333 2.5938C27.8769 4.21252 29.7534 6.69222 30.62 9.58C31.7503 8.69692 33.0953 8.13065 34.5168 7.93933C35.9383 7.74802 37.3852 7.93856 38.7087 8.49139C40.0323 9.04422 41.1848 9.93941 42.0479 11.085C42.911 12.2306 43.4536 13.5853 43.62 15.01H43.67C45.5742 15.01 47.4005 15.7665 48.747 17.113C50.0935 18.4595 50.85 20.2857 50.85 22.19C50.85 24.0943 50.0935 25.9205 48.747 27.267C47.4005 28.6135 45.5742 29.37 43.67 29.37L43.73 29.36Z" fill="#616D7E"/>
<path d="M43.73 30H7.81998C5.94881 30.0007 4.13923 29.3313 2.71898 28.1131C1.29873 26.8948 0.361725 25.2082 0.0776529 23.3587C-0.206419 21.5092 0.181232 19.6191 1.1704 18.0308C2.15956 16.4424 3.68484 15.2608 5.46998 14.7C5.05599 11.4722 5.848 8.20515 7.69417 5.52527C9.54033 2.84538 12.3107 0.941254 15.4742 0.177958C18.6377 -0.585337 21.9716 -0.154081 24.8367 1.38904C27.7018 2.93216 29.8965 5.47855 31 8.53999C32.2095 7.77051 33.5898 7.3107 35.0191 7.20118C36.4485 7.09166 37.8828 7.3358 39.1954 7.91204C40.508 8.48827 41.6585 9.37887 42.5452 10.5052C43.432 11.6315 44.0278 12.9588 44.28 14.37C46.2801 14.5427 48.1376 15.4771 49.4685 16.9801C50.7994 18.4831 51.5022 20.44 51.4316 22.4463C51.361 24.4527 50.5224 26.3553 49.0891 27.761C47.6558 29.1668 45.7373 29.9683 43.73 30ZM18.6 1.29999C16.8767 1.30034 15.1739 1.67435 13.6091 2.39624C12.0443 3.11814 10.6546 4.17075 9.53583 5.48153C8.41705 6.79231 7.5958 8.33009 7.12867 9.98888C6.66154 11.6477 6.55963 13.388 6.82998 15.09C6.85731 15.2525 6.8219 15.4193 6.73094 15.5566C6.63998 15.694 6.50024 15.7917 6.33998 15.83C4.7884 16.2019 3.42666 17.129 2.51188 18.4363C1.5971 19.7435 1.1926 21.3405 1.37474 22.9256C1.55688 24.5107 2.31306 25.9742 3.5005 27.0399C4.68795 28.1056 6.22448 28.6997 7.81998 28.71H43.72C45.4518 28.71 47.1128 28.022 48.3374 26.7974C49.562 25.5728 50.25 23.9119 50.25 22.18C50.25 20.4481 49.562 18.7872 48.3374 17.5626C47.1128 16.338 45.4518 15.65 43.72 15.65C43.5539 15.6505 43.3929 15.5927 43.265 15.4867C43.1371 15.3807 43.0504 15.2333 43.02 15.07C42.8731 13.7514 42.3758 12.4961 41.5798 11.4347C40.7838 10.3732 39.7181 9.54425 38.4933 9.03395C37.2686 8.52365 35.9296 8.35061 34.6154 8.5328C33.3012 8.71499 32.0597 9.24577 31.02 10.07C30.937 10.1368 30.8387 10.1819 30.7339 10.2011C30.6292 10.2203 30.5212 10.213 30.42 10.18C30.3227 10.1494 30.234 10.0963 30.1611 10.0251C30.0881 9.95387 30.0329 9.86649 30 9.76999C29.2486 7.32868 27.7379 5.19081 25.6875 3.66744C23.6372 2.14408 21.1543 1.3147 18.6 1.29999Z" fill="white"/>
</g>
<defs>
<clipPath id="clip0_7_458">
<rect width="51.55" height="47.72" fill="white"/>
</clipPath>
</defs>
</svg>
