<svg width="52" height="64" viewBox="0 0 52 64" fill="none" xmlns="http://www.w3.org/2000/svg">
<g clip-path="url(#clip0_2_279)">
<path d="M33.3419 0L36.2422 3.75801L40.4343 1.4939L41.5415 6.09602L46.3004 5.7173L45.4229 10.3678L49.9258 11.94L47.2154 15.8347L50.6838 19.0858L46.6091 21.5514L48.4431 25.9194L43.7087 26.5294L43.5914 31.2591L39.0158 29.9082L36.9673 34.1816L33.3419 31.1033L29.7165 34.1816L27.668 29.9082L23.0924 31.2591L22.9751 26.5294L18.2406 25.9194L20.0747 21.5514L16 19.0858L19.4684 15.8347L16.7579 11.94L21.2609 10.3678L20.3834 5.7173L25.1423 6.09602L26.2495 1.4939L30.4416 3.75801L33.3419 0Z" fill="#FFB700"/>
<path d="M33.7014 27.2771C39.4387 27.2771 44.0897 22.6261 44.0897 16.8889C44.0897 11.1516 39.4387 6.50061 33.7014 6.50061C27.9641 6.50061 23.3132 11.1516 23.3132 16.8889C23.3132 22.6261 27.9641 27.2771 33.7014 27.2771Z" fill="#FECE55"/>
<path d="M33.22 35.87C32.9336 35.87 32.6589 35.7562 32.4563 35.5537C32.2538 35.3511 32.14 35.0764 32.14 34.79V30C32.14 29.8582 32.168 29.7177 32.2222 29.5867C32.2765 29.4557 32.3561 29.3366 32.4563 29.2363C32.5566 29.136 32.6757 29.0565 32.8067 29.0022C32.9377 28.9479 33.0782 28.92 33.22 28.92C33.3618 28.92 33.5023 28.9479 33.6333 29.0022C33.7643 29.0565 33.8834 29.136 33.9837 29.2363C34.084 29.3366 34.1635 29.4557 34.2178 29.5867C34.2721 29.7177 34.3 29.8582 34.3 30V34.78C34.3013 34.9227 34.2744 35.0642 34.2207 35.1964C34.167 35.3286 34.0877 35.4488 33.9872 35.5502C33.8868 35.6515 33.7673 35.7319 33.6356 35.7868C33.5039 35.8417 33.3627 35.87 33.22 35.87Z" fill="#FECE55"/>
<path d="M21.14 19H16.36C16.0736 19 15.7989 18.8862 15.5964 18.6837C15.3938 18.4811 15.28 18.2064 15.28 17.92C15.28 17.6336 15.3938 17.3589 15.5964 17.1563C15.7989 16.9538 16.0736 16.84 16.36 16.84H21.14C21.4265 16.84 21.7012 16.9538 21.9037 17.1563C22.1062 17.3589 22.22 17.6336 22.22 17.92C22.22 18.2064 22.1062 18.4811 21.9037 18.6837C21.7012 18.8862 21.4265 19 21.14 19Z" fill="#FECE55"/>
<path d="M21.3 30.93C21.0875 30.9286 20.8801 30.8645 20.7038 30.7457C20.5276 30.6269 20.3903 30.4588 20.3091 30.2623C20.228 30.0659 20.2066 29.8499 20.2477 29.6413C20.2888 29.4328 20.3904 29.241 20.54 29.09L23.92 25.71C24.1229 25.5071 24.3981 25.3931 24.685 25.3931C24.9719 25.3931 25.2471 25.5071 25.45 25.71C25.6529 25.9129 25.7669 26.1881 25.7669 26.475C25.7669 26.7619 25.6529 27.0371 25.45 27.24L22.07 30.62C21.9685 30.7199 21.8481 30.7987 21.716 30.8519C21.5838 30.9051 21.4425 30.9317 21.3 30.93Z" fill="#FECE55"/>
<path d="M45.13 30.93C44.8443 30.9281 44.571 30.813 44.37 30.61L41 27.23C40.7971 27.0271 40.6831 26.7519 40.6831 26.465C40.6831 26.1781 40.7971 25.9029 41 25.7C41.2029 25.4971 41.4781 25.3831 41.765 25.3831C42.0519 25.3831 42.3271 25.4971 42.53 25.7L45.91 29.08C46.0596 29.231 46.1613 29.4228 46.2023 29.6313C46.2434 29.8399 46.222 30.0559 46.1409 30.2523C46.0598 30.4488 45.9225 30.6169 45.7462 30.7357C45.5699 30.8544 45.3625 30.9186 45.15 30.92L45.13 30.93Z" fill="#FECE55"/>
<path d="M43.59 40.32H7.80002C6.05186 40.3079 4.36855 39.6566 3.06748 38.4889C1.76641 37.3213 0.93749 35.7179 0.737011 33.9813C0.536532 32.2446 0.97835 30.4946 1.97916 29.0612C2.97997 27.6278 4.47061 26.6101 6.17002 26.2C6.06266 25.5388 6.00915 24.8699 6.01002 24.2C6.00296 21.1896 7.08085 18.2774 9.04621 15.997C11.0116 13.7166 13.7328 12.2208 16.7113 11.7835C19.6898 11.3462 22.7262 11.9967 25.2641 13.6159C27.802 15.2351 29.6714 17.7146 30.53 20.6C31.656 19.7075 33.0003 19.1327 34.4235 18.9351C35.8466 18.7376 37.2967 18.9245 38.6232 19.4766C39.9498 20.0286 41.1043 20.9256 41.9672 22.0745C42.83 23.2233 43.3696 24.5822 43.53 26.01H43.58C45.4314 26.0792 47.1838 26.8634 48.4691 28.1976C49.7544 29.5319 50.4725 31.3124 50.4725 33.165C50.4725 35.0176 49.7544 36.7982 48.4691 38.1324C47.1838 39.4667 45.4314 40.2508 43.58 40.32H43.59Z" fill="#C4D0E0"/>
<path d="M43.59 41H7.80001C5.92214 41.0173 4.10092 40.3573 2.67005 39.141C1.23917 37.9248 0.294455 36.2337 0.0089902 34.3775C-0.276475 32.5214 0.116428 30.6246 1.11571 29.0345C2.11499 27.4445 3.65374 26.2678 5.45001 25.72C5.39532 25.2219 5.36861 24.7211 5.37001 24.22C5.36253 21.1323 6.44018 18.1401 8.41469 15.7662C10.3892 13.3924 13.135 11.7877 16.1724 11.2326C19.2098 10.6776 22.3457 11.2074 25.0322 12.7295C27.7187 14.2516 29.785 16.6692 30.87 19.56C32.0767 18.7944 33.4533 18.3374 34.8783 18.2295C36.3033 18.1215 37.733 18.3659 39.0413 18.941C40.3496 19.5161 41.4963 20.4042 42.3802 21.5272C43.2642 22.6501 43.8582 23.9733 44.11 25.38C46.1814 25.449 48.1405 26.3379 49.5564 27.8513C50.9723 29.3648 51.729 31.3787 51.66 33.45C51.5911 35.5213 50.7021 37.4805 49.1887 38.8964C47.6753 40.3123 45.6614 41.069 43.59 41ZM18.54 12.35C16.8237 12.352 15.1283 12.7257 13.5703 13.4457C12.0123 14.1656 10.6288 15.2145 9.51499 16.5203C8.40119 17.8261 7.58353 19.3577 7.1183 21.0097C6.65307 22.6617 6.5513 24.3949 6.82001 26.09C6.84734 26.2525 6.81193 26.4193 6.72097 26.5567C6.63001 26.694 6.49027 26.7917 6.33001 26.83C4.78411 27.2011 3.42743 28.125 2.51587 29.4276C1.60432 30.7301 1.20091 32.3212 1.38174 33.9007C1.56257 35.4802 2.31514 36.9389 3.49749 38.0017C4.67985 39.0645 6.21024 39.6579 7.80001 39.67H43.59C45.2516 39.5778 46.8147 38.8528 47.9584 37.6439C49.102 36.4351 49.7393 34.8341 49.7393 33.17C49.7393 31.5059 49.102 29.905 47.9584 28.6961C46.8147 27.4872 45.2516 26.7622 43.59 26.67C43.4239 26.6705 43.2629 26.6127 43.135 26.5067C43.0071 26.4008 42.9204 26.2533 42.89 26.09C42.7525 24.7665 42.2606 23.5045 41.4661 22.437C40.6717 21.3695 39.6041 20.5359 38.3758 20.0241C37.1475 19.5123 35.8039 19.3412 34.4865 19.5288C33.1691 19.7164 31.9267 20.2557 30.89 21.09C30.8071 21.1568 30.7087 21.2019 30.604 21.2211C30.4992 21.2403 30.3913 21.233 30.29 21.2C30.1887 21.1688 30.0966 21.1133 30.0216 21.0384C29.9467 20.9634 29.8912 20.8713 29.86 20.77C29.1041 18.351 27.6016 16.2333 25.5681 14.7208C23.5345 13.2082 21.0743 12.3783 18.54 12.35Z" fill="white"/>
<path d="M13 48.45C12.8497 48.4494 12.7026 48.4059 12.5761 48.3246C12.4497 48.2433 12.349 48.1276 12.286 47.9911C12.223 47.8546 12.2003 47.7029 12.2205 47.5539C12.2407 47.405 12.3029 47.2648 12.4 47.15L16.4 42.54C16.4574 42.4395 16.5361 42.3528 16.6307 42.2861C16.7253 42.2193 16.8333 42.1742 16.9473 42.1538C17.0612 42.1335 17.1782 42.1384 17.2901 42.1683C17.4019 42.1982 17.5058 42.2523 17.5944 42.3267C17.683 42.4012 17.7542 42.4942 17.8029 42.5992C17.8515 42.7042 17.8766 42.8187 17.8761 42.9344C17.8757 43.0501 17.8499 43.1644 17.8004 43.269C17.751 43.3737 17.6791 43.4662 17.59 43.54L13.59 48.15C13.5192 48.2397 13.4298 48.313 13.3279 48.3648C13.2261 48.4166 13.1142 48.4457 13 48.45Z" fill="#C7C7C6"/>
<path d="M18.54 53.13C18.3924 53.1282 18.2483 53.0851 18.1239 53.0055C17.9996 52.926 17.9 52.8132 17.8365 52.6799C17.773 52.5467 17.7481 52.3983 17.7646 52.2516C17.7811 52.1049 17.8384 51.9658 17.93 51.85L22.93 45.69C22.9934 45.6031 23.0738 45.5301 23.1663 45.4754C23.2588 45.4207 23.3616 45.3854 23.4682 45.3718C23.5749 45.3582 23.6832 45.3664 23.7865 45.3961C23.8898 45.4258 23.986 45.4763 24.0692 45.5444C24.1523 45.6126 24.2207 45.697 24.2701 45.7925C24.3195 45.888 24.3488 45.9926 24.3564 46.0998C24.364 46.207 24.3496 46.3147 24.3141 46.4162C24.2786 46.5177 24.2228 46.6108 24.15 46.69L19.15 52.85C19.0756 52.9391 18.9822 53.0105 18.8767 53.059C18.7711 53.1074 18.6561 53.1317 18.54 53.13Z" fill="#C7C7C6"/>
<path d="M27.73 52.59C27.5824 52.5882 27.4383 52.5451 27.3139 52.4655C27.1896 52.386 27.09 52.2732 27.0265 52.1399C26.963 52.0067 26.9381 51.8583 26.9546 51.7116C26.9711 51.5649 27.0284 51.4258 27.12 51.31L33.06 44C33.1234 43.9131 33.2038 43.8401 33.2963 43.7854C33.3888 43.7307 33.4916 43.6954 33.5982 43.6818C33.7049 43.6682 33.8132 43.6764 33.9165 43.7061C34.0198 43.7358 34.116 43.7863 34.1992 43.8544C34.2823 43.9226 34.3507 44.007 34.4001 44.1025C34.4495 44.198 34.4788 44.3026 34.4864 44.4098C34.494 44.517 34.4796 44.6247 34.4441 44.7262C34.4086 44.8277 34.3528 44.9208 34.28 45L28.34 52.3C28.2661 52.3904 28.173 52.4633 28.0676 52.5135C27.9621 52.5636 27.8468 52.5898 27.73 52.59Z" fill="#C7C7C6"/>
<path d="M28.73 63.48C28.5816 63.4801 28.4361 63.4383 28.3103 63.3595C28.1845 63.2807 28.0834 63.168 28.0187 63.0344C27.954 62.9008 27.9282 62.7516 27.9444 62.6041C27.9605 62.4565 28.0179 62.3165 28.11 62.2L37.85 50C37.9157 49.9192 37.9966 49.8522 38.0882 49.8027C38.1797 49.7532 38.2802 49.7223 38.3837 49.7116C38.4872 49.7009 38.5919 49.7107 38.6916 49.7405C38.7914 49.7702 38.8843 49.8193 38.965 49.885C39.0458 49.9507 39.1128 50.0316 39.1623 50.1232C39.2118 50.2147 39.2428 50.3152 39.2534 50.4187C39.2641 50.5222 39.2543 50.6269 39.2246 50.7266C39.1948 50.8263 39.1457 50.9192 39.08 51L29.34 63.19C29.2661 63.2804 29.1731 63.3533 29.0676 63.4035C28.9621 63.4536 28.8468 63.4798 28.73 63.48Z" fill="#C7C7C6"/>
<path d="M10.37 56C10.0144 56 9.66682 55.8947 9.37103 55.6973C9.07524 55.5 8.84453 55.2195 8.70801 54.8911C8.57148 54.5628 8.53525 54.2014 8.6039 53.8525C8.67255 53.5036 8.84299 53.1829 9.09373 52.9307C9.34446 52.6786 9.66425 52.5064 10.0128 52.4358C10.3613 52.3652 10.7229 52.3995 11.0519 52.5342C11.381 52.6689 11.6628 52.898 11.8618 53.1927C12.0608 53.4874 12.168 53.8344 12.17 54.19C12.1713 54.4272 12.1257 54.6624 12.0359 54.8819C11.946 55.1015 11.8136 55.3011 11.6464 55.4693C11.4791 55.6375 11.2802 55.771 11.0612 55.862C10.8421 55.9531 10.6072 56 10.37 56Z" fill="#616D7E"/>
<path d="M41.48 47.68C42.2256 47.68 42.83 47.0756 42.83 46.33C42.83 45.5844 42.2256 44.98 41.48 44.98C40.7344 44.98 40.13 45.5844 40.13 46.33C40.13 47.0756 40.7344 47.68 41.48 47.68Z" fill="#616D7E"/>
<path d="M24.33 56.85C25.0756 56.85 25.68 56.2456 25.68 55.5C25.68 54.7544 25.0756 54.15 24.33 54.15C23.5844 54.15 22.98 54.7544 22.98 55.5C22.98 56.2456 23.5844 56.85 24.33 56.85Z" fill="#616D7E"/>
</g>
<defs>
<clipPath id="clip0_2_279">
<rect width="51.39" height="63.48" fill="white"/>
</clipPath>
</defs>
</svg>
