<svg xmlns="http://www.w3.org/2000/svg" viewBox="0 0 34.53 27.76"><defs><style>.cls-1{fill:#65778b;}</style></defs><title>Recurso 51</title><g id="Capa_2" data-name="Capa 2"><g id="Capa_1-2" data-name="Capa 1"><path class="cls-1" d="M6.9,27.76a2.06,2.06,0,0,1-1.46-.6L.19,21.91A.64.64,0,0,1,1.1,21l5.25,5.25a.78.78,0,0,0,1.1,0L33,.67a.64.64,0,0,1,.91.91L8.36,27.16A2.06,2.06,0,0,1,6.9,27.76Z"/><path class="cls-1" d="M9.73,24.93a2.06,2.06,0,0,1-1.46-.6L3,19.08a.64.64,0,0,1,.91-.91l5.25,5.25a.8.8,0,0,0,1.1,0,.64.64,0,1,1,.91.91A2.05,2.05,0,0,1,9.73,24.93Z"/><path class="cls-1" d="M12.56,22.1a2.05,2.05,0,0,1-1.46-.6L5.85,16.25a.64.64,0,0,1,.91-.91L12,20.59a.81.81,0,0,0,1.1,0,.64.64,0,0,1,.91.91A2.05,2.05,0,0,1,12.56,22.1Z"/><path class="cls-1" d="M33.48,7.36h0a.64.64,0,0,1-.6-.69l.36-5.33-5.33.36A.64.64,0,0,1,27.77.41L33.84,0a.64.64,0,0,1,.5.19.64.64,0,0,1,.19.5l-.41,6.07A.64.64,0,0,1,33.48,7.36Z"/></g></g></svg>