<svg xmlns="http://www.w3.org/2000/svg" viewBox="0 0 32.6 33.75"><defs><style>.cls-1{fill:#e94e1b;}.cls-2{fill:#fff;}.cls-3{fill:#a6a8aa;}</style></defs><title>Recurso 44</title><g id="Capa_2" data-name="Capa 2"><g id="Capa_1-2" data-name="Capa 1"><path class="cls-1" d="M27.6,22.65a1,1,0,0,1-1-1V4a1,1,0,1,1,2,0V21.65A1,1,0,0,1,27.6,22.65Z"/><path class="cls-1" d="M31.6,9.15a1,1,0,0,1-.75-.34L27.6,5.09,24.35,8.81A1,1,0,0,1,22.84,7.5l4-4.58a1,1,0,0,1,1.51,0l4,4.58a1,1,0,0,1-.75,1.66Z"/><path class="cls-2" d="M7.77,25.92A8.15,8.15,0,0,1,8,24.08a8.26,8.26,0,0,1,.7-1.71,10.2,10.2,0,0,1,.75-1.14,10,10,0,0,1,1-1l.39-.35v-15a4.28,4.28,0,0,1,1.14-3L12,1.79a3.84,3.84,0,0,1,1.4-1A5.34,5.34,0,0,1,15.1.52a4.18,4.18,0,0,1,1.67.31,4.45,4.45,0,0,1,1.4,1l.09.09a5.14,5.14,0,0,1,.83,1.32,5.34,5.34,0,0,1,.31,1.67v15l.39.35a10,10,0,0,1,1,1,10.2,10.2,0,0,1,.75,1.14A5.86,5.86,0,0,1,22.2,24a8.15,8.15,0,0,1,.22,1.84,7.46,7.46,0,0,1-.57,2.81A7.54,7.54,0,0,1,20.23,31,7.41,7.41,0,0,1,15,33.24a7.43,7.43,0,0,1-5.22-2.15,7.31,7.31,0,0,1-1.62-2.41A4.91,4.91,0,0,1,7.77,25.92Z"/><path class="cls-3" d="M15,33.75a7.94,7.94,0,0,1-5.58-2.3A7.81,7.81,0,0,1,7.7,28.87a5.36,5.36,0,0,1-.43-3A8.67,8.67,0,0,1,7.5,24a8.77,8.77,0,0,1,.76-1.85A10.71,10.71,0,0,1,9,20.92a10.57,10.57,0,0,1,1-1l.22-.2V4.86A4.67,4.67,0,0,1,10.64,3a4.59,4.59,0,0,1,.92-1.46l.11-.11A4.32,4.32,0,0,1,13.24.36a4.77,4.77,0,0,1,5.29,1.07l.09.09A5.7,5.7,0,0,1,19.55,3a5.84,5.84,0,0,1,.35,1.88V19.59l.22.2a10.32,10.32,0,0,1,1,1A10.63,10.63,0,0,1,21.94,22a6.33,6.33,0,0,1,.75,1.85,8.63,8.63,0,0,1,.23,1.95,7.94,7.94,0,0,1-.61,3,8,8,0,0,1-1.74,2.58A7.91,7.91,0,0,1,15,33.75ZM15.1,1a4.78,4.78,0,0,0-1.51.28,3.29,3.29,0,0,0-1.19.82l-.11.11a3.61,3.61,0,0,0-.71,1.13,3.7,3.7,0,0,0-.28,1.49v15a.51.51,0,0,1-.17.38l-.4.35a9.57,9.57,0,0,0-.92.92,9.75,9.75,0,0,0-.68,1.05,7.84,7.84,0,0,0-.66,1.61,7.57,7.57,0,0,0-.2,1.69.56.56,0,0,1,0,.09,4.37,4.37,0,0,0,.36,2.48,6.79,6.79,0,0,0,1.51,2.25,7,7,0,0,0,7.47,1.47,6.78,6.78,0,0,0,2.25-1.51,7,7,0,0,0,1.52-2.25,6.94,6.94,0,0,0,.53-2.61,7.65,7.65,0,0,0-.21-1.73,5.34,5.34,0,0,0-.65-1.57,9.78,9.78,0,0,0-.71-1.09,9.66,9.66,0,0,0-.89-.89l-.4-.35a.5.5,0,0,1-.17-.38v-15a4.79,4.79,0,0,0-.28-1.51,4.59,4.59,0,0,0-.73-1.14l-.07-.07a3.93,3.93,0,0,0-1.24-.86A3.66,3.66,0,0,0,15.1,1ZM7.77,25.92h0Z"/><path class="cls-3" d="M7.21,16.66H.51a.51.51,0,0,1,0-1H7.21a.51.51,0,1,1,0,1Z"/><path class="cls-3" d="M7.21,9H.51a.51.51,0,0,1,0-1H7.21a.51.51,0,0,1,0,1Z"/><path class="cls-3" d="M7.21,12.81H2.59a.51.51,0,0,1,0-1H7.21a.51.51,0,1,1,0,1Z"/><path class="cls-3" d="M7.21,5.11H2.59a.51.51,0,0,1,0-1H7.21a.51.51,0,0,1,0,1Z"/><path class="cls-1" d="M17.51,21.9l-1.17-.79V5.73a1.27,1.27,0,0,0-2.55,0V21.11l-1.17.79a4.4,4.4,0,1,0,4.89,0Zm0,0"/></g></g></svg>