<svg width="48" height="48" viewBox="0 0 48 48" fill="none" xmlns="http://www.w3.org/2000/svg">
<path d="M24.3419 3L27.9112 7.62481L33.0702 4.83848L34.4328 10.5021L40.2894 10.036L39.2094 15.7591L44.751 17.694L41.4154 22.487L45.6838 26.488L40.6692 29.5223L42.9263 34.8979L37.0998 35.6486L36.9555 41.4692L31.3245 39.8067L28.8035 45.0658L24.3419 41.2774L19.8802 45.0658L17.3593 39.8067L11.7283 41.4692L11.5839 35.6486L5.75746 34.8979L8.01457 29.5223L3 26.488L7.26838 22.487L3.93274 17.694L9.47434 15.7591L8.39441 10.036L14.251 10.5021L15.6136 4.83848L20.7726 7.62481L24.3419 3Z" fill="#FFB700"/>
<path d="M24.7843 36.5687C31.8449 36.5687 37.5687 30.8449 37.5687 23.7843C37.5687 16.7237 31.8449 11 24.7843 11C17.7237 11 12 16.7237 12 23.7843C12 30.8449 17.7237 36.5687 24.7843 36.5687Z" fill="#FECE55"/>
</svg>
