<svg xmlns="http://www.w3.org/2000/svg" viewBox="0 0 37.15 14.99"><defs><style>.cls-1{fill:#fff;}.cls-2{fill:#c6c6c6;}</style></defs><title>Recurso 22</title><g id="Capa_2" data-name="Capa 2"><g id="Capa_1-2" data-name="Capa 1"><rect class="cls-1" x="0.66" y="0.66" width="29.17" height="5"/><path class="cls-2" d="M29.83,6.32H.66A.66.66,0,0,1,0,5.66v-5A.66.66,0,0,1,.66,0H29.83a.66.66,0,0,1,.66.66v5A.66.66,0,0,1,29.83,6.32ZM1.32,5H29.17V1.32H1.32Z"/><rect class="cls-1" x="7.33" y="9.33" width="29.17" height="5"/><path class="cls-2" d="M36.49,15H7.33a.66.66,0,0,1-.66-.66v-5a.66.66,0,0,1,.66-.66H36.49a.66.66,0,0,1,.66.66v5A.66.66,0,0,1,36.49,15ZM8,13.67H35.83V10H8Z"/></g></g></svg>