<svg width="52" height="52" viewBox="0 0 52 52" fill="none" xmlns="http://www.w3.org/2000/svg">
<g clip-path="url(#clip0_7_521)">
<path d="M10.92 40.5C10.6741 40.4974 10.4391 40.3986 10.2653 40.2247C10.0914 40.0509 9.99259 39.8158 9.98999 39.57V33.66C9.98999 33.412 10.0885 33.1742 10.2638 32.9988C10.4392 32.8235 10.677 32.725 10.925 32.725C11.173 32.725 11.4108 32.8235 11.5861 32.9988C11.7615 33.1742 11.86 33.412 11.86 33.66V39.61C11.8472 39.8505 11.7425 40.077 11.5676 40.2426C11.3927 40.4082 11.1609 40.5003 10.92 40.5Z" fill="#61C3D7"/>
<path d="M8.35002 39.06C8.14337 39.0629 7.94164 38.9969 7.77666 38.8725C7.61168 38.748 7.49287 38.5721 7.43898 38.3726C7.38508 38.1731 7.39918 37.9613 7.47905 37.7707C7.55892 37.5801 7.7 37.4215 7.88002 37.32L13.03 34.32C13.1377 34.2563 13.2569 34.2144 13.3807 34.1968C13.5046 34.1792 13.6307 34.1861 13.7519 34.2172C13.8731 34.2483 13.9869 34.303 14.087 34.3781C14.1871 34.4532 14.2713 34.5473 14.335 34.655C14.3987 34.7627 14.4406 34.8818 14.4582 35.0057C14.4758 35.1296 14.4689 35.2557 14.4378 35.3769C14.4067 35.498 14.352 35.6119 14.2769 35.712C14.2018 35.812 14.1077 35.8963 14 35.96L8.85002 38.96C8.69575 39.0387 8.52272 39.0734 8.35002 39.06Z" fill="#61C3D7"/>
<path d="M13.5 39.06C13.3355 39.0618 13.1735 39.0204 13.03 38.94L7.87999 35.94C7.77362 35.8789 7.68032 35.7975 7.60542 35.7004C7.53051 35.6033 7.47547 35.4923 7.44343 35.3739C7.4114 35.2556 7.40299 35.132 7.4187 35.0104C7.43441 34.8887 7.47393 34.7714 7.53499 34.665C7.59606 34.5586 7.67748 34.4653 7.7746 34.3904C7.87172 34.3155 7.98265 34.2605 8.10104 34.2284C8.21944 34.1964 8.34298 34.188 8.46462 34.2037C8.58627 34.2194 8.70362 34.2589 8.80999 34.32L13.96 37.32C14.14 37.4215 14.2811 37.5801 14.361 37.7707C14.4408 37.9613 14.4549 38.1731 14.401 38.3726C14.3471 38.5721 14.2283 38.748 14.0634 38.8725C13.8984 38.997 13.6966 39.0629 13.49 39.06H13.5Z" fill="#61C3D7"/>
<path d="M25.7 40.5C25.4542 40.4974 25.2191 40.3986 25.0453 40.2247C24.8714 40.0509 24.7726 39.8158 24.77 39.57V33.66C24.77 33.412 24.8685 33.1742 25.0439 32.9988C25.2192 32.8235 25.457 32.725 25.705 32.725C25.953 32.725 26.1908 32.8235 26.3662 32.9988C26.5415 33.1742 26.64 33.412 26.64 33.66V39.61C26.6272 39.8505 26.5225 40.077 26.3476 40.2426C26.1727 40.4082 25.9409 40.5003 25.7 40.5Z" fill="#61C3D7"/>
<path d="M23.13 39.06C22.9233 39.0629 22.7216 38.997 22.5566 38.8725C22.3917 38.748 22.2728 38.5721 22.2189 38.3726C22.1651 38.1731 22.1792 37.9613 22.259 37.7707C22.3389 37.5801 22.48 37.4215 22.66 37.32L27.81 34.32C28.0248 34.1967 28.2798 34.1637 28.5189 34.2284C28.758 34.2931 28.9617 34.4502 29.085 34.665C29.2083 34.8798 29.2412 35.1348 29.1765 35.374C29.1118 35.6131 28.9548 35.8167 28.74 35.94L23.59 38.94C23.4496 39.0192 23.2911 39.0605 23.13 39.06Z" fill="#61C3D7"/>
<path d="M28.28 39.06C28.1146 39.0592 27.9523 39.0144 27.81 38.93L22.66 35.93C22.4452 35.8067 22.2882 35.6031 22.2235 35.3639C22.1588 35.1248 22.1917 34.8698 22.315 34.655C22.4384 34.4402 22.642 34.2831 22.8811 34.2184C23.1202 34.1537 23.3752 34.1867 23.59 34.31L28.74 37.31C28.92 37.4115 29.0611 37.5701 29.141 37.7607C29.2209 37.9513 29.235 38.1631 29.1811 38.3626C29.1272 38.5621 29.0084 38.738 28.8434 38.8625C28.6784 38.987 28.4767 39.0529 28.27 39.05L28.28 39.06Z" fill="#61C3D7"/>
<path d="M40.48 40.5C40.2341 40.4974 39.9991 40.3986 39.8253 40.2247C39.6514 40.0509 39.5526 39.8158 39.55 39.57V33.66C39.55 33.412 39.6485 33.1742 39.8238 32.9988C39.9992 32.8235 40.237 32.725 40.485 32.725C40.733 32.725 40.9708 32.8235 41.1461 32.9988C41.3215 33.1742 41.42 33.412 41.42 33.66V39.61C41.4072 39.8505 41.3025 40.077 41.1276 40.2426C40.9527 40.4082 40.7209 40.5003 40.48 40.5Z" fill="#61C3D7"/>
<path d="M37.91 39.06C37.7034 39.0629 37.5016 38.997 37.3367 38.8725C37.1717 38.748 37.0529 38.5721 36.999 38.3726C36.9451 38.1731 36.9592 37.9613 37.039 37.7707C37.1189 37.5801 37.26 37.4215 37.44 37.32L42.59 34.32C42.6964 34.2589 42.8137 34.2194 42.9354 34.2037C43.057 34.188 43.1806 34.1964 43.299 34.2284C43.4174 34.2605 43.5283 34.3155 43.6254 34.3904C43.7225 34.4653 43.804 34.5586 43.865 34.665C43.9261 34.7714 43.9656 34.8887 43.9813 35.0104C43.997 35.132 43.9886 35.2556 43.9566 35.3739C43.9245 35.4923 43.8695 35.6033 43.7946 35.7004C43.7197 35.7975 43.6264 35.8789 43.52 35.94L38.37 38.94C38.2297 39.0192 38.0712 39.0605 37.91 39.06Z" fill="#61C3D7"/>
<path d="M43.06 39.06C42.8946 39.0592 42.7323 39.0144 42.59 38.93L37.44 35.93C37.3336 35.8689 37.2403 35.7875 37.1654 35.6904C37.0905 35.5933 37.0355 35.4823 37.0034 35.3639C36.9714 35.2455 36.963 35.122 36.9787 35.0004C36.9944 34.8787 37.0339 34.7614 37.095 34.655C37.1561 34.5486 37.2375 34.4553 37.3346 34.3804C37.4317 34.3055 37.5426 34.2505 37.661 34.2184C37.7794 34.1864 37.903 34.178 38.0246 34.1937C38.1463 34.2094 38.2636 34.2489 38.37 34.31L43.52 37.31C43.7 37.4115 43.8411 37.5701 43.921 37.7607C44.0008 37.9513 44.0149 38.1631 43.961 38.3626C43.9071 38.5621 43.7883 38.738 43.6234 38.8625C43.4584 38.9869 43.2566 39.0529 43.05 39.05L43.06 39.06Z" fill="#61C3D7"/>
<path d="M18.31 51.26C18.0642 51.2574 17.8291 51.1586 17.6553 50.9847C17.4814 50.8109 17.3826 50.5758 17.38 50.33V44.38C17.38 44.132 17.4785 43.8942 17.6539 43.7188C17.8292 43.5435 18.067 43.445 18.315 43.445C18.563 43.445 18.8008 43.5435 18.9762 43.7188C19.1515 43.8942 19.25 44.132 19.25 44.38V50.33C19.2474 50.5775 19.1472 50.8141 18.9712 50.9882C18.7952 51.1623 18.5576 51.26 18.31 51.26Z" fill="#61C3D7"/>
<path d="M15.74 49.77C15.5334 49.7729 15.3316 49.707 15.1667 49.5825C15.0017 49.458 14.8829 49.2821 14.829 49.0826C14.7751 48.8831 14.7892 48.6713 14.8691 48.4807C14.9489 48.2901 15.09 48.1315 15.27 48.03L20.42 45.03C20.6349 44.9067 20.8899 44.8737 21.129 44.9384C21.3681 45.0031 21.5717 45.1602 21.695 45.375C21.8184 45.5898 21.8513 45.8448 21.7866 46.0839C21.7219 46.3231 21.5649 46.5267 21.35 46.65L16.2 49.65C16.0597 49.7292 15.9012 49.7705 15.74 49.77Z" fill="#61C3D7"/>
<path d="M20.89 49.77C20.7246 49.7692 20.5623 49.7243 20.42 49.64L15.27 46.64C15.0552 46.5167 14.8981 46.313 14.8334 46.0739C14.7687 45.8348 14.8017 45.5798 14.925 45.365C15.0483 45.1502 15.252 44.9931 15.4911 44.9284C15.7302 44.8637 15.9852 44.8967 16.2 45.02L21.35 48.02C21.53 48.1215 21.6711 48.2801 21.751 48.4707C21.8308 48.6613 21.8449 48.8731 21.7911 49.0726C21.7372 49.2721 21.6183 49.448 21.4534 49.5725C21.2884 49.6969 21.0867 49.7629 20.88 49.76L20.89 49.77Z" fill="#61C3D7"/>
<path d="M33.09 51.26C32.8442 51.2574 32.6092 51.1586 32.4353 50.9847C32.2615 50.8109 32.1626 50.5758 32.16 50.33V44.38C32.16 44.132 32.2585 43.8942 32.4339 43.7188C32.6092 43.5435 32.8471 43.445 33.095 43.445C33.343 43.445 33.5808 43.5435 33.7562 43.7188C33.9315 43.8942 34.03 44.132 34.03 44.38V50.33C34.0274 50.5775 33.9272 50.8141 33.7512 50.9882C33.5752 51.1623 33.3376 51.26 33.09 51.26Z" fill="#61C3D7"/>
<path d="M30.52 49.77C30.3088 49.7853 30.0987 49.7282 29.9245 49.6079C29.7502 49.4877 29.6221 49.3116 29.5615 49.1087C29.5009 48.9059 29.5113 48.6884 29.591 48.4922C29.6708 48.2961 29.815 48.133 30 48.03L35.15 45.03C35.3648 44.9067 35.6198 44.8737 35.859 44.9384C36.0981 45.0031 36.3017 45.1602 36.425 45.375C36.5483 45.5898 36.5813 45.8448 36.5166 46.0839C36.4519 46.3231 36.2948 46.5267 36.08 46.65L30.93 49.65C30.8044 49.7209 30.6641 49.762 30.52 49.77Z" fill="#61C3D7"/>
<path d="M35.67 49.77C35.5055 49.7718 35.3435 49.7304 35.2 49.65L30.05 46.65C29.8378 46.524 29.6844 46.3189 29.6234 46.0798C29.5625 45.8407 29.599 45.5872 29.725 45.375C29.851 45.1628 30.0561 45.0094 30.2952 44.9484C30.5343 44.8875 30.7878 44.924 31 45.05L36.15 48.05C36.33 48.1515 36.4711 48.3101 36.551 48.5007C36.6308 48.6913 36.6449 48.9031 36.591 49.1026C36.5371 49.3021 36.4183 49.478 36.2534 49.6025C36.0884 49.7269 35.8866 49.7929 35.68 49.79L35.67 49.77Z" fill="#61C3D7"/>
<path d="M43.6 29.78H7.80003C6.04463 29.7779 4.35115 29.131 3.04139 27.9623C1.73162 26.7935 0.896851 25.1844 0.695686 23.4405C0.49452 21.6967 0.940982 19.9397 1.95024 18.5034C2.95949 17.0672 4.4612 16.0517 6.17003 15.65C6.06267 14.9888 6.00917 14.3199 6.01003 13.65C6.01139 10.6431 7.09405 7.73687 9.06038 5.46195C11.0267 3.18703 13.7456 1.69509 16.7206 1.25847C19.6957 0.821847 22.7286 1.46967 25.2656 3.08368C27.8027 4.69769 29.6747 7.17024 30.54 10.05C31.666 9.15752 33.0104 8.58268 34.4335 8.38512C35.8567 8.18757 37.3067 8.37451 38.6333 8.92655C39.9598 9.47858 41.1144 10.3756 41.9772 11.5245C42.84 12.6733 43.3796 14.0322 43.54 15.46H43.59C45.489 15.46 47.3102 16.2144 48.6529 17.5571C49.9957 18.8999 50.75 20.721 50.75 22.62C50.75 24.5189 49.9957 26.3401 48.6529 27.6829C47.3102 29.0256 45.489 29.78 43.59 29.78H43.6Z" fill="#A0ADBF"/>
<path d="M43.6 30.43H7.80001C5.93916 30.424 4.14161 29.7537 2.73109 28.5399C1.32058 27.3262 0.389797 25.6486 0.106386 23.8095C-0.177024 21.9703 0.205561 20.0904 1.18524 18.5083C2.16492 16.9262 3.6773 15.7459 5.45001 15.18C5.39517 14.6819 5.36846 14.1811 5.37001 13.68C5.37536 10.5994 6.45966 7.61792 8.43457 5.25358C10.4095 2.88925 13.1502 1.2914 16.1806 0.737597C19.2111 0.183797 22.3398 0.709036 25.0233 2.22208C27.7068 3.73512 29.7754 6.14036 30.87 9.01999C32.0767 8.25437 33.4533 7.79743 34.8783 7.68948C36.3033 7.58152 37.733 7.82586 39.0413 8.40095C40.3496 8.97604 41.4963 9.86421 42.3802 10.9871C43.2642 12.1101 43.8582 13.4332 44.11 14.84C46.124 14.9839 48.0039 15.9022 49.3555 17.4022C50.7071 18.9022 51.4252 20.8673 51.3592 22.8853C51.2932 24.9033 50.4483 26.8174 49.0016 28.2259C47.555 29.6344 45.6191 30.4279 43.6 30.44V30.43ZM18.54 1.79999C16.8282 1.80451 15.1376 2.17861 13.5836 2.8967C12.0297 3.61479 10.6492 4.65995 9.53642 5.96073C8.42364 7.2615 7.60486 8.78722 7.13604 10.4336C6.66722 12.0799 6.55942 13.8081 6.82001 15.5C6.84733 15.6625 6.81193 15.8293 6.72097 15.9666C6.63 16.104 6.49026 16.2017 6.33001 16.24C4.73045 16.561 3.30972 17.4709 2.34908 18.7895C1.38845 20.1082 0.957949 21.7394 1.1428 23.3604C1.32766 24.9813 2.1144 26.4738 3.34726 27.5423C4.58013 28.6107 6.16925 29.1774 7.80001 29.13H43.6C45.2616 29.0378 46.8247 28.3128 47.9684 27.1039C49.112 25.895 49.7493 24.2941 49.7493 22.63C49.7493 20.9659 49.112 19.3649 47.9684 18.1561C46.8247 16.9472 45.2616 16.2222 43.6 16.13C43.4339 16.1305 43.2729 16.0727 43.145 15.9667C43.0171 15.8607 42.9304 15.7133 42.9 15.55C42.7593 14.2281 42.2656 12.9684 41.4707 11.9029C40.6757 10.8374 39.6087 10.0054 38.3816 9.49413C37.1545 8.98284 35.8125 8.81107 34.4961 8.99684C33.1798 9.18261 31.9377 9.71907 30.9 10.55C30.8171 10.6168 30.7187 10.6619 30.614 10.6811C30.5092 10.7003 30.4013 10.693 30.3 10.66C30.1987 10.6288 30.1066 10.5733 30.0316 10.4984C29.9567 10.4234 29.9012 10.3313 29.87 10.23C29.1153 7.80746 27.6121 5.68651 25.5764 4.17185C23.5407 2.6572 21.0772 1.82681 18.54 1.79999Z" fill="white"/>
</g>
<defs>
<clipPath id="clip0_7_521">
<rect width="51.4" height="50.76" fill="white" transform="translate(0 0.5)"/>
</clipPath>
</defs>
</svg>
