<svg xmlns="http://www.w3.org/2000/svg" viewBox="0 0 51.66 44.65"><defs><style>.cls-1{fill:#fece55;}.cls-2{fill:#c6c6c6;}.cls-3{fill:#fff;}</style></defs><title>Recurso 10</title><g id="Capa_2" data-name="Capa 2"><g id="Capa_1-2" data-name="Capa 1"><path class="cls-1" d="M24.77,33.79A11.46,11.46,0,1,1,36.24,22.32,11.48,11.48,0,0,1,24.77,33.79Z"/><path class="cls-1" d="M24.77,8.06a1,1,0,0,1-1-1V1a1,1,0,0,1,2,0v6A1,1,0,0,1,24.77,8.06Z"/><path class="cls-1" d="M24.77,44.65a1,1,0,0,1-1-1v-6a1,1,0,0,1,2,0v6A1,1,0,0,1,24.77,44.65Z"/><path class="cls-1" d="M46.09,23.33H40a1,1,0,0,1,0-2h6a1,1,0,0,1,0,2Z"/><path class="cls-1" d="M9.5,23.33h-6a1,1,0,1,1,0-2h6a1,1,0,0,1,0,2Z"/><path class="cls-1" d="M35.57,12.53a1,1,0,0,1-.71-1.71l4.28-4.28A1,1,0,0,1,40.56,8l-4.28,4.28A1,1,0,0,1,35.57,12.53Z"/><path class="cls-1" d="M9.7,38.4A1,1,0,0,1,9,36.69l4.28-4.28a1,1,0,0,1,1.42,1.42l-4.28,4.28A1,1,0,0,1,9.7,38.4Z"/><path class="cls-1" d="M14,12.53a1,1,0,0,1-.71-.29L9,8a1,1,0,1,1,1.42-1.42l4.28,4.28A1,1,0,0,1,14,12.53Z"/><path class="cls-1" d="M39.85,38.4a1,1,0,0,1-.71-.29l-4.28-4.28a1,1,0,0,1,1.42-1.42l4.28,4.28a1,1,0,0,1-.71,1.71Z"/><path class="cls-2" d="M48.32,42.26H34.13a2.84,2.84,0,0,1-.65-5.6,4.91,4.91,0,0,1-.06-.78,5,5,0,0,1,9.72-1.44,3.19,3.19,0,0,1,5.16,2.15h0a2.84,2.84,0,0,1,0,5.68Z"/><path class="cls-3" d="M48.32,42.76H34.13a3.34,3.34,0,0,1-1.19-6.46c0-.14,0-.28,0-.43a5.47,5.47,0,0,1,10.47-2.2,3.7,3.7,0,0,1,5.33,2.43,3.34,3.34,0,0,1-.41,6.65ZM38.39,31.4a4.47,4.47,0,0,0-4.47,4.47,4.4,4.4,0,0,0,.06.7.5.5,0,0,1-.38.57,2.34,2.34,0,0,0,.53,4.62h14.2a2.34,2.34,0,0,0,0-4.68.52.52,0,0,1-.52-.45,2.69,2.69,0,0,0-4.35-1.81.49.49,0,0,1-.46.09.5.5,0,0,1-.33-.33A4.5,4.5,0,0,0,38.39,31.4Z"/><path class="cls-2" d="M17.53,26H3.34a2.84,2.84,0,0,1-.65-5.6,4.91,4.91,0,0,1-.06-.78,5,5,0,0,1,9.72-1.44,3.19,3.19,0,0,1,5.16,2.15h0a2.84,2.84,0,0,1,0,5.68Z"/><path class="cls-3" d="M17.53,26.49H3.34A3.34,3.34,0,0,1,2.15,20c0-.14,0-.28,0-.43a5.47,5.47,0,0,1,10.47-2.2,3.7,3.7,0,0,1,5.33,2.43,3.34,3.34,0,0,1-.41,6.65ZM7.6,15.14a4.47,4.47,0,0,0-4.41,5.17.5.5,0,0,1-.38.57,2.34,2.34,0,0,0,.53,4.62h14.2a2.34,2.34,0,0,0,0-4.68.52.52,0,0,1-.52-.45,2.69,2.69,0,0,0-4.35-1.81.5.5,0,0,1-.79-.25A4.5,4.5,0,0,0,7.6,15.14Z"/></g></g></svg>