<svg xmlns="http://www.w3.org/2000/svg" viewBox="0 0 51.97 44.34"><defs><style>.cls-1{fill:#fece55;}.cls-2{fill:#c6c6c6;}.cls-3{fill:#fff;}</style></defs><title>Recurso 12</title><g id="Capa_2" data-name="Capa 2"><g id="Capa_1-2" data-name="Capa 1"><path class="cls-1" d="M22.17,33.55A11.38,11.38,0,1,1,33.55,22.17,11.4,11.4,0,0,1,22.17,33.55Z"/><path class="cls-1" d="M22.17,8a1,1,0,0,1-1-1V1a1,1,0,0,1,2,0V7A1,1,0,0,1,22.17,8Z"/><path class="cls-1" d="M22.17,44.34a1,1,0,0,1-1-1v-6a1,1,0,0,1,2,0v6A1,1,0,0,1,22.17,44.34Z"/><path class="cls-1" d="M43.34,23.17h-6a1,1,0,1,1,0-2h6a1,1,0,1,1,0,2Z"/><path class="cls-1" d="M7,23.17H1a1,1,0,1,1,0-2H7a1,1,0,1,1,0,2Z"/><path class="cls-1" d="M32.89,12.44a1,1,0,0,1-.71-1.7l4.25-4.25A1,1,0,0,1,37.84,7.9L33.6,12.15A1,1,0,0,1,32.89,12.44Z"/><path class="cls-1" d="M7.2,38.14a1,1,0,0,1-.71-1.7l4.25-4.25a1,1,0,0,1,1.41,1.41L7.9,37.84A1,1,0,0,1,7.2,38.14Z"/><path class="cls-1" d="M11.45,12.44a1,1,0,0,1-.71-.29L6.49,7.9A1,1,0,0,1,7.9,6.49l4.25,4.25a1,1,0,0,1-.71,1.7Z"/><path class="cls-1" d="M37.14,38.14a1,1,0,0,1-.71-.29L32.19,33.6a1,1,0,0,1,1.41-1.41l4.25,4.25a1,1,0,0,1-.71,1.7Z"/><path class="cls-2" d="M45.76,43.48H18.42a5.47,5.47,0,0,1-1.24-10.79,9.46,9.46,0,0,1-.12-1.51,9.57,9.57,0,0,1,18.72-2.77,6.15,6.15,0,0,1,9.94,4.13h0a5.47,5.47,0,0,1,0,10.93Z"/><path class="cls-3" d="M45.76,44.23H18.42a6.22,6.22,0,0,1-2.07-12.08c0-.32,0-.64,0-1a10.32,10.32,0,0,1,19.85-3.93,6.91,6.91,0,0,1,10.2,4.58,6.21,6.21,0,0,1-.6,12.4ZM26.62,22.37a8.82,8.82,0,0,0-8.71,10.21.75.75,0,0,1-.57.85,4.72,4.72,0,0,0,1.07,9.31H45.76a4.72,4.72,0,0,0,0-9.43.79.79,0,0,1-.79-.67A5.4,5.4,0,0,0,36.25,29a.75.75,0,0,1-1.18-.37A8.87,8.87,0,0,0,26.62,22.37Z"/></g></g></svg>