<svg xmlns="http://www.w3.org/2000/svg" viewBox="0 0 50.93 35.47"><defs><style>.cls-1{fill:none;stroke:#61c3d7;stroke-linecap:round;stroke-linejoin:round;stroke-width:1.06px;}.cls-2{fill:#e3e3e3;}.cls-3{fill:#fff;}.cls-4{fill:#c6c6c6;}</style></defs><title>Recurso 16</title><g id="Capa_2" data-name="Capa 2"><g id="Capa_1-2" data-name="Capa 1"><path class="cls-1" d="M38.2,20.58"/><path class="cls-1" d="M46.66,26"/><path class="cls-1" d="M50.26,20.58"/><path class="cls-2" d="M45.12,21.3H19.3a5.16,5.16,0,0,1-1.17-10.19A8.93,8.93,0,0,1,18,9.68,9,9,0,0,1,35.7,7.07,5.81,5.81,0,0,1,45.08,11h0a5.16,5.16,0,0,1,0,10.32Z"/><path class="cls-3" d="M45.12,21.94H19.3a5.81,5.81,0,0,1-1.89-11.31c0-.31,0-.63,0-1A9.68,9.68,0,0,1,36,6.05a6.46,6.46,0,0,1,9.61,4.3,5.81,5.81,0,0,1-.52,11.6ZM27,1.3a8.39,8.39,0,0,0-8.38,8.38,8.23,8.23,0,0,0,.1,1.32l-.49.74a4.51,4.51,0,0,0,1,8.91H45.12a4.51,4.51,0,0,0,0-9L44.43,11A5.16,5.16,0,0,0,36.1,7.58l-1-.32A8.44,8.44,0,0,0,27,1.3Z"/><path class="cls-4" d="M40.78,34.82H7.33a6.69,6.69,0,0,1-1.52-13.2,11.57,11.57,0,0,1-.15-1.85,11.71,11.71,0,0,1,22.91-3.39,7.53,7.53,0,0,1,12.16,5.06h.05a6.69,6.69,0,0,1,0,13.38Z"/><path class="cls-3" d="M40.78,35.47H7.33A7.34,7.34,0,0,1,5.09,21.14,12.36,12.36,0,0,1,17.37,7.42a12.45,12.45,0,0,1,11.54,7.94,8.08,8.08,0,0,1,4.34-1.25,8.16,8.16,0,0,1,8,6.71,7.34,7.34,0,0,1-.52,14.65ZM17.37,8.72A11.06,11.06,0,0,0,6.45,21.51a.65.65,0,0,1-.49.74A6,6,0,0,0,7.33,34.17H40.78a6,6,0,0,0,0-12.08.7.7,0,0,1-.7-.58A6.88,6.88,0,0,0,29,16.89a.65.65,0,0,1-1-.32A11.13,11.13,0,0,0,17.37,8.72Z"/></g></g></svg>