<svg xmlns="http://www.w3.org/2000/svg" viewBox="0 0 38.38 21.15"><defs><style>.cls-1{fill:#fff;}.cls-2{fill:#c6c6c6;}</style></defs><title>Recurso 23</title><g id="Capa_2" data-name="Capa 2"><g id="Capa_1-2" data-name="Capa 1"><rect class="cls-1" x="0.66" y="0.66" width="25.9" height="4.44"/><path class="cls-2" d="M26.56,5.76H.66A.66.66,0,0,1,0,5.1V.66A.66.66,0,0,1,.66,0h25.9a.66.66,0,0,1,.66.66V5.1A.66.66,0,0,1,26.56,5.76ZM1.32,4.44H25.9V1.32H1.32Z"/><rect class="cls-1" x="6.24" y="8.36" width="25.9" height="4.44"/><path class="cls-2" d="M32.14,13.46H6.24a.66.66,0,0,1-.66-.66V8.36a.66.66,0,0,1,.66-.66h25.9a.66.66,0,0,1,.66.66V12.8A.66.66,0,0,1,32.14,13.46ZM6.9,12.14H31.48V9H6.9Z"/><rect class="cls-1" x="11.82" y="16.05" width="25.9" height="4.44"/><path class="cls-2" d="M37.72,21.15H11.82a.66.66,0,0,1-.66-.66V16.05a.66.66,0,0,1,.66-.66h25.9a.66.66,0,0,1,.66.66v4.44A.66.66,0,0,1,37.72,21.15ZM12.48,19.83H37.06V16.71H12.48Z"/></g></g></svg>