<svg xmlns="http://www.w3.org/2000/svg" viewBox="0 0 51.52 58.77"><defs><style>.cls-1{fill:#61c3d7;}.cls-2{fill:#fece55;}.cls-3{fill:#878787;}.cls-4{fill:#fff;}</style></defs><title>Recurso 26</title><g id="Capa_2" data-name="Capa 2"><g id="Capa_1-2" data-name="Capa 1"><path class="cls-1" d="M7.91,53.79a1,1,0,0,1-.83-1.55l3.81-5.74a1,1,0,0,1,1.67,1.11L8.74,53.35A1,1,0,0,1,7.91,53.79Z"/><path class="cls-1" d="M11,58.77a1,1,0,0,1-.83-1.55L17.26,46.5a1,1,0,0,1,1.67,1.11L11.82,58.32A1,1,0,0,1,11,58.77Z"/><path class="cls-1" d="M20.67,53.79a1,1,0,0,1-.83-1.55l3.81-5.74a1,1,0,0,1,1.67,1.11L21.5,53.35A1,1,0,0,1,20.67,53.79Z"/><path class="cls-1" d="M23.75,58.77a1,1,0,0,1-.83-1.55L30,46.5a1,1,0,0,1,1.67,1.11L24.58,58.32A1,1,0,0,1,23.75,58.77Z"/><path class="cls-1" d="M33.42,53.79a1,1,0,0,1-.83-1.55L36.4,46.5a1,1,0,0,1,1.67,1.11l-3.81,5.74A1,1,0,0,1,33.42,53.79Z"/><path class="cls-1" d="M36.5,58.77a1,1,0,0,1-.83-1.55L42.78,46.5a1,1,0,0,1,1.67,1.11L37.34,58.32A1,1,0,0,1,36.5,58.77Z"/><path class="cls-2" d="M33.3,27.07A9.09,9.09,0,1,1,42.38,18,9.1,9.1,0,0,1,33.3,27.07Z"/><path class="cls-2" d="M33.3,7a1.08,1.08,0,0,1-1.08-1.08V1.08a1.08,1.08,0,0,1,2.17,0V5.88A1.08,1.08,0,0,1,33.3,7Z"/><path class="cls-2" d="M33.3,36a1.08,1.08,0,0,1-1.08-1.08V30.08a1.08,1.08,0,0,1,2.17,0v4.79A1.08,1.08,0,0,1,33.3,36Z"/><path class="cls-2" d="M50.19,19.06H45.4a1.08,1.08,0,1,1,0-2.17h4.79a1.08,1.08,0,1,1,0,2.17Z"/><path class="cls-2" d="M21.2,19.06H16.4a1.08,1.08,0,1,1,0-2.17H21.2a1.08,1.08,0,1,1,0,2.17Z"/><path class="cls-2" d="M41.86,10.51a1.08,1.08,0,0,1-.77-1.85l3.39-3.39A1.08,1.08,0,0,1,46,6.8l-3.39,3.39A1.08,1.08,0,0,1,41.86,10.51Z"/><path class="cls-2" d="M21.35,31a1.08,1.08,0,0,1-.77-1.85L24,25.77a1.08,1.08,0,0,1,1.53,1.53l-3.39,3.39A1.08,1.08,0,0,1,21.35,31Z"/><path class="cls-2" d="M24.74,10.51a1.08,1.08,0,0,1-.77-.32L20.58,6.8a1.08,1.08,0,0,1,1.53-1.53l3.39,3.39a1.08,1.08,0,0,1-.77,1.85Z"/><path class="cls-2" d="M45.25,31a1.08,1.08,0,0,1-.77-.32L41.09,27.3a1.08,1.08,0,0,1,1.53-1.53L46,29.16A1.08,1.08,0,0,1,45.25,31Z"/><path class="cls-3" d="M43.7,40.43H7.82A7.18,7.18,0,0,1,6.19,26.26a12.41,12.41,0,0,1-.16-2,12.56,12.56,0,0,1,24.58-3.63,8.07,8.07,0,0,1,13,5.43h.05a7.17,7.17,0,0,1,0,14.35Z"/><path class="cls-4" d="M43.7,41.08H7.82A7.83,7.83,0,0,1,5.47,25.79,13.21,13.21,0,0,1,18.59,11.08a13.3,13.3,0,0,1,12.35,8.54,8.62,8.62,0,0,1,4.68-1.36,8.71,8.71,0,0,1,8.59,7.2,7.82,7.82,0,0,1-.51,15.63ZM18.59,12.38a11.92,11.92,0,0,0-11.9,11.9,11.79,11.79,0,0,0,.15,1.88.65.65,0,0,1-.49.74A6.53,6.53,0,0,0,7.82,39.78H43.7a6.52,6.52,0,0,0,0-13,.71.71,0,0,1-.7-.58,7.42,7.42,0,0,0-12-5,.65.65,0,0,1-1-.32A12,12,0,0,0,18.59,12.38Z"/></g></g></svg>