<svg xmlns="http://www.w3.org/2000/svg" viewBox="0 0 51.55 47.72"><defs><style>.cls-1{fill:#61c3d7;}.cls-2{fill:#878787;}.cls-3{fill:#fff;}</style></defs><title>Recurso 29</title><g id="Capa_2" data-name="Capa 2"><g id="Capa_1-2" data-name="Capa 1"><path class="cls-1" d="M7.91,42.74a1,1,0,0,1-.83-1.55l3.81-5.75a1,1,0,1,1,1.67,1.11L8.75,42.29A1,1,0,0,1,7.91,42.74Z"/><path class="cls-1" d="M11,47.72a1,1,0,0,1-.83-1.55l7.11-10.73a1,1,0,1,1,1.67,1.11L11.83,47.27A1,1,0,0,1,11,47.72Z"/><path class="cls-1" d="M20.68,42.74a1,1,0,0,1-.83-1.55l3.81-5.75a1,1,0,1,1,1.67,1.11l-3.81,5.75A1,1,0,0,1,20.68,42.74Z"/><path class="cls-1" d="M23.76,47.72a1,1,0,0,1-.83-1.55L30,35.44a1,1,0,1,1,1.67,1.11L24.6,47.27A1,1,0,0,1,23.76,47.72Z"/><path class="cls-1" d="M33.44,42.74a1,1,0,0,1-.83-1.55l3.81-5.75a1,1,0,1,1,1.67,1.11l-3.81,5.75A1,1,0,0,1,33.44,42.74Z"/><path class="cls-1" d="M36.53,47.72a1,1,0,0,1-.83-1.55L42.8,35.44a1,1,0,1,1,1.67,1.11L37.36,47.27A1,1,0,0,1,36.53,47.72Z"/><path class="cls-2" d="M43.73,29.36H7.82A7.18,7.18,0,0,1,6.19,15.19a12.42,12.42,0,0,1-.16-2A12.56,12.56,0,0,1,30.62,9.58a8.08,8.08,0,0,1,13,5.43h.05a7.18,7.18,0,0,1,0,14.36Z"/><path class="cls-3" d="M43.73,30H7.82a7.83,7.83,0,0,1-2.35-15.3A13.21,13.21,0,0,1,31,8.54a8.73,8.73,0,0,1,13.28,5.83A7.83,7.83,0,0,1,43.73,30ZM18.6,1.3A11.92,11.92,0,0,0,6.83,15.09a.65.65,0,0,1-.49.74A6.53,6.53,0,0,0,7.82,28.71h35.9a6.53,6.53,0,0,0,0-13.06.71.71,0,0,1-.7-.58,7.43,7.43,0,0,0-12-5,.64.64,0,0,1-.6.11A.65.65,0,0,1,30,9.77,12,12,0,0,0,18.6,1.3Z"/></g></g></svg>