<svg xmlns="http://www.w3.org/2000/svg" viewBox="0 0 51.55 55.17"><defs><style>.cls-1{fill:#fece55;}.cls-2{fill:#878787;}.cls-3{fill:#fff;}</style></defs><title>Recurso 30</title><g id="Capa_2" data-name="Capa 2"><g id="Capa_1-2" data-name="Capa 1"><path class="cls-1" d="M33.32,27.08A9.09,9.09,0,1,1,42.41,18,9.1,9.1,0,0,1,33.32,27.08Z"/><path class="cls-1" d="M33.32,7a1.08,1.08,0,0,1-1.08-1.08V1.08a1.08,1.08,0,1,1,2.17,0v4.8A1.08,1.08,0,0,1,33.32,7Z"/><path class="cls-1" d="M33.32,36a1.08,1.08,0,0,1-1.08-1.08V30.1a1.08,1.08,0,1,1,2.17,0v4.8A1.08,1.08,0,0,1,33.32,36Z"/><path class="cls-1" d="M50.23,19.08h-4.8a1.08,1.08,0,1,1,0-2.17h4.8a1.08,1.08,0,0,1,0,2.17Z"/><path class="cls-1" d="M21.21,19.08h-4.8a1.08,1.08,0,0,1,0-2.17h4.8a1.08,1.08,0,0,1,0,2.17Z"/><path class="cls-1" d="M41.88,10.51a1.08,1.08,0,0,1-.77-1.85l3.39-3.39A1.08,1.08,0,1,1,46,6.8L42.65,10.2A1.08,1.08,0,0,1,41.88,10.51Z"/><path class="cls-1" d="M21.36,31a1.08,1.08,0,0,1-.77-1.85L24,25.79a1.08,1.08,0,0,1,1.53,1.53l-3.39,3.39A1.08,1.08,0,0,1,21.36,31Z"/><path class="cls-1" d="M24.76,10.51A1.08,1.08,0,0,1,24,10.2L20.6,6.8a1.08,1.08,0,1,1,1.53-1.53l3.39,3.39a1.08,1.08,0,0,1-.77,1.85Z"/><path class="cls-1" d="M45.27,31a1.08,1.08,0,0,1-.77-.32l-3.39-3.39a1.08,1.08,0,0,1,1.53-1.53L46,29.18A1.08,1.08,0,0,1,45.27,31Z"/><path class="cls-2" d="M43.73,40.45H7.82A7.18,7.18,0,0,1,6.19,26.28a12.42,12.42,0,0,1-.16-2,12.56,12.56,0,0,1,24.59-3.63,8.08,8.08,0,0,1,13,5.43h.05a7.18,7.18,0,0,1,0,14.36Z"/><path class="cls-3" d="M43.73,41.1H7.82A7.83,7.83,0,0,1,5.47,25.8a13.51,13.51,0,0,1-.08-1.51A13.21,13.21,0,0,1,31,19.63a8.62,8.62,0,0,1,4.69-1.36,8.71,8.71,0,0,1,8.59,7.2,7.83,7.83,0,0,1-.51,15.64ZM18.6,12.39A11.92,11.92,0,0,0,6.83,26.18a.65.65,0,0,1-.49.74A6.53,6.53,0,0,0,7.82,39.8H43.73a6.53,6.53,0,0,0,0-13.06.71.71,0,0,1-.7-.58,7.43,7.43,0,0,0-12-5,.65.65,0,0,1-1-.32A12,12,0,0,0,18.6,12.39Z"/><path class="cls-1" d="M21.34,54.52l-.25-.32c-.22-.34-.12-.76.11-1.29l4.37-10a.35.35,0,0,0-.37-.57h-4A1.73,1.73,0,0,1,19.45,40l3.8-11A3.09,3.09,0,0,1,26,27h5.13a1.5,1.5,0,0,1,1.38,2.38l-4.07,7.17c-.11.19-.11.32-.09.35s.13.09.35.09h5.67a1.3,1.3,0,0,1,1,2.3L22.7,53.86c-.41.47-.7.66-1,.66Z"/><path class="cls-3" d="M31.14,27.66c.89,0,1.26.63.82,1.41l-4.07,7.17c-.44.77-.07,1.41.82,1.41h5.67c.89,0,1.14.55.55,1.22L22.21,53.43c-.26.29-.43.43-.53.43s-.09-.24.11-.7l4.37-10a1,1,0,0,0-1-1.48H21.15a1.08,1.08,0,0,1-1.09-1.53l3.8-11A2.44,2.44,0,0,1,26,27.66h5.13m0-1.3H26a3.72,3.72,0,0,0-3.38,2.41l-3.8,11A2.38,2.38,0,0,0,21.15,43h3.68l-4.22,9.65a2,2,0,0,0-.06,1.91,1.36,1.36,0,0,0,1.14.62,2,2,0,0,0,1.51-.88L35.91,39.72a1.94,1.94,0,0,0-1.53-3.37H29.32l3.77-6.64a2.15,2.15,0,0,0-1.95-3.35ZM25,42.61Z"/></g></g></svg>