<svg xmlns="http://www.w3.org/2000/svg" viewBox="0 0 51.47 40.1"><defs><style>.cls-1{fill:#61c3d7;}.cls-2{fill:#c6c6c6;}.cls-3{fill:#fff;}</style></defs><title>Recurso 34</title><g id="Capa_2" data-name="Capa 2"><g id="Capa_1-2" data-name="Capa 1"><path class="cls-1" d="M18.33,40.1a.94.94,0,0,1-.94-.94v-6a.94.94,0,0,1,1.87,0v6A.94.94,0,0,1,18.33,40.1Z"/><path class="cls-1" d="M15.76,38.61a.94.94,0,0,1-.47-1.75l5.16-3a.94.94,0,1,1,.94,1.62l-5.16,3A.93.93,0,0,1,15.76,38.61Z"/><path class="cls-1" d="M20.91,38.61a.93.93,0,0,1-.47-.13l-5.16-3a.94.94,0,1,1,.94-1.62l5.16,3a.94.94,0,0,1-.47,1.75Z"/><path class="cls-1" d="M33.13,40.1a.94.94,0,0,1-.94-.94v-6a.94.94,0,0,1,1.87,0v6A.94.94,0,0,1,33.13,40.1Z"/><path class="cls-1" d="M30.56,38.61a.94.94,0,0,1-.47-1.75l5.16-3a.94.94,0,1,1,.94,1.62l-5.16,3A.93.93,0,0,1,30.56,38.61Z"/><path class="cls-1" d="M35.71,38.61a.93.93,0,0,1-.47-.13l-5.16-3A.94.94,0,1,1,31,33.88l5.16,3a.94.94,0,0,1-.47,1.75Z"/><path class="cls-2" d="M43.66,29.32H7.81A7.17,7.17,0,0,1,6.18,15.17a12.4,12.4,0,0,1-.16-2A12.54,12.54,0,0,1,30.58,9.56,8.06,8.06,0,0,1,43.6,15h.05a7.17,7.17,0,0,1,0,14.33Z"/><path class="cls-3" d="M43.66,30H7.81A7.82,7.82,0,0,1,5.46,14.69,13.2,13.2,0,0,1,18.57,0,13.29,13.29,0,0,1,30.91,8.53a8.72,8.72,0,0,1,13.26,5.83A7.82,7.82,0,0,1,43.66,30ZM18.57,1.3A11.9,11.9,0,0,0,6.82,15.07a.65.65,0,0,1-.49.74A6.52,6.52,0,0,0,7.81,28.67H43.66a6.52,6.52,0,0,0,0-13,.71.71,0,0,1-.7-.58,7.41,7.41,0,0,0-12-5,.65.65,0,0,1-1-.32A12,12,0,0,0,18.57,1.3Z"/></g></g></svg>