<svg xmlns="http://www.w3.org/2000/svg" viewBox="0 0 51.4 50.76"><defs><style>.cls-1{fill:#61c3d7;}.cls-2{fill:#c6c6c6;}.cls-3{fill:#fff;}</style></defs><title>Recurso 36</title><g id="Capa_2" data-name="Capa 2"><g id="Capa_1-2" data-name="Capa 1"><path class="cls-1" d="M10.92,40a.94.94,0,0,1-.93-.93V33.16a.93.93,0,0,1,1.87,0v5.95A.94.94,0,0,1,10.92,40Z"/><path class="cls-1" d="M8.35,38.56a.93.93,0,0,1-.47-1.74l5.15-3A.93.93,0,1,1,14,35.46l-5.15,3A.94.94,0,0,1,8.35,38.56Z"/><path class="cls-1" d="M13.5,38.56a.94.94,0,0,1-.47-.12l-5.15-3a.93.93,0,1,1,.93-1.62l5.15,3a.93.93,0,0,1-.47,1.74Z"/><path class="cls-1" d="M25.7,40a.94.94,0,0,1-.93-.93V33.16a.93.93,0,1,1,1.87,0v5.95A.94.94,0,0,1,25.7,40Z"/><path class="cls-1" d="M23.13,38.56a.93.93,0,0,1-.47-1.74l5.15-3a.93.93,0,0,1,.93,1.62l-5.15,3A.93.93,0,0,1,23.13,38.56Z"/><path class="cls-1" d="M28.28,38.56a.93.93,0,0,1-.47-.13l-5.15-3a.93.93,0,0,1,.93-1.62l5.15,3a.93.93,0,0,1-.47,1.74Z"/><path class="cls-1" d="M40.48,40a.94.94,0,0,1-.93-.93V33.16a.93.93,0,0,1,1.87,0v5.95A.94.94,0,0,1,40.48,40Z"/><path class="cls-1" d="M37.91,38.56a.93.93,0,0,1-.47-1.74l5.15-3a.93.93,0,1,1,.93,1.62l-5.15,3A.93.93,0,0,1,37.91,38.56Z"/><path class="cls-1" d="M43.06,38.56a.93.93,0,0,1-.47-.13l-5.15-3a.93.93,0,1,1,.93-1.62l5.15,3a.93.93,0,0,1-.47,1.74Z"/><path class="cls-1" d="M18.31,50.76a.94.94,0,0,1-.93-.93V43.88a.93.93,0,0,1,1.87,0v5.95A.94.94,0,0,1,18.31,50.76Z"/><path class="cls-1" d="M15.74,49.27a.93.93,0,0,1-.47-1.74l5.15-3a.93.93,0,0,1,.93,1.62l-5.15,3A.93.93,0,0,1,15.74,49.27Z"/><path class="cls-1" d="M20.89,49.27a.93.93,0,0,1-.47-.13l-5.15-3a.93.93,0,0,1,.93-1.62l5.15,3a.93.93,0,0,1-.47,1.74Z"/><path class="cls-1" d="M33.09,50.76a.94.94,0,0,1-.93-.93V43.88a.93.93,0,0,1,1.87,0v5.95A.94.94,0,0,1,33.09,50.76Z"/><path class="cls-1" d="M30.52,49.27A.93.93,0,0,1,30,47.53l5.15-3a.93.93,0,0,1,.93,1.62l-5.15,3A.94.94,0,0,1,30.52,49.27Z"/><path class="cls-1" d="M35.67,49.27a.94.94,0,0,1-.47-.12l-5.15-3A.93.93,0,1,1,31,44.55l5.15,3a.93.93,0,0,1-.47,1.74Z"/><path class="cls-2" d="M43.6,29.28H7.8A7.16,7.16,0,0,1,6.17,15.15a12.38,12.38,0,0,1-.16-2A12.53,12.53,0,0,1,30.54,9.55a8.05,8.05,0,0,1,13,5.41h.05a7.16,7.16,0,0,1,0,14.32Z"/><path class="cls-3" d="M43.6,29.93H7.8A7.81,7.81,0,0,1,5.45,14.68a13.33,13.33,0,0,1-.08-1.5,13.18,13.18,0,0,1,25.5-4.66,8.71,8.71,0,0,1,13.24,5.82,7.81,7.81,0,0,1-.51,15.6ZM18.54,1.3A11.89,11.89,0,0,0,6.82,15a.65.65,0,0,1-.49.74A6.51,6.51,0,0,0,7.8,28.63H43.6a6.51,6.51,0,0,0,0-13,.71.71,0,0,1-.7-.58,7.41,7.41,0,0,0-12-5,.64.64,0,0,1-.6.11.65.65,0,0,1-.43-.43A12,12,0,0,0,18.54,1.3Z"/></g></g></svg>