<svg xmlns="http://www.w3.org/2000/svg" viewBox="0 0 52.63 49.19"><defs><style>.cls-1{fill:#878787;}.cls-2{fill:#c7c7c6;}.cls-3{fill:#c6c6c6;}.cls-4{fill:#fff;}.cls-5{fill:#f39424;}</style></defs><title>Recurso 39</title><g id="Capa_2" data-name="Capa 2"><g id="Capa_1-2" data-name="Capa 1"><circle class="cls-1" cx="36.01" cy="45.42" r="1.87"/><circle class="cls-1" cx="4.41" cy="39.33" r="1.87"/><circle class="cls-1" cx="18.1" cy="41.07" r="1.65"/><circle class="cls-1" cx="36.59" cy="34.46" r="1.49"/><path class="cls-2" d="M6.93,37.37a.66.66,0,0,1-.5-1.08l3.3-3.84a.66.66,0,1,1,1,.86l-3.3,3.84A.66.66,0,0,1,6.93,37.37Z"/><path class="cls-2" d="M11.91,40.57a.66.66,0,0,1-.51-1.07l4.18-5.13a.66.66,0,0,1,1,.83l-4.18,5.13A.65.65,0,0,1,11.91,40.57Z"/><path class="cls-2" d="M25.52,49.19A.66.66,0,0,1,25,48.12L33.11,38a.66.66,0,0,1,1,.82L26,48.94A.65.65,0,0,1,25.52,49.19Z"/><path class="cls-2" d="M39.23,40.59a.66.66,0,0,1-.52-1.06L42.22,35a.66.66,0,0,1,1,.81l-3.5,4.49A.65.65,0,0,1,39.23,40.59Z"/><path class="cls-3" d="M8.44,30.54A7.8,7.8,0,0,1,6.09,15.3,13.31,13.31,0,0,1,6,13.81,13.16,13.16,0,0,1,31.48,9.15,8.7,8.7,0,0,1,44.7,15a7.8,7.8,0,0,1-.51,15.57Z"/><path class="cls-4" d="M19.17,1.3a12.51,12.51,0,0,1,12,8.89,8,8,0,0,1,13,5.4h.05a7.15,7.15,0,0,1,0,14.29H8.44A7.15,7.15,0,0,1,6.82,15.78a12.37,12.37,0,0,1-.16-2A12.51,12.51,0,0,1,19.17,1.3m0-1.3A13.82,13.82,0,0,0,5.36,13.81c0,.35,0,.7,0,1.05a8.45,8.45,0,0,0,3,16.33H44.19a8.45,8.45,0,0,0,1.05-16.83A9.35,9.35,0,0,0,31.79,8.22,13.92,13.92,0,0,0,19.17,0Z"/><path class="cls-5" d="M20.36,46.27l-.25-.34a1.29,1.29,0,0,1,.08-1.24l3.68-8.42a.33.33,0,0,0,0-.21.34.34,0,0,0-.21,0H20.29a1.62,1.62,0,0,1-1.59-2.23l3.2-9.25a2.77,2.77,0,0,1,2.48-1.77h4.33A1.43,1.43,0,0,1,30,25l-3.43,6a.54.54,0,0,0-.05.13h4.91a1.25,1.25,0,0,1,1,2.21L21.72,45.66a1.37,1.37,0,0,1-1,.61Z"/><path class="cls-4" d="M28.71,23.47c.75,0,1.06.53.69,1.19l-3.43,6c-.37.65-.06,1.19.69,1.19h4.78c.75,0,1,.46.47,1L21.19,45.2c-.22.25-.37.37-.44.37s-.08-.2.09-.59l3.68-8.42a.83.83,0,0,0-.82-1.25H20.29A.91.91,0,0,1,19.37,34l3.2-9.25a2.06,2.06,0,0,1,1.81-1.29h4.32m0-1.42H24.38a3.47,3.47,0,0,0-3.15,2.25L18,33.55a2.33,2.33,0,0,0,2.26,3.17h2.61L19.53,44.4a2,2,0,0,0,0,1.91,1.47,1.47,0,0,0,1.23.67,2,2,0,0,0,1.51-.85L33,33.85a2,2,0,0,0-1.54-3.38h-3.7l2.9-5.11a2.13,2.13,0,0,0-1.92-3.31Z"/></g></g></svg>