<svg xmlns="http://www.w3.org/2000/svg" viewBox="0 0 44.82 42.7"><defs><style>.cls-1{fill:#61c3d7;}.cls-2{fill:#d9d9d9;}.cls-3{fill:#a6a8aa;}</style></defs><title>Recurso 40</title><g id="Capa_2" data-name="Capa 2"><g id="Capa_1-2" data-name="Capa 1"><path class="cls-1" d="M33.48,36l-3.06.37-1.68-1,1.68-1,3.06.37h.08a.66.66,0,0,0,.08-1.32l-1.31-.16,1.15-.66a.66.66,0,0,0-.66-1.15l-1.14.66L32.18,31A.66.66,0,0,0,31,30.48l-1.21,2.84-1.68,1V32.34l1.85-2.47a.66.66,0,0,0-1.06-.79l-.79,1.06V28.82a.66.66,0,1,0-1.32,0v1.32L26,29.08a.66.66,0,0,0-1.06.79l1.85,2.47v1.94l-1.68-1-1.21-2.84a.66.66,0,0,0-1.22.52l.52,1.22L22,31.55a.66.66,0,0,0-.66,1.15l1.15.66-1.31.16a.66.66,0,0,0,.08,1.32h.08l3.06-.37,1.68,1-1.68,1L21.35,36a.66.66,0,1,0-.16,1.31l1.31.16-1.15.66A.66.66,0,0,0,22,39.31l1.14-.66-.52,1.22a.66.66,0,1,0,1.22.52l1.21-2.84,1.68-1v1.94L24.9,41a.66.66,0,0,0,1.06.79l.79-1.06V42a.66.66,0,1,0,1.32,0V40.72l.79,1.06A.66.66,0,0,0,29.93,41l-1.85-2.47V36.57l1.68,1L31,40.38a.66.66,0,1,0,1.22-.52l-.52-1.22,1.15.66a.66.66,0,0,0,.66-1.15l-1.15-.66,1.31-.16A.66.66,0,1,0,33.48,36Z"/><path class="cls-2" d="M.5.5v4A2.11,2.11,0,0,0,2.61,6.57H4L7,24.44a.41.41,0,0,0,.82,0l2-11.71,3.64,21.53a.41.41,0,0,0,.41.34h.33a.41.41,0,0,0,.41-.34L19.3,6.57h2.8l2.13,7.74a1.57,1.57,0,0,0,3,0l1.65-6,4.39,17a.42.42,0,0,0,.41.35H34a.42.42,0,0,0,.41-.35l3.64-12.53,2,11.7a.42.42,0,0,0,.82,0L44.32,6.57V.5Z"/><path class="cls-3" d="M14.21,35.11h-.33a.91.91,0,0,1-.9-.76L9.84,15.74,8.35,24.53a.91.91,0,0,1-1.8,0L3.6,7.07h-1A2.62,2.62,0,0,1,0,4.46V.5A.5.5,0,0,1,.5,0H44.32a.5.5,0,0,1,.5.5V6.57l-3.47,18a.92.92,0,0,1-1.43.57.91.91,0,0,1-.37-.6L37.94,15l-3,10.43a.9.9,0,0,1-.89.71H33.7a.91.91,0,0,1-.91-.77L28.88,10.24l-1.16,4.2a2.07,2.07,0,0,1-4,0l-2-7.37h-2L15.11,34.35A.91.91,0,0,1,14.21,35.11Zm-.26-1h.18L18.8,6.49a.5.5,0,0,1,.49-.42h2.8a.5.5,0,0,1,.48.37l2.13,7.74a1.07,1.07,0,0,0,2.06,0l1.65-6a.5.5,0,0,1,.48-.37h0a.5.5,0,0,1,.48.38l4.38,16.94H34L37.59,12.6a.52.52,0,0,1,.51-.36.5.5,0,0,1,.46.42l1.93,11.4L43.83,6.48V1H1V4.46A1.61,1.61,0,0,0,2.61,6.07H4a.5.5,0,0,1,.49.42L7.45,23.85l1.89-11.2a.5.5,0,0,1,1,0Zm20-9v0Zm-26.41-.8h0Z"/></g></g></svg>