<svg xmlns="http://www.w3.org/2000/svg" viewBox="0 0 34.53 27.76"><defs><style>.cls-1{fill:#65778b;}</style></defs><title>Recurso 49</title><g id="Capa_2" data-name="Capa 2"><g id="Capa_1-2" data-name="Capa 1"><path class="cls-1" d="M6.9,27.76a2.06,2.06,0,0,1-1.46-.6L.19,21.91A.64.64,0,0,1,1.1,21l5.25,5.25a.78.78,0,0,0,1.1,0L33,.67a.64.64,0,0,1,.91.91L8.36,27.16A2.06,2.06,0,0,1,6.9,27.76Z"/><path class="cls-1" d="M33.48,7.36h0a.64.64,0,0,1-.6-.69l.36-5.33-5.33.36a.63.63,0,0,1-.69-.6.64.64,0,0,1,.6-.69L33.84,0a.64.64,0,0,1,.5.19.64.64,0,0,1,.19.5l-.41,6.07A.64.64,0,0,1,33.48,7.36Z"/></g></g></svg>