<svg xmlns="http://www.w3.org/2000/svg" viewBox="0 0 14.08 39.5"><defs><style>.cls-1{fill:#65778b;}</style></defs><title>Recurso 56</title><g id="Capa_2" data-name="Capa 2"><g id="Capa_1-2" data-name="Capa 1"><path class="cls-1" d="M8.07,39.5H.64a.64.64,0,1,1,0-1.29H8.07a.78.78,0,0,0,.78-.78V1.26a.64.64,0,0,1,1.29,0V37.43A2.07,2.07,0,0,1,8.07,39.5Z"/><path class="cls-1" d="M8.07,35.5H.64a.64.64,0,1,1,0-1.29H8.07a.78.78,0,0,0,.78-.78.64.64,0,0,1,1.29,0A2.07,2.07,0,0,1,8.07,35.5Z"/><path class="cls-1" d="M13.44,5.86A.64.64,0,0,1,13,5.64l-3.52-4-3.52,4a.64.64,0,0,1-1-.85L9,.21a.66.66,0,0,1,1,0l4,4.58a.64.64,0,0,1-.48,1.07Z"/></g></g></svg>