<svg width="51" height="47" viewBox="0 0 51 47" fill="none" xmlns="http://www.w3.org/2000/svg">
<path d="M25.3419 4L28.2422 7.75801L32.4343 5.4939L33.5415 10.096L38.3004 9.7173L37.4229 14.3678L41.9258 15.94L39.2154 19.8347L42.6838 23.0858L38.6091 25.5514L40.4431 29.9194L35.7087 30.5294L35.5914 35.2591L31.0158 33.9082L28.9673 38.1816L25.3419 35.1033L21.7165 38.1816L19.668 33.9082L15.0924 35.2591L14.9751 30.5294L10.2406 29.9194L12.0747 25.5514L8 23.0858L11.4684 19.8347L8.75792 15.94L13.2609 14.3678L12.3834 9.7173L17.1423 10.096L18.2495 5.4939L22.4416 7.75801L25.3419 4Z" fill="#FFB700"/>
<path d="M25.7014 31.2771C31.4387 31.2771 36.0897 26.6261 36.0897 20.8889C36.0897 15.1516 31.4387 10.5006 25.7014 10.5006C19.9641 10.5006 15.3132 15.1516 15.3132 20.8889C15.3132 26.6261 19.9641 31.2771 25.7014 31.2771Z" fill="#FECE55"/>
<path d="M9.67 30.3083H3.4C3.12418 30.3083 2.85965 30.1798 2.66461 29.9512C2.46957 29.7225 2.36 29.4124 2.36 29.089C2.36 28.7656 2.46957 28.4555 2.66461 28.2268C2.85965 27.9982 3.12418 27.8697 3.4 27.8697H9.67C9.94583 27.8697 10.2104 27.9982 10.4054 28.2268C10.6004 28.4555 10.71 28.7656 10.71 29.089C10.71 29.4124 10.6004 29.7225 10.4054 29.9512C10.2104 30.1798 9.94583 30.3083 9.67 30.3083Z" fill="#FECE55"/>
<path d="M36.69 17.201C36.4748 17.2215 36.2598 17.1599 36.077 17.0253C35.8941 16.8906 35.7534 16.6903 35.6757 16.4541C35.5981 16.218 35.5877 15.9587 35.6462 15.715C35.7046 15.4714 35.8287 15.2565 36 15.1024L40.43 9.90869C40.5265 9.79553 40.6411 9.70576 40.7672 9.64452C40.8933 9.58328 41.0285 9.55176 41.165 9.55176C41.3015 9.55176 41.4367 9.58328 41.5628 9.64452C41.6889 9.70576 41.8035 9.79553 41.9 9.90869C41.9965 10.0218 42.0731 10.1562 42.1253 10.304C42.1776 10.4519 42.2044 10.6104 42.2044 10.7704C42.2044 10.9304 42.1776 11.0889 42.1253 11.2367C42.0731 11.3846 41.9965 11.5189 41.9 11.6321L37.47 16.8258C37.3711 16.9511 37.2501 17.0497 37.1154 17.1145C36.9806 17.1793 36.8355 17.2088 36.69 17.201Z" fill="#FECE55"/>
<path d="M22.55 27.6821C22.5502 27.2512 22.4615 26.8266 22.2916 26.4445C22.1216 26.0625 21.8753 25.7342 21.5738 25.4878C21.2723 25.2414 20.9244 25.0841 20.5598 25.0293C20.1953 24.9745 19.8248 25.0239 19.48 25.1732C19.4101 24.765 19.2695 24.3778 19.067 24.0357C18.8646 23.6936 18.6044 23.4037 18.3027 23.184C18.001 22.9643 17.6641 22.8194 17.3128 22.7583C16.9614 22.6971 16.6032 22.721 16.26 22.8284C16.0703 22.0451 15.6794 21.3493 15.1404 20.8357C14.6015 20.3221 13.9406 20.0156 13.2478 19.958C12.555 19.9003 11.8639 20.0943 11.2684 20.5135C10.673 20.9327 10.2022 21.5568 9.92 22.3009C9.38659 21.7695 8.74105 21.4163 8.0511 21.2783C7.36116 21.1402 6.65223 21.2223 5.99869 21.5161C5.34515 21.8099 4.77109 22.3044 4.33673 22.9479C3.90237 23.5914 3.62372 24.36 3.53 25.1732C3.21751 25.0495 2.88584 25.0067 2.55788 25.0478C2.22991 25.0889 1.91346 25.213 1.63036 25.4114C1.34726 25.6098 1.10426 25.8779 0.918116 26.1972C0.731973 26.5164 0.607126 26.8792 0.552188 27.2605C0.497251 27.6418 0.513532 28.0325 0.599908 28.4057C0.686284 28.7789 0.840698 29.1257 1.05249 29.4221C1.26429 29.7186 1.52843 29.9576 1.82667 30.1227C2.12492 30.2879 2.45018 30.3752 2.78 30.3786H20.45C21.0264 30.3252 21.564 30.0169 21.9539 29.5163C22.3438 29.0156 22.5569 28.36 22.55 27.6821Z" fill="#C4D0E0"/>
<path d="M20.45 30.9414H2.78C2.41493 30.9414 2.05343 30.8571 1.71614 30.6933C1.37885 30.5295 1.07239 30.2894 0.814243 29.9868C0.556096 29.6841 0.351323 29.3248 0.211615 28.9294C0.0719068 28.534 0 28.1101 0 27.6821C0 27.2541 0.0719068 26.8303 0.211615 26.4349C0.351323 26.0394 0.556096 25.6801 0.814243 25.3775C1.07239 25.0748 1.37885 24.8348 1.71614 24.671C2.05343 24.5072 2.41493 24.4229 2.78 24.4229H3.14C3.32004 23.6404 3.6548 22.9187 4.11715 22.3162C4.5795 21.7137 5.15642 21.2474 5.80116 20.9551C6.4459 20.6628 7.14032 20.5527 7.82812 20.6338C8.51592 20.7148 9.17777 20.9847 9.76 21.4216C10.145 20.7288 10.6837 20.1722 11.3183 19.8115C11.9529 19.4509 12.6593 19.2998 13.3616 19.3745C14.064 19.4493 14.7356 19.747 15.3045 20.2358C15.8733 20.7245 16.3177 21.3858 16.59 22.1484C17.2737 22.0659 17.9615 22.2512 18.5459 22.6754C19.1303 23.0996 19.5783 23.7389 19.82 24.4932C19.9697 24.4788 20.1203 24.4788 20.27 24.4932C20.9944 24.4695 21.6981 24.7785 22.2311 25.3542C22.7641 25.9299 23.0843 26.7269 23.1234 27.5753C23.1625 28.4237 22.9175 29.2565 22.4405 29.8962C21.9636 30.5359 21.2924 30.932 20.57 31L20.45 30.9414ZM2.78 25.5953C2.30791 25.5953 1.85516 25.8151 1.52135 26.2065C1.18754 26.5979 1 27.1287 1 27.6821C1 28.2356 1.18754 28.7664 1.52135 29.1578C1.85516 29.5491 2.30791 29.769 2.78 29.769H20.41C20.6612 29.7415 20.9046 29.6518 21.124 29.5057C21.3434 29.3595 21.5338 29.1604 21.6825 28.9215C21.8313 28.6825 21.935 28.4092 21.9869 28.1197C22.0387 27.8302 22.0374 27.5311 21.9831 27.2422C21.9288 26.9533 21.8228 26.6812 21.672 26.4441C21.5212 26.2069 21.3291 26.01 21.1085 25.8664C20.8879 25.7229 20.6437 25.636 20.3923 25.6115C20.1408 25.5869 19.8878 25.6254 19.65 25.7242C19.5831 25.7509 19.5121 25.7606 19.4417 25.7527C19.3714 25.7449 19.3033 25.7196 19.2418 25.6786C19.1804 25.6376 19.1271 25.5819 19.0854 25.5149C19.0437 25.448 19.0146 25.3715 19 25.2905C18.9414 24.962 18.8267 24.6508 18.6627 24.3757C18.4987 24.1006 18.289 23.8672 18.046 23.6898C17.803 23.5123 17.532 23.3943 17.2491 23.343C16.9662 23.2917 16.6773 23.3081 16.4 23.3912C16.2727 23.4307 16.1373 23.4098 16.0231 23.333C15.9089 23.2562 15.8251 23.1296 15.79 22.9808C15.6287 22.3138 15.2962 21.7211 14.8376 21.2834C14.3789 20.8456 13.8165 20.584 13.2266 20.534C12.6368 20.4841 12.0481 20.6482 11.5406 21.0042C11.0331 21.3602 10.6314 21.8907 10.39 22.5236C10.3575 22.6065 10.3089 22.6793 10.2481 22.7363C10.1874 22.7933 10.1161 22.8329 10.04 22.8519C9.96473 22.8716 9.88655 22.8702 9.81183 22.8478C9.73711 22.8253 9.66796 22.7826 9.61 22.7229C9.14522 22.2472 8.57878 21.9286 7.97137 21.8015C7.36397 21.6744 6.73851 21.7434 6.16202 22.0012C5.58553 22.259 5.07975 22.6959 4.69888 23.265C4.31802 23.8341 4.07643 24.514 4 25.2318C3.98939 25.3174 3.96276 25.3992 3.92202 25.4713C3.88128 25.5434 3.82743 25.604 3.76435 25.6488C3.70127 25.6937 3.63051 25.7216 3.55714 25.7305C3.48377 25.7395 3.40962 25.7294 3.34 25.7008C3.15934 25.6308 2.97028 25.5951 2.78 25.5953Z" fill="white"/>
<path d="M50.5 16.3451C50.5002 15.9142 50.4115 15.4896 50.2416 15.1075C50.0716 14.7254 49.8253 14.3972 49.5238 14.1508C49.2223 13.9044 48.8744 13.7471 48.5098 13.6923C48.1453 13.6375 47.7748 13.6869 47.43 13.8362C47.3601 13.4279 47.2195 13.0408 47.017 12.6987C46.8146 12.3566 46.5544 12.0667 46.2527 11.847C45.951 11.6273 45.6141 11.4824 45.2628 11.4212C44.9114 11.3601 44.5531 11.384 44.21 11.4914C44.0203 10.7081 43.6294 10.0123 43.0904 9.49868C42.5515 8.98508 41.8906 8.67861 41.1978 8.62095C40.505 8.5633 39.8139 8.75727 39.2184 9.17648C38.623 9.59569 38.1522 10.2198 37.87 10.9638C37.3366 10.4325 36.691 10.0793 36.0011 9.94124C35.3111 9.80317 34.6022 9.88533 33.9487 10.1791C33.2951 10.4729 32.7211 10.9674 32.2867 11.6109C31.8524 12.2543 31.5737 13.023 31.48 13.8362C31.1675 13.7124 30.8358 13.6696 30.5079 13.7108C30.1799 13.7519 29.8635 13.8759 29.5804 14.0744C29.2973 14.2728 29.0543 14.5409 28.8681 14.8601C28.682 15.1794 28.5571 15.5421 28.5022 15.9234C28.4472 16.3047 28.4635 16.6955 28.5499 17.0687C28.6363 17.4419 28.7907 17.7887 29.0025 18.0851C29.2143 18.3815 29.4784 18.6206 29.7767 18.7857C30.0749 18.9509 30.4002 19.0382 30.73 19.0416H48.4C48.9764 18.9881 49.514 18.6799 49.9039 18.1792C50.2938 17.6786 50.5069 17.023 50.5 16.3451Z" fill="#C4D0E0"/>
<path d="M48.4 19.6044H30.73C29.9927 19.6044 29.2856 19.261 28.7642 18.6497C28.2429 18.0385 27.95 17.2095 27.95 16.3451C27.95 15.4807 28.2429 14.6517 28.7642 14.0405C29.2856 13.4292 29.9927 13.0859 30.73 13.0859H31.09C31.2681 12.3032 31.601 11.5806 32.0616 10.9768C32.5223 10.373 33.0977 9.90487 33.7414 9.61032C34.3851 9.31577 35.0789 9.20308 35.7666 9.2814C36.4544 9.35971 37.1167 9.62682 37.7 10.0611C38.0858 9.36874 38.6252 8.81278 39.2604 8.45301C39.8955 8.09324 40.6023 7.94327 41.3047 8.01923C42.0071 8.09519 42.6786 8.3942 43.2468 8.88411C43.8151 9.37402 44.2588 10.0363 44.53 10.7997C45.2135 10.7192 45.9005 10.9053 46.4845 11.3293C47.0685 11.7532 47.5169 12.3913 47.76 13.1445C47.9097 13.13 48.0602 13.13 48.21 13.1445C48.8557 13.2375 49.4532 13.5931 49.8983 14.1493C50.3435 14.7056 50.6081 15.4273 50.6462 16.1887C50.6843 16.9501 50.4933 17.7031 50.1067 18.3165C49.72 18.9299 49.162 19.3649 48.53 19.5457L48.4 19.6044ZM30.73 14.2583C30.2579 14.2583 29.8052 14.4781 29.4713 14.8695C29.1375 15.2608 28.95 15.7916 28.95 16.3451C28.95 16.8986 29.1375 17.4294 29.4713 17.8207C29.8052 18.2121 30.2579 18.432 30.73 18.432H48.36C48.8321 18.4102 49.2775 18.1695 49.5981 17.7627C49.9188 17.356 50.0886 16.8165 50.07 16.263C50.0514 15.7096 49.8461 15.1874 49.4991 14.8114C49.1522 14.4355 48.6921 14.2365 48.22 14.2583C48.0084 14.2574 47.7984 14.3011 47.6 14.3872C47.5325 14.4159 47.4605 14.4271 47.389 14.4202C47.3174 14.4133 47.248 14.3885 47.1854 14.3473C47.1227 14.3062 47.0684 14.2497 47.0261 14.1817C46.9837 14.1137 46.9544 14.0359 46.94 13.9534C46.8788 13.6265 46.7625 13.3173 46.5979 13.0439C46.4333 12.7705 46.2236 12.5385 45.9814 12.3615C45.7391 12.1845 45.4691 12.0661 45.1872 12.0134C44.9053 11.9606 44.6172 11.9744 44.34 12.0542C44.2127 12.0937 44.0773 12.0728 43.9631 11.996C43.8489 11.9191 43.7651 11.7926 43.73 11.6438C43.5687 10.9768 43.2362 10.3841 42.7775 9.94634C42.3189 9.50858 41.7565 9.24695 41.1666 9.19701C40.5768 9.14706 39.9881 9.31122 39.4806 9.66718C38.9731 10.0231 38.5714 10.5536 38.33 11.1866C38.2975 11.2695 38.2489 11.3423 38.1881 11.3993C38.1274 11.4563 38.0561 11.4958 37.98 11.5149C37.9015 11.5285 37.8214 11.5197 37.7465 11.4891C37.6716 11.4584 37.6042 11.4069 37.55 11.339C37.0818 10.8813 36.5173 10.5796 35.9155 10.4654C35.3138 10.3513 34.6969 10.4289 34.1295 10.6902C33.5621 10.9515 33.0651 11.3868 32.6904 11.9506C32.3158 12.5144 32.0773 13.1859 32 13.8948C31.9894 13.9804 31.9628 14.0622 31.922 14.1343C31.8813 14.2063 31.8274 14.267 31.7643 14.3118C31.7013 14.3566 31.6305 14.3845 31.5571 14.3935C31.4838 14.4025 31.4096 14.3923 31.34 14.3638C31.1434 14.2873 30.937 14.2516 30.73 14.2583Z" fill="white"/>
</svg>
