<svg width="52" height="45" viewBox="0 0 52 45" fill="none" xmlns="http://www.w3.org/2000/svg">
<path d="M20.3419 3L23.2422 6.75801L27.4343 4.4939L28.5415 9.09602L33.3004 8.7173L32.4229 13.3678L36.9258 14.94L34.2154 18.8347L37.6838 22.0858L33.6091 24.5514L35.4431 28.9194L30.7087 29.5294L30.5914 34.2591L26.0158 32.9082L23.9673 37.1816L20.3419 34.1033L16.7165 37.1816L14.668 32.9082L10.0924 34.2591L9.97507 29.5294L5.24064 28.9194L7.07472 24.5514L3 22.0858L6.46838 18.8347L3.75792 14.94L8.26089 13.3678L7.38337 8.7173L12.1423 9.09602L13.2495 4.4939L17.4416 6.75801L20.3419 3Z" fill="#FFB700"/>
<path d="M21.7014 32.2771C27.4387 32.2771 32.0897 27.6261 32.0897 21.8889C32.0897 16.1516 27.4387 11.5006 21.7014 11.5006C15.9641 11.5006 11.3132 16.1516 11.3132 21.8889C11.3132 27.6261 15.9641 32.2771 21.7014 32.2771Z" fill="#FECE55"/>
<path d="M20.38 31.76C18.1293 31.76 15.929 31.0926 14.0576 29.8421C12.1862 28.5917 10.7276 26.8144 9.86626 24.7349C9.00493 22.6555 8.77957 20.3674 9.21867 18.1599C9.65777 15.9524 10.7416 13.9247 12.3331 12.3331C13.9247 10.7416 15.9524 9.65777 18.1599 9.21867C20.3674 8.77957 22.6555 9.00493 24.7349 9.86626C26.8144 10.7276 28.5917 12.1862 29.8421 14.0576C31.0926 15.929 31.76 18.1293 31.76 20.38C31.7547 23.3965 30.5541 26.288 28.421 28.421C26.288 30.5541 23.3965 31.7547 20.38 31.76Z" fill="#FECE55"/>
<path d="M20.17 42.34C19.9048 42.34 19.6504 42.2346 19.4629 42.0471C19.2754 41.8596 19.17 41.6052 19.17 41.34V35.34C19.17 35.0748 19.2754 34.8204 19.4629 34.6329C19.6504 34.4454 19.9048 34.34 20.17 34.34C20.4352 34.34 20.6896 34.4454 20.8771 34.6329C21.0646 34.8204 21.17 35.0748 21.17 35.34V41.34C21.17 41.6052 21.0646 41.8596 20.8771 42.0471C20.6896 42.2346 20.4352 42.34 20.17 42.34Z" fill="#FECE55"/>
<path d="M35.14 36.14C35.0084 36.1408 34.8779 36.1155 34.7561 36.0658C34.6343 36.016 34.5234 35.9427 34.43 35.85L30.19 31.6C30.0262 31.4087 29.9406 31.1626 29.9503 30.9109C29.96 30.6593 30.0643 30.4205 30.2424 30.2424C30.4205 30.0643 30.6593 29.96 30.9109 29.9503C31.1626 29.9406 31.4087 30.0262 31.6 30.19L35.85 34.44C35.9876 34.5804 36.0808 34.7582 36.1179 34.9513C36.155 35.1443 36.1344 35.344 36.0586 35.5254C35.9829 35.7068 35.8553 35.8618 35.6919 35.9711C35.5285 36.0804 35.3366 36.1392 35.14 36.14Z" fill="#FECE55"/>
<path d="M43.76 41.48H16.42C15.0829 41.4722 13.795 40.975 12.7996 40.0822C11.8042 39.1894 11.1702 37.963 11.0176 36.6346C10.8649 35.3062 11.2041 33.968 11.971 32.8727C12.738 31.7774 13.8795 31.0009 15.18 30.69C15.0997 30.1907 15.0596 29.6857 15.06 29.18C15.0681 26.8904 15.8968 24.6796 17.3956 22.9489C18.8945 21.2181 20.9642 20.082 23.2291 19.7469C25.494 19.4117 27.8041 19.8997 29.7399 21.1223C31.6758 22.3448 33.1092 24.2209 33.78 26.41C34.64 25.726 35.6675 25.285 36.7557 25.1327C37.8439 24.9804 38.9531 25.1225 39.9678 25.5441C40.9825 25.9657 41.8657 26.6514 42.5256 27.53C43.1855 28.4086 43.5979 29.448 43.72 30.54C45.129 30.6003 46.4602 31.2024 47.4359 32.2207C48.4115 33.239 48.9562 34.5948 48.9562 36.005C48.9562 37.4153 48.4115 38.771 47.4359 39.7893C46.4602 40.8076 45.129 41.4097 43.72 41.47L43.76 41.48Z" fill="#A0ADBF"/>
<path d="M43.76 42.23H16.42C14.9551 42.2264 13.5386 41.7059 12.4198 40.7602C11.3011 39.8145 10.5521 38.5044 10.3047 37.0605C10.0573 35.6167 10.3274 34.1319 11.0674 32.8677C11.8074 31.6035 12.9699 30.6411 14.35 30.15C14.35 29.83 14.35 29.51 14.35 29.15C14.3569 26.766 15.189 24.4579 16.7049 22.6178C18.2208 20.7778 20.327 19.5194 22.6657 19.0564C25.0043 18.5934 27.4311 18.9543 29.5338 20.0779C31.6364 21.2015 33.2852 23.0184 34.2 25.22C35.1461 24.6777 36.2072 24.367 37.2964 24.3133C38.3856 24.2596 39.472 24.4645 40.4669 24.9112C41.4617 25.3579 42.3367 26.0338 43.0203 26.8835C43.7039 27.7331 44.1767 28.7326 44.4 29.8C46.0101 29.926 47.5078 30.6743 48.5753 31.8861C49.6429 33.098 50.1963 34.6781 50.1183 36.2912C50.0402 37.9043 49.3368 39.4236 48.1572 40.5267C46.9777 41.6299 45.4147 42.23 43.8 42.2L43.76 42.23ZM24.62 20.37C23.3442 20.37 22.0835 20.6467 20.925 21.1812C19.7665 21.7157 18.7377 22.4951 17.9097 23.4657C17.0817 24.4364 16.4741 25.5751 16.1288 26.8033C15.7836 28.0316 15.7089 29.3201 15.91 30.58C15.9403 30.7675 15.8983 30.9596 15.7925 31.1173C15.6867 31.2751 15.525 31.3868 15.34 31.43C14.2184 31.6987 13.2339 32.3689 12.5726 33.3138C11.9113 34.2588 11.6189 35.4132 11.7506 36.559C11.8823 37.7048 12.429 38.7628 13.2874 39.5331C14.1459 40.3034 15.2566 40.7327 16.41 40.74H43.76C44.9729 40.6841 46.1177 40.163 46.9563 39.2848C47.7949 38.4067 48.2628 37.2392 48.2628 36.025C48.2628 34.8108 47.7949 33.6433 46.9563 32.7651C46.1177 31.887 44.9729 31.3659 43.76 31.31C43.5697 31.3122 43.385 31.2456 43.2399 31.1225C43.0947 30.9995 42.9989 30.8281 42.97 30.64C42.8641 29.6814 42.5033 28.7686 41.9252 27.9966C41.3472 27.2245 40.5729 26.6214 39.6828 26.2499C38.7928 25.8784 37.8195 25.752 36.8641 25.8839C35.9087 26.0158 35.0061 26.4012 34.25 27C34.1542 27.0752 34.0416 27.1259 33.9218 27.1478C33.8021 27.1696 33.6788 27.162 33.5626 27.1256C33.4464 27.0892 33.3409 27.025 33.2551 26.9387C33.1692 26.8523 33.1057 26.7464 33.07 26.63C32.5133 24.8218 31.393 23.2389 29.8727 22.1127C28.3525 20.9865 26.512 20.3758 24.62 20.37Z" fill="white"/>
</svg>
