<svg width="51" height="36" viewBox="0 0 51 36" fill="none" xmlns="http://www.w3.org/2000/svg">
<g clip-path="url(#clip0_7_407)">
<path d="M45.12 21.3H19.3C18.0301 21.3047 16.8031 20.841 15.8537 19.9976C14.9043 19.1541 14.2993 17.9902 14.1545 16.7286C14.0096 15.467 14.3351 14.1963 15.0686 13.1596C15.8021 12.123 16.8921 11.3932 18.13 11.11C18.0484 10.6376 18.0049 10.1594 18 9.67999C17.9191 7.46544 18.6581 5.29891 20.0755 3.59539C21.4928 1.89188 23.4888 0.771141 25.6811 0.447867C27.8734 0.124593 30.1079 0.621507 31.9566 1.84343C33.8053 3.06534 35.1382 4.92636 35.7 7.06999C36.5144 6.42595 37.4865 6.0119 38.5152 5.87094C39.5438 5.72998 40.5915 5.86725 41.5491 6.26848C42.5067 6.6697 43.3393 7.32021 43.9603 8.15233C44.5813 8.98445 44.9679 9.96778 45.08 11C46.4485 11 47.761 11.5436 48.7287 12.5113C49.6964 13.479 50.24 14.7915 50.24 16.16C50.24 17.5285 49.6964 18.841 48.7287 19.8087C47.761 20.7764 46.4485 21.32 45.08 21.32L45.12 21.3Z" fill="#C4D0E0"/>
<path d="M45.12 21.94H19.3C17.9221 21.9442 16.5875 21.4585 15.5346 20.5697C14.4817 19.6808 13.7789 18.4467 13.5518 17.0876C13.3247 15.7286 13.588 14.333 14.2947 13.1501C15.0015 11.9673 16.1056 11.0741 17.41 10.63C17.41 10.32 17.41 10 17.41 9.63C17.4554 7.4149 18.2594 5.28243 19.6876 3.58864C21.1158 1.89484 23.0818 0.74224 25.2574 0.323272C27.433 -0.0956957 29.6865 0.244329 31.6416 1.28658C33.5967 2.32882 35.1351 4.01021 36 6.05C36.8881 5.52751 37.8883 5.22505 38.9171 5.16787C39.946 5.11069 40.9735 5.30044 41.9141 5.72129C42.8546 6.14214 43.6809 6.78187 44.3238 7.58709C44.9667 8.3923 45.4077 9.33963 45.61 10.35C47.1076 10.4742 48.4989 11.1738 49.4917 12.3019C50.4844 13.4301 51.0014 14.8991 50.9342 16.4003C50.8669 17.9016 50.2205 19.3184 49.1307 20.3532C48.041 21.388 46.5927 21.9603 45.09 21.95L45.12 21.94ZM27 1.3C24.7783 1.30265 22.6483 2.18639 21.0774 3.75737C19.5064 5.32835 18.6226 7.4583 18.62 9.68C18.6178 10.122 18.6513 10.5634 18.72 11L18.23 11.74C17.1463 11.9838 16.1907 12.619 15.5464 13.5237C14.902 14.4285 14.6142 15.5392 14.7381 16.643C14.862 17.7469 15.3888 18.7661 16.2177 19.5056C17.0466 20.245 18.1192 20.6525 19.23 20.65H45.12C46.2616 20.5738 47.3316 20.0666 48.1133 19.2311C48.8949 18.3956 49.3298 17.2942 49.3298 16.15C49.3298 15.0058 48.8949 13.9044 48.1133 13.0689C47.3316 12.2334 46.2616 11.7261 45.12 11.65L44.43 11C44.3194 10.0894 43.9681 9.22466 43.4122 8.49495C42.8563 7.76525 42.116 7.19693 41.2674 6.84853C40.4188 6.50013 39.4926 6.38425 38.5844 6.51282C37.6761 6.64139 36.8185 7.00976 36.1 7.58L35.1 7.26C34.5679 5.52904 33.4932 4.01513 32.0346 2.94189C30.576 1.86865 28.8109 1.29301 27 1.3Z" fill="white"/>
<path d="M40.78 34.82H7.32999C5.69188 34.8148 4.11262 34.2087 2.89158 33.1167C1.67054 32.0247 0.892581 30.5227 0.705189 28.8953C0.517796 27.268 0.933991 25.6284 1.87488 24.2875C2.81576 22.9465 4.21594 21.9974 5.80999 21.62C5.71052 21.0083 5.66036 20.3897 5.65999 19.77C5.66671 16.9662 6.67926 14.2578 8.51359 12.1372C10.3479 10.0166 12.8822 8.62463 15.6559 8.21421C18.4295 7.8038 21.2584 8.40222 23.6282 9.9007C25.9981 11.3992 27.7516 13.6982 28.57 16.38C29.6232 15.5452 30.8806 15.0076 32.2118 14.8228C33.5429 14.638 34.8993 14.8129 36.14 15.3292C37.3808 15.8455 38.4608 16.6844 39.2679 17.759C40.075 18.8335 40.5798 20.1045 40.73 21.44H40.78C42.5543 21.44 44.2559 22.1448 45.5105 23.3995C46.7651 24.6541 47.47 26.3557 47.47 28.13C47.47 29.9043 46.7651 31.6059 45.5105 32.8605C44.2559 34.1152 42.5543 34.82 40.78 34.82Z" fill="#A0ADBF"/>
<path d="M40.78 35.47H7.32999C5.57968 35.4701 3.88695 34.8448 2.55712 33.7067C1.22728 32.5687 0.3479 30.9929 0.0775827 29.2636C-0.192735 27.5343 0.163811 25.7653 1.08291 24.2757C2.002 22.7861 3.42314 21.674 5.08999 21.14C4.89881 19.4131 5.07387 17.6653 5.60374 16.0106C6.13362 14.3559 7.00641 12.8315 8.16516 11.5368C9.32391 10.2422 10.7426 9.20642 12.3287 8.49706C13.9147 7.7877 15.6325 7.42069 17.37 7.42C19.8681 7.43294 22.3045 8.19708 24.3626 9.6131C26.4206 11.0291 28.0051 13.0315 28.91 15.36C30.2084 14.5393 31.7139 14.1057 33.25 14.11C35.1575 14.117 37.0022 14.7921 38.4637 16.0179C39.9252 17.2438 40.911 18.9429 41.25 20.82C43.1217 20.9864 44.8583 21.8644 46.1021 23.273C47.3458 24.6816 48.0019 26.5136 47.9353 28.3915C47.8686 30.2694 47.0842 32.0503 45.7438 33.3672C44.4033 34.6841 42.6088 35.4367 40.73 35.47H40.78ZM17.37 8.72C15.7716 8.72056 14.1923 9.06757 12.7409 9.73713C11.2895 10.4067 10.0004 11.3829 8.96256 12.5985C7.92468 13.8141 7.16262 15.2402 6.72886 16.7787C6.29511 18.3171 6.19997 19.9313 6.44999 21.51C6.47731 21.6725 6.44191 21.8393 6.35094 21.9766C6.25998 22.114 6.12024 22.2117 5.95999 22.25C4.39865 22.4548 2.98038 23.2651 2.0112 24.5062C1.04201 25.7473 0.599585 27.3197 0.779388 28.8841C0.95919 30.4486 1.7468 31.8796 2.97229 32.8685C4.19778 33.8573 5.76291 34.3248 7.32999 34.17H40.78C42.3819 34.17 43.9182 33.5336 45.0509 32.4009C46.1836 31.2682 46.82 29.7319 46.82 28.13C46.82 26.5281 46.1836 24.9918 45.0509 23.8591C43.9182 22.7264 42.3819 22.09 40.78 22.09C40.6134 22.0925 40.4513 22.0354 40.323 21.9291C40.1947 21.8228 40.1085 21.6742 40.08 21.51C39.9389 20.2954 39.4767 19.1402 38.7409 18.1636C38.0051 17.187 37.0223 16.4241 35.8937 15.9535C34.7651 15.4829 33.5314 15.3216 32.3197 15.4862C31.1081 15.6508 29.9622 16.1354 29 16.89C28.9173 16.9503 28.8216 16.9903 28.7206 17.0066C28.6196 17.023 28.5162 17.0152 28.4187 16.984C28.3212 16.9528 28.2325 16.8991 28.1598 16.8271C28.087 16.7552 28.0323 16.6671 28 16.57C27.2992 14.2976 25.889 12.3094 23.9761 10.8967C22.0631 9.48406 19.748 8.72122 17.37 8.72Z" fill="white"/>
</g>
<defs>
<clipPath id="clip0_7_407">
<rect width="50.93" height="35.47" fill="white"/>
</clipPath>
</defs>
</svg>
