<svg xmlns="http://www.w3.org/2000/svg" viewBox="0 0 39.51 14.08"><defs><style>.cls-1{fill:#65778b;}</style></defs><title>Recurso 46</title><g id="Capa_2" data-name="Capa 2"><g id="Capa_1-2" data-name="Capa 1"><path class="cls-1" d="M38.24,10.13H2.07A2.07,2.07,0,0,1,0,8.07V.64a.64.64,0,0,1,1.29,0V8.07a.78.78,0,0,0,.78.78H38.24a.64.64,0,1,1,0,1.29Z"/><path class="cls-1" d="M34.28,14.08A.64.64,0,0,1,33.86,13l4-3.52-4-3.52a.64.64,0,1,1,.85-1l4.58,4a.64.64,0,0,1,0,1l-4.58,4A.64.64,0,0,1,34.28,14.08Z"/></g></g></svg>