<svg xmlns="http://www.w3.org/2000/svg" viewBox="0 0 14.08 39.51"><defs><style>.cls-1{fill:#65778b;}</style></defs><title>Recurso 60</title><g id="Capa_2" data-name="Capa 2"><g id="Capa_1-2" data-name="Capa 1"><path class="cls-1" d="M4.59,38.88a.64.64,0,0,1-.64-.64V2.07A2.07,2.07,0,0,1,6,0h7.42a.64.64,0,1,1,0,1.29H6a.78.78,0,0,0-.78.78V38.24A.64.64,0,0,1,4.59,38.88Z"/><path class="cls-1" d="M4.59,6.71a.64.64,0,0,1-.64-.64A2.07,2.07,0,0,1,6,4h7.42a.64.64,0,1,1,0,1.29H6a.78.78,0,0,0-.78.78A.64.64,0,0,1,4.59,6.71Z"/><path class="cls-1" d="M4.59,10.71a.64.64,0,0,1-.64-.64A2.07,2.07,0,0,1,6,8h7.42a.64.64,0,1,1,0,1.29H6a.78.78,0,0,0-.78.78A.64.64,0,0,1,4.59,10.71Z"/><path class="cls-1" d="M4.64,39.51a.64.64,0,0,1-.48-.22l-4-4.58a.64.64,0,1,1,1-.85l3.52,4,3.52-4a.64.64,0,1,1,1,.85l-4,4.58A.64.64,0,0,1,4.64,39.51Z"/></g></g></svg>