<svg width="52" height="47" viewBox="0 0 52 47" fill="none" xmlns="http://www.w3.org/2000/svg">
<g clip-path="url(#clip0_7_496)">
<path d="M43.62 29.29H7.80998C6.05457 29.2879 4.3611 28.6411 3.05133 27.4723C1.74157 26.3036 0.906799 24.6944 0.705634 22.9505C0.504469 21.2067 0.950931 19.4497 1.96019 18.0134C2.96944 16.5772 4.47115 15.5617 6.17998 15.16C6.07267 14.4988 6.01916 13.8299 6.01998 13.16C6.02134 10.1531 7.104 7.24688 9.07032 4.97196C11.0366 2.69704 13.7555 1.2051 16.7306 0.768476C19.7057 0.331856 22.7385 0.979679 25.2756 2.59369C27.8127 4.2077 29.6847 6.68025 30.55 9.56001C31.6776 8.67061 33.0225 8.09867 34.4453 7.90337C35.8682 7.70808 37.3174 7.89651 38.643 8.44918C39.9686 9.00186 41.1224 9.89869 41.9851 11.0469C42.8479 12.1951 43.3881 13.553 43.55 14.98H43.6C45.4989 14.98 47.3201 15.7344 48.6629 17.0771C50.0056 18.4199 50.76 20.2411 50.76 22.14C50.76 24.039 50.0056 25.8601 48.6629 27.2029C47.3201 28.5457 45.4989 29.3 43.6 29.3L43.62 29.29Z" fill="#616D7E"/>
<path d="M43.62 29.94H7.80996C5.94356 29.9415 4.13834 29.2745 2.72124 28.0599C1.30414 26.8453 0.368857 25.1634 0.084785 23.3187C-0.199287 21.4741 0.186633 19.5887 1.17265 18.004C2.15867 16.4193 3.67959 15.2401 5.45996 14.68C5.40533 14.1819 5.37862 13.6811 5.37996 13.18C5.38531 10.0994 6.46961 7.11793 8.44452 4.7536C10.4194 2.38926 13.1601 0.791413 16.1906 0.237612C19.221 -0.316188 22.3498 0.209051 25.0332 1.72209C27.7167 3.23513 29.7854 5.64037 30.88 8.52C32.0869 7.75216 33.4644 7.29341 34.8907 7.18428C36.317 7.07515 37.7483 7.319 39.058 7.89429C40.3677 8.46957 41.5156 9.35858 42.4002 10.4828C43.2848 11.607 43.8789 12.9317 44.13 14.34C46.1439 14.4839 48.0239 15.4022 49.3754 16.9022C50.727 18.4022 51.4451 20.3673 51.3792 22.3853C51.3132 24.4033 50.4682 26.3174 49.0216 27.7259C47.5749 29.1344 45.639 29.9279 43.62 29.94ZM18.55 1.3C16.8324 1.30197 15.1356 1.67603 13.5764 2.39645C12.0172 3.11687 10.6327 4.16654 9.51792 5.47324C8.4032 6.77993 7.5848 8.31262 7.11905 9.96584C6.65331 11.6191 6.55127 13.3536 6.81996 15.05C6.84728 15.2125 6.81188 15.3793 6.72091 15.5166C6.62995 15.654 6.49021 15.7517 6.32996 15.79C4.77376 16.1528 3.40535 17.0753 2.48531 18.3817C1.56528 19.6882 1.15788 21.2874 1.34071 22.8749C1.52355 24.4623 2.28383 25.927 3.47679 26.9902C4.66974 28.0533 6.21203 28.6405 7.80996 28.64H43.62C45.2815 28.5478 46.8447 27.8228 47.9883 26.6139C49.132 25.4051 49.7693 23.8041 49.7693 22.14C49.7693 20.4759 49.132 18.8749 47.9883 17.6661C46.8447 16.4572 45.2815 15.7322 43.62 15.64C43.4539 15.6405 43.2929 15.5827 43.165 15.4767C43.0371 15.3707 42.9504 15.2233 42.92 15.06C42.7793 13.7381 42.2856 12.4784 41.4906 11.4129C40.6956 10.3474 39.6287 9.51544 38.4016 9.00415C37.1745 8.49285 35.8324 8.32108 34.5161 8.50685C33.1998 8.69262 31.9576 9.22908 30.92 10.06C30.8373 10.1203 30.7416 10.1603 30.6406 10.1766C30.5396 10.193 30.4361 10.1852 30.3387 10.154C30.2412 10.1229 30.1525 10.0691 30.0797 9.99715C30.007 9.92521 29.9522 9.8371 29.92 9.74C29.1649 7.30915 27.6564 5.18136 25.6125 3.66419C23.5687 2.14702 21.0953 1.31907 18.55 1.3Z" fill="white"/>
<path d="M18.6 45.91L18.35 45.58C18.12 45.22 18.23 44.77 18.48 44.2L23.48 32.8C23.5483 32.722 23.5901 32.6242 23.5994 32.5209C23.6087 32.4176 23.5849 32.314 23.5315 32.2251C23.4781 32.1361 23.3979 32.0664 23.3024 32.026C23.2069 31.9855 23.101 31.9764 23 32H18.34C18.0192 32.0221 17.6982 31.9616 17.4075 31.8243C17.1168 31.6869 16.8661 31.4773 16.6796 31.2155C16.493 30.9537 16.3766 30.6484 16.3417 30.3288C16.3068 30.0092 16.3544 29.686 16.48 29.39L20.82 16.86C21.0622 16.2361 21.4822 15.697 22.028 15.3095C22.5737 14.922 23.2211 14.7031 23.89 14.68H29.75C30.0658 14.6398 30.3866 14.6935 30.6721 14.8345C30.9576 14.9755 31.1952 15.1975 31.3552 15.4728C31.5153 15.748 31.5906 16.0644 31.5719 16.3822C31.5532 16.7001 31.4412 17.0054 31.25 17.26L26.61 25.45C26.47 25.7 26.46 25.87 26.5 25.94C26.54 26.01 26.69 26.09 26.98 26.09H33.45C33.759 26.026 34.0806 26.0691 34.3619 26.2121C34.6432 26.3552 34.8674 26.5897 34.9978 26.8771C35.1281 27.1645 35.1567 27.4877 35.079 27.7936C35.0012 28.0994 34.8217 28.3697 34.57 28.56L20 45.19C19.55 45.71 19.24 45.91 18.91 45.91H18.6Z" fill="#F39424"/>
<path d="M29.7399 15.35C30.7399 15.35 31.1799 16.07 30.6699 16.96L25.9999 25.14C25.4999 26.02 25.9199 26.75 26.9399 26.75H33.4099C34.4099 26.75 34.7099 27.38 34.0399 28.14L19.5499 44.76C19.2599 45.09 19.0499 45.26 18.9499 45.26C18.8499 45.26 18.8499 44.99 19.0799 44.46L24.0799 33.06C24.1872 32.8813 24.2424 32.6763 24.2395 32.4679C24.2366 32.2595 24.1756 32.0561 24.0634 31.8805C23.9512 31.7049 23.7922 31.5641 23.6043 31.4739C23.4164 31.3837 23.2071 31.3477 22.9999 31.37H18.3399C18.1227 31.3928 17.9034 31.3574 17.7044 31.2674C17.5055 31.1774 17.3341 31.036 17.2078 30.8578C17.0816 30.6797 17.005 30.4711 16.9861 30.2536C16.9671 30.036 17.0064 29.8173 17.0999 29.62L21.4399 17.09C21.6371 16.5938 21.973 16.165 22.4075 15.8546C22.842 15.5443 23.3566 15.3656 23.8899 15.34H29.7499M29.7499 14.04H23.8799C23.0757 14.0618 22.2961 14.3226 21.6407 14.7893C20.9853 15.2559 20.4837 15.9072 20.1999 16.66L15.8699 29.2C15.7118 29.5936 15.6552 30.0205 15.7053 30.4417C15.7554 30.8628 15.9105 31.2646 16.1565 31.6101C16.4024 31.9556 16.7313 32.2338 17.1128 32.419C17.4943 32.6042 17.9163 32.6905 18.3399 32.67H22.8199L17.8899 43.94C17.7094 44.2397 17.6075 44.5802 17.5935 44.9297C17.5795 45.2793 17.654 45.6268 17.8099 45.94C17.9348 46.1309 18.1054 46.2876 18.3062 46.3959C18.5071 46.5042 18.7318 46.5606 18.9599 46.56C19.2758 46.5279 19.5809 46.4271 19.8539 46.2647C20.1268 46.1023 20.3609 45.8823 20.5399 45.62L34.9999 29C35.3595 28.7254 35.6154 28.3371 35.7258 27.8983C35.8362 27.4595 35.7946 26.9963 35.6077 26.5843C35.4208 26.1722 35.0998 25.8357 34.697 25.6297C34.2941 25.4237 33.8334 25.3603 33.3899 25.45H27.3499L31.7999 17.6C32.0593 17.246 32.2105 16.8243 32.2352 16.3861C32.2599 15.9479 32.157 15.512 31.939 15.131C31.721 14.7501 31.3973 14.4405 31.007 14.2398C30.6167 14.039 30.1766 13.9558 29.7399 14L29.7499 14.04Z" fill="white"/>
</g>
<defs>
<clipPath id="clip0_7_496">
<rect width="51.43" height="46.56" fill="white"/>
</clipPath>
</defs>
</svg>
