<svg xmlns="http://www.w3.org/2000/svg" viewBox="0 0 39.51 23.58"><defs><style>.cls-1{fill:#65778b;}</style></defs><title>Recurso 67</title><g id="Capa_2" data-name="Capa 2"><g id="Capa_1-2" data-name="Capa 1"><path class="cls-1" d="M38.24,19.63H2.07A2.07,2.07,0,0,1,0,17.57V10.14a.64.64,0,0,1,1.29,0v7.42a.78.78,0,0,0,.78.78H38.24a.64.64,0,1,1,0,1.29Z"/><path class="cls-1" d="M34.28,23.58a.64.64,0,0,1-.42-1.13l4-3.52-4-3.52a.64.64,0,1,1,.85-1l4.58,4a.64.64,0,0,1,0,1l-4.58,4A.64.64,0,0,1,34.28,23.58Z"/><path class="cls-1" d="M38.86,14.08a.64.64,0,0,1-.64-.64V6a.78.78,0,0,0-.78-.78H1.27a.64.64,0,1,1,0-1.29H37.44A2.07,2.07,0,0,1,39.51,6v7.42A.64.64,0,0,1,38.86,14.08Z"/><path class="cls-1" d="M5.23,9.29a.64.64,0,0,1-.42-.16l-4.58-4a.64.64,0,0,1,0-1L4.8.16a.64.64,0,0,1,.85,1l-4,3.52,4,3.52a.64.64,0,0,1-.42,1.13Z"/></g></g></svg>