<svg width="51" height="36" viewBox="0 0 51 36" fill="none" xmlns="http://www.w3.org/2000/svg">
<g clip-path="url(#clip0_7_421)">
<path d="M44.88 21.18H19.2C17.9348 21.1932 16.7093 20.7384 15.759 19.9029C14.8088 19.0675 14.2008 17.9103 14.052 16.6538C13.9031 15.3972 14.2239 14.13 14.9526 13.0957C15.6814 12.0613 16.7667 11.3327 18 11.05C17.9254 10.5804 17.8886 10.1055 17.89 9.62999C17.8797 7.46594 18.6495 5.37063 20.0584 3.72798C21.4673 2.08533 23.4209 1.00533 25.5613 0.685852C27.7016 0.366376 29.8854 0.828819 31.7126 1.98845C33.5398 3.14809 34.8879 4.92726 35.51 6.99999C36.3182 6.36039 37.2827 5.94852 38.3036 5.80706C39.3245 5.6656 40.3647 5.79969 41.3164 6.19545C42.268 6.59121 43.0965 7.23423 43.7161 8.0579C44.3356 8.88157 44.7237 9.85591 44.84 10.88C46.2019 10.88 47.508 11.421 48.471 12.384C49.434 13.347 49.975 14.6531 49.975 16.015C49.975 17.3769 49.434 18.683 48.471 19.646C47.508 20.609 46.2019 21.15 44.84 21.15L44.88 21.18Z" fill="#A0ADBF"/>
<path d="M44.88 21.83H19.2C17.8378 21.8191 16.5231 21.3283 15.4871 20.4439C14.451 19.5595 13.76 18.3381 13.5354 16.9945C13.3109 15.651 13.5673 14.2712 14.2595 13.098C14.9517 11.9248 16.0354 11.0332 17.32 10.58C17.32 10.27 17.32 9.95 17.32 9.63C17.3364 7.40973 18.1196 5.26336 19.5369 3.55424C20.9542 1.84511 22.9186 0.678249 25.0974 0.251182C27.2763 -0.175886 29.5358 0.163082 31.4935 1.2107C33.4511 2.25832 34.9866 3.95023 35.84 6C36.7231 5.48108 37.7175 5.18066 38.7402 5.12376C39.7629 5.06685 40.7845 5.2551 41.7197 5.67284C42.655 6.09058 43.4769 6.72571 44.1171 7.52535C44.7572 8.32499 45.1971 9.26599 45.4 10.27C46.8899 10.3938 48.2739 11.0901 49.2613 12.2127C50.2488 13.3353 50.7628 14.7968 50.6955 16.2903C50.6282 17.7839 49.9848 19.1932 48.9004 20.2225C47.816 21.2517 46.375 21.8207 44.88 21.81V21.83ZM26.91 1.3C25.7045 1.30094 24.5136 1.56319 23.4192 2.06868C22.3248 2.57418 21.3531 3.31091 20.5708 4.22812C19.7886 5.14533 19.2145 6.22121 18.888 7.38165C18.5616 8.54208 18.4906 9.75949 18.68 10.95C18.7073 11.1125 18.6719 11.2793 18.5809 11.4166C18.49 11.554 18.3502 11.6517 18.19 11.69C17.1137 11.933 16.1649 12.5646 15.5255 13.4638C14.8861 14.3631 14.601 15.4666 14.7249 16.563C14.8488 17.6594 15.3729 18.6716 16.1969 19.4054C17.0208 20.1393 18.0866 20.5433 19.19 20.54H44.88C46.0735 20.54 47.2181 20.0659 48.062 19.222C48.9059 18.3781 49.38 17.2335 49.38 16.04C49.38 14.8465 48.9059 13.7019 48.062 12.858C47.2181 12.0141 46.0735 11.54 44.88 11.54C44.7163 11.5397 44.558 11.4812 44.4334 11.375C44.3088 11.2687 44.2261 11.1216 44.2 10.96C44.0961 10.0515 43.7513 9.18735 43.2012 8.45691C42.6511 7.72648 41.9158 7.15634 41.0714 6.80552C40.227 6.4547 39.3042 6.33595 38.3984 6.46157C37.4927 6.58719 36.637 6.95261 35.92 7.52C35.8373 7.58032 35.7416 7.62028 35.6406 7.63662C35.5396 7.65296 35.4362 7.64522 35.3387 7.61404C35.2412 7.58285 35.1525 7.5291 35.0798 7.45715C35.007 7.38521 34.9523 7.2971 34.92 7.2C34.3888 5.49078 33.3249 3.99623 31.8838 2.93473C30.4427 1.87324 28.6998 1.30043 26.91 1.3Z" fill="white"/>
<path d="M40.57 34.63H7.3C5.66423 34.6364 4.08347 34.0398 2.85995 32.954C1.63644 31.8683 0.856024 30.3697 0.667913 28.7448C0.479802 27.1199 0.897198 25.4826 1.84029 24.1461C2.78339 22.8095 4.18602 21.8675 5.78 21.5C5.68416 20.8914 5.63734 20.2761 5.64 19.66C5.6356 16.8639 6.63784 14.1597 8.46345 12.0418C10.2891 9.92393 12.816 8.53399 15.5822 8.12616C18.3484 7.71833 21.169 8.31986 23.5281 9.82076C25.8872 11.3217 27.6273 13.6216 28.43 16.3C29.4754 15.4719 30.723 14.9379 32.0438 14.7532C33.3647 14.5686 34.7108 14.74 35.9433 15.2497C37.1757 15.7594 38.2497 16.5889 39.0543 17.6525C39.8589 18.7162 40.3649 19.9754 40.52 21.3C42.2837 21.3 43.9751 22.0006 45.2223 23.2477C46.4694 24.4949 47.17 26.1863 47.17 27.95C47.17 29.7137 46.4694 31.4051 45.2223 32.6523C43.9751 33.8994 42.2837 34.6 40.52 34.6L40.57 34.63Z" fill="#616D7E"/>
<path d="M40.57 35.28H7.29999C5.54212 35.3052 3.83419 34.6952 2.49004 33.5621C1.14589 32.429 0.255818 30.8488 -0.0166228 29.112C-0.289064 27.3752 0.0744303 25.5984 1.00707 24.1081C1.9397 22.6179 3.37882 21.5142 5.05999 21C5.01639 20.558 4.99636 20.1141 4.99999 19.67C4.99715 16.7965 6.00131 14.0128 7.83792 11.8028C9.67453 9.59278 12.2275 8.0962 15.053 7.57318C17.8786 7.05015 20.798 7.53374 23.304 8.93989C25.81 10.346 27.744 12.5858 28.77 15.27C29.8955 14.5685 31.1754 14.1527 32.4983 14.0587C33.8212 13.9647 35.1471 14.1953 36.3605 14.7306C37.5739 15.2658 38.6382 16.0895 39.4608 17.1298C40.2833 18.1702 40.8391 19.3958 41.08 20.7C42.9625 20.8395 44.7177 21.7028 45.9773 23.1087C47.2369 24.5146 47.903 26.3538 47.8357 28.2402C47.7684 30.1266 46.973 31.9137 45.6165 33.2263C44.2599 34.5388 42.4476 35.2749 40.56 35.28H40.57ZM17.28 8.67999C15.6912 8.68212 14.1218 9.02837 12.6796 9.69495C11.2374 10.3615 9.95676 11.3326 8.9257 12.5413C7.89464 13.7501 7.13766 15.1679 6.70683 16.6971C6.27601 18.2264 6.18156 19.8308 6.42999 21.4C6.45731 21.5625 6.4219 21.7293 6.33094 21.8666C6.23998 22.004 6.10024 22.1017 5.93999 22.14C4.48893 22.4585 3.20766 23.3041 2.34415 24.5129C1.48064 25.7218 1.09632 27.2081 1.26557 28.684C1.43481 30.1599 2.14559 31.5206 3.26033 32.5026C4.37507 33.4846 5.81449 34.0182 7.29999 34H40.57C42.1613 34 43.6874 33.3679 44.8126 32.2426C45.9378 31.1174 46.57 29.5913 46.57 28C46.57 26.4087 45.9378 24.8826 44.8126 23.7574C43.6874 22.6321 42.1613 22 40.57 22C40.4034 22.0025 40.2413 21.9454 40.113 21.8391C39.9847 21.7328 39.8985 21.5842 39.87 21.42C39.7276 20.2154 39.2674 19.0703 38.5366 18.1022C37.8058 17.134 36.8308 16.3776 35.7113 15.9105C34.5919 15.4434 33.3683 15.2824 32.1661 15.4439C30.964 15.6055 29.8264 16.0839 28.87 16.83C28.7873 16.8903 28.6916 16.9303 28.5906 16.9466C28.4896 16.963 28.3861 16.9552 28.2887 16.924C28.1912 16.8928 28.1025 16.8391 28.0298 16.7671C27.957 16.6952 27.9023 16.6071 27.87 16.51C27.1774 14.242 25.7743 12.2567 23.8675 10.8468C21.9608 9.43703 19.6513 8.67739 17.28 8.67999Z" fill="white"/>
</g>
<defs>
<clipPath id="clip0_7_421">
<rect width="50.66" height="35.28" fill="white"/>
</clipPath>
</defs>
</svg>
