<svg width="52" height="41" viewBox="0 0 52 41" fill="none" xmlns="http://www.w3.org/2000/svg">
<g clip-path="url(#clip0_7_591)">
<path d="M18.33 40.6C18.0807 40.6 17.8416 40.501 17.6653 40.3247C17.4891 40.1484 17.39 39.9093 17.39 39.66V33.66C17.414 33.4287 17.5228 33.2145 17.6955 33.0588C17.8682 32.903 18.0925 32.8168 18.325 32.8168C18.5576 32.8168 18.7818 32.903 18.9545 33.0588C19.1272 33.2145 19.2361 33.4287 19.26 33.66V39.66C19.26 39.9076 19.1624 40.1452 18.9882 40.3212C18.8141 40.4972 18.5776 40.5974 18.33 40.6Z" fill="#61C3D7"/>
<path d="M15.76 39.11C15.5543 39.1085 15.3549 39.0396 15.1921 38.9138C15.0294 38.7881 14.9124 38.6125 14.8591 38.4139C14.8057 38.2152 14.819 38.0046 14.8968 37.8143C14.9747 37.6239 15.1128 37.4644 15.29 37.36L20.45 34.36C20.5566 34.2851 20.6776 34.2332 20.8054 34.2076C20.9331 34.182 21.0648 34.1832 21.192 34.2112C21.3193 34.2391 21.4393 34.2932 21.5446 34.3701C21.6498 34.4469 21.7379 34.5448 21.8033 34.6575C21.8687 34.7702 21.9099 34.8952 21.9244 35.0247C21.9389 35.1542 21.9263 35.2853 21.8875 35.4096C21.8486 35.534 21.7843 35.6489 21.6987 35.7471C21.613 35.8453 21.5079 35.9246 21.39 35.98L16.23 38.98C16.0877 39.0644 15.9254 39.1093 15.76 39.11Z" fill="#61C3D7"/>
<path d="M20.91 39.11C20.7446 39.1093 20.5823 39.0644 20.44 38.98L15.28 35.98C15.1621 35.9246 15.057 35.8453 14.9713 35.7471C14.8857 35.6489 14.8214 35.534 14.7825 35.4096C14.7437 35.2853 14.7311 35.1542 14.7456 35.0247C14.7601 34.8952 14.8013 34.7702 14.8667 34.6575C14.9321 34.5448 15.0202 34.4469 15.1254 34.3701C15.2306 34.2932 15.3507 34.2391 15.4779 34.2112C15.6052 34.1832 15.7369 34.182 15.8646 34.2076C15.9924 34.2332 16.1134 34.2851 16.22 34.36L21.38 37.36C21.5572 37.4644 21.6953 37.6239 21.7732 37.8143C21.851 38.0046 21.8643 38.2152 21.8109 38.4139C21.7576 38.6125 21.6406 38.7881 21.4779 38.9138C21.3151 39.0396 21.1157 39.1085 20.91 39.11Z" fill="#61C3D7"/>
<path d="M33.13 40.6C32.8807 40.6 32.6416 40.501 32.4653 40.3247C32.289 40.1484 32.19 39.9093 32.19 39.66V33.66C32.214 33.4287 32.3228 33.2145 32.4955 33.0588C32.6682 32.903 32.8925 32.8168 33.125 32.8168C33.3575 32.8168 33.5818 32.903 33.7545 33.0588C33.9272 33.2145 34.0361 33.4287 34.06 33.66V39.66C34.06 39.9076 33.9624 40.1452 33.7882 40.3212C33.6141 40.4972 33.3776 40.5974 33.13 40.6Z" fill="#61C3D7"/>
<path d="M30.56 39.11C30.3544 39.1085 30.1549 39.0396 29.9922 38.9138C29.8295 38.7881 29.7125 38.6125 29.6591 38.4139C29.6058 38.2152 29.619 38.0046 29.6969 37.8143C29.7747 37.6239 29.9128 37.4644 30.09 37.36L35.25 34.36C35.3566 34.2851 35.4777 34.2332 35.6054 34.2076C35.7332 34.182 35.8648 34.1832 35.9921 34.2112C36.1193 34.2391 36.2394 34.2932 36.3446 34.3701C36.4498 34.4469 36.5379 34.5448 36.6033 34.6575C36.6687 34.7702 36.71 34.8952 36.7245 35.0247C36.739 35.1542 36.7264 35.2853 36.6875 35.4096C36.6486 35.534 36.5843 35.6489 36.4987 35.7471C36.4131 35.8453 36.3079 35.9246 36.19 35.98L31.03 38.98C30.8877 39.0644 30.7255 39.1093 30.56 39.11Z" fill="#61C3D7"/>
<path d="M35.71 39.11C35.5446 39.1092 35.3823 39.0644 35.24 38.98L30.08 35.98C29.9489 35.935 29.8294 35.8616 29.73 35.765C29.6305 35.6685 29.5537 35.5511 29.505 35.4213C29.4562 35.2916 29.4368 35.1527 29.448 35.0145C29.4593 34.8764 29.501 34.7424 29.5701 34.6223C29.6391 34.5021 29.734 34.3987 29.8477 34.3195C29.9614 34.2403 30.0913 34.1872 30.2279 34.164C30.3646 34.1409 30.5047 34.1482 30.6382 34.1856C30.7716 34.2229 30.8952 34.2893 31 34.38L36.16 37.38C36.3372 37.4843 36.4753 37.6439 36.5532 37.8342C36.631 38.0246 36.6443 38.2352 36.5909 38.4338C36.5376 38.6324 36.4206 38.8081 36.2579 38.9338C36.0951 39.0596 35.8957 39.1285 35.69 39.13L35.71 39.11Z" fill="#61C3D7"/>
<path d="M43.66 29.82H7.80998C6.05212 29.8176 4.35638 29.1696 3.04497 27.999C1.73357 26.8284 0.897883 25.2168 0.696718 23.4705C0.495553 21.7242 0.942922 19.9648 1.95382 18.5267C2.96472 17.0886 4.4687 16.072 6.17998 15.67C6.07271 15.0088 6.0192 14.3399 6.01998 13.67C6.0112 10.6539 7.08978 7.73567 9.05802 5.45027C11.0262 3.16487 13.7522 1.66543 16.7363 1.22681C19.7204 0.788196 22.7625 1.43979 25.3052 3.06215C27.8478 4.68451 29.7205 7.16894 30.58 10.06C31.7089 9.16485 33.0572 8.58867 34.4844 8.39145C35.9116 8.19423 37.3656 8.38318 38.695 8.93863C40.0244 9.49407 41.1806 10.3957 42.0432 11.5497C42.9059 12.7036 43.4435 14.0678 43.6 15.5H43.65C45.5039 15.5693 47.2589 16.3545 48.546 17.6906C49.8331 19.0267 50.5523 20.8098 50.5523 22.665C50.5523 24.5203 49.8331 26.3033 48.546 27.6394C47.2589 28.9755 45.5039 29.7607 43.65 29.83L43.66 29.82Z" fill="#A0ADBF"/>
<path d="M43.66 30.5H7.81C5.92378 30.5252 4.09201 29.8678 2.65234 28.6489C1.21266 27.4299 0.262118 25.7317 -0.0240797 23.8671C-0.310278 22.0026 0.0871588 20.0974 1.09497 18.5028C2.10279 16.9082 3.65304 15.7316 5.46 15.19C5.25019 13.3432 5.43278 11.4729 5.99581 9.70149C6.55884 7.93011 7.48963 6.29762 8.72723 4.91086C9.96484 3.52409 11.4814 2.41434 13.1775 1.65423C14.8737 0.894118 16.7113 0.500794 18.57 0.5C21.2466 0.513774 23.8567 1.33546 26.0586 2.85747C28.2604 4.37948 29.9513 6.53089 30.91 9.03C32.1184 8.26241 33.4973 7.80416 34.9248 7.69571C36.3523 7.58725 37.7845 7.83192 39.095 8.40812C40.4056 8.98432 41.5541 9.87433 42.4392 10.9996C43.3243 12.1248 43.9187 13.4506 44.17 14.86C46.244 14.9276 48.2062 15.8164 49.6249 17.3307C51.0436 18.8451 51.8026 20.861 51.735 22.935C51.6674 25.009 50.7786 26.9712 49.2643 28.3899C47.7499 29.8086 45.734 30.5676 43.66 30.5ZM18.57 1.8C16.8493 1.80031 15.1491 2.17378 13.5867 2.89467C12.0243 3.61555 10.6368 4.66669 9.51985 5.97563C8.40292 7.28457 7.58315 8.82016 7.11705 10.4765C6.65095 12.1329 6.5496 13.8707 6.82 15.57C6.84732 15.7325 6.81191 15.8993 6.72095 16.0366C6.62999 16.174 6.49025 16.2717 6.33 16.31C4.78086 16.6816 3.42139 17.6075 2.50825 18.913C1.59512 20.2184 1.19152 21.8129 1.37366 23.3956C1.5558 24.9782 2.31107 26.4394 3.49687 27.5032C4.68267 28.5671 6.21694 29.16 7.81 29.17H43.66C45.2958 29.0416 46.8231 28.3011 47.9371 27.0962C49.051 25.8914 49.6697 24.3109 49.6697 22.67C49.6697 21.0291 49.051 19.4486 47.9371 18.2438C46.8231 17.0389 45.2958 16.2984 43.66 16.17C43.4939 16.1705 43.3329 16.1127 43.205 16.0067C43.0771 15.9007 42.9904 15.7533 42.96 15.59C42.8193 14.2681 42.3256 13.0084 41.5306 11.9429C40.7357 10.8774 39.6687 10.0454 38.4416 9.53414C37.2145 9.02285 35.8724 8.85108 34.5561 9.03685C33.2398 9.22262 31.9977 9.75908 30.96 10.59C30.8773 10.6503 30.7816 10.6903 30.6806 10.7066C30.5796 10.723 30.4762 10.7152 30.3787 10.684C30.2812 10.6528 30.1925 10.5991 30.1198 10.5272C30.047 10.4552 29.9923 10.3671 29.96 10.27C29.2092 7.83031 27.6999 5.69361 25.6516 4.1704C23.6032 2.64719 21.1226 1.81683 18.57 1.8Z" fill="white"/>
</g>
<defs>
<clipPath id="clip0_7_591">
<rect width="51.47" height="40.1" fill="white" transform="translate(0 0.5)"/>
</clipPath>
</defs>
</svg>
