<svg width="52" height="59" viewBox="0 0 52 59" fill="none" xmlns="http://www.w3.org/2000/svg">
<g clip-path="url(#clip0_2_207)">
<path d="M32.3419 1L35.2422 4.75801L39.4343 2.4939L40.5415 7.09602L45.3004 6.7173L44.4229 11.3678L48.9258 12.94L46.2154 16.8347L49.6838 20.0858L45.6091 22.5514L47.4431 26.9194L42.7087 27.5294L42.5914 32.2591L38.0158 30.9082L35.9673 35.1816L32.3419 32.1033L28.7165 35.1816L26.668 30.9082L22.0924 32.2591L21.9751 27.5294L17.2406 26.9194L19.0747 22.5514L15 20.0858L18.4684 16.8347L15.7579 12.94L20.2609 11.3678L19.3834 6.7173L24.1423 7.09602L25.2495 2.4939L29.4416 4.75801L32.3419 1Z" fill="#FFB700"/>
<path d="M32.7014 28.2771C38.4387 28.2771 43.0897 23.6261 43.0897 17.8889C43.0897 12.1516 38.4387 7.50061 32.7014 7.50061C26.9641 7.50061 22.3132 12.1516 22.3132 17.8889C22.3132 23.6261 26.9641 28.2771 32.7014 28.2771Z" fill="#FECE55"/>
<path d="M7.91001 53.79C7.72992 53.7891 7.55343 53.7395 7.39917 53.6466C7.24491 53.5537 7.11861 53.4208 7.0336 53.2621C6.94858 53.1033 6.90802 52.9246 6.91619 52.7447C6.92436 52.5648 6.98096 52.3904 7.08001 52.24L10.89 46.5C10.9629 46.3904 11.0567 46.2961 11.166 46.2227C11.2753 46.1493 11.3979 46.0981 11.527 46.0721C11.6561 46.0461 11.789 46.0458 11.9182 46.0712C12.0474 46.0965 12.1704 46.1471 12.28 46.22C12.3897 46.2929 12.4839 46.3867 12.5573 46.496C12.6307 46.6053 12.6819 46.7279 12.7079 46.857C12.7339 46.9861 12.7342 47.119 12.7088 47.2482C12.6835 47.3774 12.6329 47.5004 12.56 47.61L8.74001 53.35C8.64828 53.4857 8.52461 53.5968 8.37989 53.6735C8.23516 53.7503 8.07381 53.7903 7.91001 53.79Z" fill="#61C3D7"/>
<path d="M11 58.77C10.8199 58.7691 10.6434 58.7195 10.4892 58.6266C10.3349 58.5337 10.2086 58.4008 10.1236 58.2421C10.0386 58.0833 9.99802 57.9046 10.0062 57.7247C10.0144 57.5448 10.071 57.3704 10.17 57.22L17.26 46.5C17.3329 46.3904 17.4267 46.2961 17.536 46.2227C17.6452 46.1493 17.7679 46.0981 17.897 46.0721C18.0261 46.0461 18.159 46.0458 18.2882 46.0712C18.4174 46.0965 18.5403 46.1471 18.65 46.22C18.7597 46.2929 18.8539 46.3867 18.9273 46.496C19.0007 46.6053 19.0519 46.7279 19.0779 46.857C19.1039 46.9861 19.1042 47.119 19.0788 47.2482C19.0535 47.3774 19.0029 47.5004 18.93 47.61L11.82 58.32C11.7304 58.4562 11.6088 58.5684 11.4659 58.6468C11.3229 58.7252 11.163 58.7675 11 58.77Z" fill="#61C3D7"/>
<path d="M20.67 53.79C20.4899 53.7891 20.3134 53.7395 20.1592 53.6466C20.0049 53.5537 19.8786 53.4208 19.7936 53.2621C19.7086 53.1033 19.668 52.9246 19.6762 52.7447C19.6844 52.5648 19.741 52.3904 19.84 52.24L23.65 46.5C23.7229 46.3904 23.8167 46.2961 23.926 46.2227C24.0353 46.1493 24.158 46.0981 24.287 46.0721C24.4161 46.0461 24.549 46.0458 24.6782 46.0712C24.8074 46.0965 24.9304 46.1471 25.04 46.22C25.1497 46.2929 25.2439 46.3867 25.3173 46.496C25.3907 46.6053 25.4419 46.7279 25.4679 46.857C25.4939 46.9861 25.4942 47.119 25.4688 47.2482C25.4435 47.3774 25.3929 47.5004 25.32 47.61L21.5 53.35C21.4083 53.4857 21.2846 53.5968 21.1399 53.6735C20.9952 53.7503 20.8338 53.7903 20.67 53.79Z" fill="#61C3D7"/>
<path d="M23.75 58.77C23.5699 58.7691 23.3934 58.7195 23.2392 58.6266C23.0849 58.5337 22.9586 58.4008 22.8736 58.2421C22.7886 58.0833 22.748 57.9046 22.7562 57.7247C22.7644 57.5448 22.821 57.3704 22.92 57.22L30 46.5C30.0729 46.3904 30.1667 46.2961 30.276 46.2227C30.3852 46.1493 30.5079 46.0981 30.637 46.0721C30.7661 46.0461 30.899 46.0458 31.0282 46.0712C31.1574 46.0965 31.2803 46.1471 31.39 46.22C31.4997 46.2929 31.5939 46.3867 31.6673 46.496C31.7407 46.6053 31.7919 46.7279 31.8179 46.857C31.8439 46.9861 31.8442 47.119 31.8188 47.2482C31.7935 47.3774 31.7429 47.5004 31.67 47.61L24.58 58.32C24.4894 58.4576 24.3662 58.5706 24.2215 58.6491C24.0767 58.7276 23.9147 58.7692 23.75 58.77Z" fill="#61C3D7"/>
<path d="M33.42 53.79C33.2399 53.7891 33.0634 53.7395 32.9092 53.6466C32.7549 53.5537 32.6286 53.4208 32.5436 53.2621C32.4586 53.1033 32.418 52.9246 32.4262 52.7447C32.4344 52.5648 32.491 52.3904 32.59 52.24L36.4 46.5C36.4729 46.3904 36.5667 46.2961 36.676 46.2227C36.7853 46.1493 36.908 46.0981 37.037 46.0721C37.1661 46.0461 37.299 46.0458 37.4282 46.0712C37.5574 46.0965 37.6804 46.1471 37.79 46.22C37.8997 46.2929 37.9939 46.3867 38.0673 46.496C38.1407 46.6053 38.1919 46.7279 38.2179 46.857C38.2439 46.9861 38.2442 47.119 38.2188 47.2482C38.1935 47.3774 38.1429 47.5004 38.07 47.61L34.26 53.35C34.1673 53.4871 34.0421 53.5991 33.8955 53.6759C33.7489 53.7527 33.5855 53.7919 33.42 53.79Z" fill="#61C3D7"/>
<path d="M36.5 58.77C36.3199 58.7691 36.1434 58.7195 35.9892 58.6266C35.8349 58.5337 35.7086 58.4008 35.6236 58.2421C35.5386 58.0833 35.498 57.9046 35.5062 57.7247C35.5144 57.5448 35.571 57.3704 35.67 57.22L42.78 46.5C42.8529 46.3904 42.9467 46.2961 43.056 46.2227C43.1653 46.1493 43.2879 46.0981 43.417 46.0721C43.5461 46.0461 43.679 46.0458 43.8082 46.0712C43.9374 46.0965 44.0603 46.1471 44.17 46.22C44.2797 46.2929 44.3739 46.3867 44.4473 46.496C44.5207 46.6053 44.5719 46.7279 44.5979 46.857C44.6239 46.9861 44.6242 47.119 44.5988 47.2482C44.5735 47.3774 44.5229 47.5004 44.45 47.61L37.34 58.32C37.2485 58.459 37.1237 58.5729 36.9771 58.6515C36.8304 58.7301 36.6664 58.7708 36.5 58.77Z" fill="#61C3D7"/>
<path d="M33.3 36C33.0136 36 32.7389 35.8862 32.5363 35.6837C32.3338 35.4811 32.22 35.2064 32.22 34.92V30.08C32.22 29.7922 32.3343 29.5163 32.5378 29.3128C32.7413 29.1093 33.0172 28.995 33.305 28.995C33.5928 28.995 33.8687 29.1093 34.0722 29.3128C34.2757 29.5163 34.39 29.7922 34.39 30.08V34.87C34.3968 35.0168 34.3736 35.1635 34.3217 35.301C34.2699 35.4386 34.1905 35.5641 34.0885 35.6698C33.9864 35.7756 33.8639 35.8595 33.7283 35.9162C33.5927 35.973 33.447 36.0015 33.3 36Z" fill="#FECE55"/>
<path d="M21.2 19.06H16.4C16.2575 19.06 16.1164 19.0319 15.9848 18.9774C15.8532 18.9229 15.7335 18.843 15.6328 18.7422C15.532 18.6415 15.4521 18.5218 15.3976 18.3902C15.3431 18.2586 15.315 18.1175 15.315 17.975C15.315 17.8325 15.3431 17.6914 15.3976 17.5598C15.4521 17.4281 15.532 17.3085 15.6328 17.2078C15.7335 17.107 15.8532 17.0271 15.9848 16.9726C16.1164 16.9181 16.2575 16.89 16.4 16.89H21.2C21.4878 16.89 21.7637 17.0043 21.9672 17.2078C22.1707 17.4113 22.285 17.6872 22.285 17.975C22.285 18.2628 22.1707 18.5387 21.9672 18.7422C21.7637 18.9457 21.4878 19.06 21.2 19.06Z" fill="#FECE55"/>
<path d="M21.35 31C21.1346 31.0025 20.9233 30.9406 20.7433 30.8221C20.5634 30.7036 20.4229 30.534 20.3402 30.3351C20.2574 30.1362 20.236 29.917 20.2787 29.7058C20.3214 29.4946 20.4264 29.3011 20.58 29.15L24 25.77C24.2029 25.5671 24.4781 25.4531 24.765 25.4531C25.0519 25.4531 25.3271 25.5671 25.53 25.77C25.7329 25.9729 25.8469 26.2481 25.8469 26.535C25.8469 26.8219 25.7329 27.0971 25.53 27.3L22.14 30.69C22.0361 30.7923 21.9125 30.8726 21.7767 30.9258C21.641 30.9791 21.4958 31.0043 21.35 31Z" fill="#FECE55"/>
<path d="M45.25 31C45.1069 31.0004 44.9651 30.9722 44.8329 30.9173C44.7007 30.8624 44.5807 30.7817 44.48 30.68L41.09 27.3C40.9895 27.1995 40.9099 27.0803 40.8555 26.949C40.8011 26.8178 40.7731 26.6771 40.7731 26.535C40.7731 26.3929 40.8011 26.2522 40.8555 26.121C40.9099 25.9897 40.9895 25.8705 41.09 25.77C41.1905 25.6695 41.3097 25.5898 41.441 25.5355C41.5722 25.4811 41.7129 25.4531 41.855 25.4531C41.9971 25.4531 42.1378 25.4811 42.269 25.5355C42.4003 25.5898 42.5195 25.6695 42.62 25.77L46 29.16C46.149 29.3104 46.2505 29.5013 46.2919 29.7089C46.3334 29.9165 46.3128 30.1317 46.2329 30.3278C46.153 30.5238 46.0172 30.6921 45.8425 30.8116C45.6677 30.9311 45.4617 30.9966 45.25 31Z" fill="#FECE55"/>
<path d="M43.7 40.43H7.82002C6.0597 40.4274 4.3617 39.7781 3.04865 38.6057C1.7356 37.4333 0.899008 35.8193 0.697842 34.0705C0.496676 32.3218 0.944954 30.56 1.9575 29.12C2.97004 27.6801 4.47628 26.6623 6.19002 26.26C6.08279 25.5988 6.02928 24.9299 6.03002 24.26C6.03318 21.2491 7.11785 18.3395 9.08642 16.0613C11.055 13.7831 13.7764 12.2879 16.755 11.848C19.7336 11.4081 22.7711 12.0529 25.3142 13.6648C27.8573 15.2767 29.7367 17.7486 30.61 20.63C31.7393 19.7437 33.0846 19.1746 34.5072 18.9816C35.9298 18.7885 37.3781 18.9784 38.7028 19.5318C40.0275 20.0851 41.1806 20.9817 42.0432 22.1293C42.9058 23.2768 43.4467 24.6337 43.61 26.06H43.66C45.5629 26.06 47.3879 26.8159 48.7335 28.1615C50.0791 29.5071 50.835 31.3321 50.835 33.235C50.835 35.1379 50.0791 36.9629 48.7335 38.3085C47.3879 39.6541 45.5629 40.41 43.66 40.41L43.7 40.43Z" fill="#616D7E"/>
<path d="M43.7 41.08H7.82001C5.95439 41.0732 4.15248 40.4006 2.73882 39.1831C1.32516 37.9657 0.392645 36.2835 0.109233 34.4395C-0.174179 32.5955 0.210135 30.711 1.19296 29.1252C2.17578 27.5394 3.69252 26.3567 5.47001 25.79C5.2587 23.9411 5.44042 22.0684 6.00328 20.2946C6.56613 18.5208 7.49741 16.8859 8.7361 15.4971C9.97479 14.1083 11.4929 12.9969 13.1911 12.2357C14.8892 11.4745 16.7291 11.0806 18.59 11.08C21.2692 11.0939 23.8817 11.9167 26.0854 13.4405C28.2891 14.9644 29.9812 17.1182 30.94 19.62C32.3367 18.7259 33.9617 18.2537 35.62 18.26C37.6702 18.2572 39.6557 18.9777 41.227 20.2947C42.7983 21.6118 43.8546 23.4408 44.21 25.46C46.2618 25.5571 48.1931 26.4576 49.5864 27.9669C50.9797 29.4763 51.7232 31.4733 51.6562 33.5263C51.5892 35.5793 50.7172 37.5236 49.2284 38.9389C47.7397 40.3542 45.7538 41.1269 43.7 41.09V41.08ZM18.59 12.38C15.4356 12.3853 12.4118 13.6407 10.1813 15.8713C7.95074 18.1018 6.6953 21.1256 6.69001 24.28C6.68973 24.9097 6.73989 25.5383 6.84001 26.16C6.86733 26.3225 6.83193 26.4893 6.74097 26.6266C6.65 26.764 6.51027 26.8617 6.35001 26.9C4.79919 27.2716 3.43798 28.1979 2.52314 29.5042C1.60829 30.8104 1.20307 32.4062 1.3839 33.9907C1.56474 35.5751 2.31912 37.0386 3.50477 38.1051C4.69041 39.1716 6.22534 39.7674 7.82001 39.78H43.7C45.3359 39.6516 46.8631 38.9111 47.9771 37.7062C49.091 36.5014 49.7097 34.9209 49.7097 33.28C49.7097 31.6391 49.091 30.0586 47.9771 28.8538C46.8631 27.6489 45.3359 26.9084 43.7 26.78C43.5339 26.7805 43.3729 26.7227 43.245 26.6167C43.1171 26.5107 43.0304 26.3633 43 26.2C42.8562 24.8797 42.3607 23.6223 41.5652 22.5588C40.7697 21.4954 39.7034 20.6649 38.4775 20.1541C37.2516 19.6433 35.911 19.4709 34.5958 19.6549C33.2805 19.8388 32.0387 20.3724 31 21.2C30.9174 21.2603 30.8216 21.3003 30.7206 21.3166C30.6196 21.333 30.5162 21.3252 30.4187 21.294C30.3213 21.2629 30.2326 21.2091 30.1598 21.1372C30.087 21.0652 30.0323 20.9771 30 20.88C29.2534 18.4315 27.7434 16.2858 25.6906 14.7566C23.6378 13.2273 21.1498 12.3946 18.59 12.38Z" fill="white"/>
</g>
<defs>
<clipPath id="clip0_2_207">
<rect width="51.52" height="58.77" fill="white"/>
</clipPath>
</defs>
</svg>
