<svg width="52" height="55" viewBox="0 0 52 55" fill="none" xmlns="http://www.w3.org/2000/svg">
<g clip-path="url(#clip0_2_99)">
<path d="M33.3419 0L36.2422 3.75801L40.4343 1.4939L41.5415 6.09602L46.3004 5.7173L45.4229 10.3678L49.9258 11.94L47.2154 15.8347L50.6838 19.0858L46.6091 21.5514L48.4431 25.9194L43.7087 26.5294L43.5914 31.2591L39.0158 29.9082L36.9673 34.1816L33.3419 31.1033L29.7165 34.1816L27.668 29.9082L23.0924 31.2591L22.9751 26.5294L18.2406 25.9194L20.0747 21.5514L16 19.0858L19.4684 15.8347L16.7579 11.94L21.2609 10.3678L20.3834 5.7173L25.1423 6.09602L26.2495 1.4939L30.4416 3.75801L33.3419 0Z" fill="#FFB700"/>
<path d="M33.7014 27.2771C39.4387 27.2771 44.0897 22.6261 44.0897 16.8889C44.0897 11.1516 39.4387 6.50061 33.7014 6.50061C27.9641 6.50061 23.3132 11.1516 23.3132 16.8889C23.3132 22.6261 27.9641 27.2771 33.7014 27.2771Z" fill="#FECE55"/>
<path d="M33.15 35.8C32.8636 35.8 32.5889 35.6862 32.3863 35.4837C32.1838 35.2811 32.07 35.0064 32.07 34.72V30C32.07 29.7136 32.1838 29.4389 32.3863 29.2363C32.5889 29.0338 32.8636 28.92 33.15 28.92C33.4364 28.92 33.7111 29.0338 33.9137 29.2363C34.1162 29.4389 34.23 29.7136 34.23 30V34.77C34.2171 35.0477 34.0977 35.3097 33.8965 35.5016C33.6954 35.6934 33.428 35.8003 33.15 35.8Z" fill="#FECE55"/>
<path d="M21.11 19H16.33C16.0436 19 15.7689 18.8862 15.5663 18.6837C15.3638 18.4811 15.25 18.2064 15.25 17.92C15.25 17.6336 15.3638 17.3589 15.5663 17.1563C15.7689 16.9538 16.0436 16.84 16.33 16.84H21.1C21.3864 16.84 21.6611 16.9538 21.8637 17.1563C22.0662 17.3589 22.18 17.6336 22.18 17.92C22.18 18.2064 22.0662 18.4811 21.8637 18.6837C21.6611 18.8862 21.3864 19 21.1 19H21.11Z" fill="#FECE55"/>
<path d="M21.26 30.88C21.039 30.8872 20.821 30.8263 20.6357 30.7057C20.4503 30.585 20.3065 30.4104 20.2236 30.2053C20.1407 30.0003 20.1228 29.7748 20.1722 29.5592C20.2216 29.3436 20.3361 29.1484 20.5 29L23.88 25.62C24.0829 25.4171 24.3581 25.3031 24.645 25.3031C24.9319 25.3031 25.2071 25.4171 25.41 25.62C25.6129 25.8229 25.7269 26.0981 25.7269 26.385C25.7269 26.6719 25.6129 26.9471 25.41 27.15L22 30.56C21.8039 30.7582 21.5387 30.8729 21.26 30.88Z" fill="#FECE55"/>
<path d="M45 30.88C44.7143 30.8781 44.441 30.763 44.24 30.56L40.86 27.18C40.6571 26.9771 40.5431 26.7019 40.5431 26.415C40.5431 26.1281 40.6571 25.8529 40.86 25.65C41.0629 25.4471 41.3381 25.3331 41.625 25.3331C41.9119 25.3331 42.1871 25.4471 42.39 25.65L45.81 29C45.9782 29.1511 46.0948 29.3511 46.1433 29.572C46.1918 29.7928 46.1698 30.0233 46.0803 30.231C45.9909 30.4386 45.8385 30.613 45.6447 30.7294C45.4508 30.8459 45.2253 30.8985 45 30.88Z" fill="#FECE55"/>
<path d="M43.51 40.25H7.79C6.03193 40.2592 4.33227 39.6194 3.01662 38.4533C1.70096 37.2871 0.861813 35.6765 0.659917 33.93C0.458021 32.1836 0.907573 30.424 1.92246 28.9884C2.93734 27.5529 4.4462 26.5422 6.16 26.15C6.05255 25.4888 5.99904 24.8199 6 24.15C5.99549 21.1485 7.07112 18.2457 9.03034 15.9718C10.9896 13.698 13.7015 12.205 16.6707 11.7658C19.6398 11.3266 22.6679 11.9703 25.2016 13.5795C27.7352 15.1887 29.6053 17.6558 30.47 20.53C31.5902 19.6209 32.9353 19.0316 34.363 18.8246C35.7907 18.6175 37.2479 18.8003 38.5801 19.3538C39.9124 19.9072 41.0703 20.8105 41.9311 21.9682C42.7919 23.1259 43.3236 24.4948 43.47 25.93H43.52C45.415 25.93 47.2323 26.6828 48.5723 28.0227C49.9122 29.3627 50.665 31.18 50.665 33.075C50.665 34.97 49.9122 36.7873 48.5723 38.1273C47.2323 39.4672 45.415 40.22 43.52 40.22L43.51 40.25Z" fill="#616D7E"/>
<path d="M43.51 40.9H7.79C5.93153 40.8944 4.13616 40.2253 2.72722 39.0134C1.31827 37.8014 0.388358 36.1262 0.104948 34.2895C-0.178461 32.4528 0.20326 30.5752 1.18136 28.9949C2.15947 27.4147 3.66967 26.2356 5.44 25.67C5.0687 22.4809 5.87695 19.2662 7.71235 16.6319C9.54776 13.9976 12.2835 12.1258 15.4038 11.3694C18.524 10.613 21.8132 11.0243 24.6512 12.5257C27.4891 14.0271 29.6797 16.5149 30.81 19.52C32.0137 18.7605 33.3855 18.3082 34.8049 18.203C36.2244 18.0978 37.6479 18.3428 38.9504 18.9165C40.253 19.4903 41.3946 20.3752 42.2751 21.4935C43.1556 22.6118 43.7479 23.9292 44 25.33C46.0441 25.4268 47.9681 26.324 49.356 27.8277C50.744 29.3315 51.4845 31.321 51.4175 33.3663C51.3505 35.4116 50.4814 37.3484 48.998 38.7581C47.5146 40.1678 45.5361 40.9372 43.49 40.9H43.51ZM18.51 12.33C15.368 12.3327 12.3554 13.582 10.1337 15.8037C7.91197 18.0254 6.66264 21.038 6.66 24.18C6.65936 24.7894 6.70617 25.3979 6.8 26C6.82732 26.1625 6.79192 26.3293 6.70095 26.4667C6.60999 26.604 6.47025 26.7017 6.31 26.74C4.70025 27.0465 3.26603 27.9506 2.29529 29.2708C1.32455 30.591 0.889149 32.2295 1.0765 33.8575C1.26385 35.4854 2.06008 36.9822 3.30534 38.0474C4.5506 39.1125 6.1527 39.6672 7.79 39.6H43.51C45.2339 39.6 46.8872 38.9152 48.1062 37.6962C49.3252 36.4772 50.01 34.8239 50.01 33.1C50.01 31.3761 49.3252 29.7228 48.1062 28.5038C46.8872 27.2848 45.2339 26.6 43.51 26.6C43.3439 26.6005 43.1829 26.5427 43.055 26.4367C42.9271 26.3308 42.8404 26.1833 42.81 26.02C42.6675 24.7071 42.1759 23.4564 41.3862 22.398C40.5965 21.3395 39.5376 20.512 38.3196 20.0016C37.1017 19.4911 35.7692 19.3163 34.4608 19.4955C33.1524 19.6746 31.9159 20.201 30.88 21.02C30.797 21.0868 30.6987 21.1319 30.5939 21.1511C30.4892 21.1703 30.3813 21.1631 30.28 21.13C30.1787 21.0988 30.0866 21.0433 30.0116 20.9684C29.9367 20.8934 29.8812 20.8013 29.85 20.7C29.0938 18.2813 27.5871 16.1663 25.5482 14.6613C23.5093 13.1564 21.0441 12.3399 18.51 12.33Z" fill="white"/>
<path d="M12.6698 53.07L12.4398 52.74C12.2198 52.4 12.3198 51.98 12.5498 51.46L16.8998 41.52C16.9533 41.4629 16.9861 41.3896 16.993 41.3116C17 41.2337 16.9806 41.1558 16.938 41.0901C16.8954 41.0245 16.8321 40.9751 16.7581 40.9497C16.6841 40.9243 16.6038 40.9244 16.5298 40.95H12.4398C12.1463 40.9701 11.8524 40.9146 11.5865 40.7887C11.3205 40.6628 11.0912 40.4708 10.9207 40.231C10.7501 39.9912 10.6439 39.7116 10.6123 39.4191C10.5806 39.1265 10.6245 38.8307 10.7398 38.56L14.5198 27.64C14.7302 27.0728 15.1034 26.5803 15.5927 26.2245C16.0819 25.8687 16.6654 25.6653 17.2698 25.64H22.4398C22.7285 25.6081 23.0201 25.6607 23.2794 25.7914C23.5388 25.9221 23.7546 26.1252 23.9007 26.3762C24.0468 26.6271 24.1169 26.915 24.1026 27.2051C24.0882 27.4951 23.99 27.7747 23.8198 28.01L19.8198 35.15C19.7098 35.34 19.7098 35.46 19.7298 35.49C19.7498 35.52 19.8498 35.58 20.0698 35.58H25.7098C25.9895 35.5429 26.2737 35.5978 26.5195 35.7365C26.7652 35.8751 26.9592 36.0899 27.0721 36.3485C27.185 36.607 27.2107 36.8953 27.1454 37.1698C27.08 37.4443 26.9272 37.69 26.7098 37.87L14.0398 52.41C13.6298 52.88 13.3398 53.06 13.0398 53.06L12.6698 53.07Z" fill="#FFB700"/>
<path d="M22.4398 26.34C23.3298 26.34 23.6898 26.97 23.2498 27.74L19.2498 34.88C18.8098 35.65 19.1798 36.28 20.0698 36.28H25.7098C26.5998 36.28 26.8498 36.83 26.2598 37.49L13.5498 51.98C13.2998 52.27 13.1198 52.41 13.0298 52.41C12.9398 52.41 12.9398 52.17 13.1398 51.71L17.4398 41.82C17.5302 41.6584 17.574 41.4748 17.5662 41.2897C17.5584 41.1047 17.4993 40.9255 17.3957 40.772C17.292 40.6186 17.1477 40.4969 16.9789 40.4206C16.8102 40.3444 16.6235 40.3164 16.4398 40.34H12.4398C12.2586 40.3423 12.0797 40.299 11.9197 40.214C11.7596 40.129 11.6235 40.0051 11.5239 39.8537C11.4242 39.7023 11.3643 39.5282 11.3497 39.3476C11.335 39.1669 11.366 38.9855 11.4398 38.82L15.1798 27.82C15.3536 27.3883 15.6476 27.0156 16.027 26.7462C16.4063 26.4767 16.855 26.3219 17.3198 26.3H22.4398M22.4398 25H17.3198C16.5833 25.0202 15.8694 25.2592 15.2692 25.6866C14.6691 26.1141 14.2097 26.7105 13.9498 27.4L10.1698 38.36C10.0236 38.7251 9.9706 39.1209 10.0155 39.5116C10.0604 39.9023 10.2018 40.2757 10.427 40.5981C10.6522 40.9206 10.9541 41.1819 11.3055 41.3585C11.6569 41.5352 12.0467 41.6216 12.4398 41.61H16.0898L11.9398 51.2C11.773 51.4869 11.6802 51.8107 11.6697 52.1424C11.6592 52.4741 11.7314 52.8032 11.8798 53.1C12.0032 53.2901 12.172 53.4465 12.3711 53.5547C12.5702 53.663 12.7932 53.7198 13.0198 53.72C13.32 53.6957 13.6108 53.6039 13.8705 53.4516C14.1302 53.2992 14.3522 53.0901 14.5198 52.84L27.1698 38.34C27.4771 38.0644 27.6885 37.698 27.7732 37.294C27.858 36.8901 27.8117 36.4696 27.641 36.0938C27.4704 35.7179 27.1843 35.4063 26.8244 35.2042C26.4646 35.0021 26.0496 34.9201 25.6398 34.97H20.6398L24.3798 28.37C24.6048 28.0364 24.7312 27.6461 24.7444 27.2439C24.7576 26.8418 24.6572 26.444 24.4546 26.0963C24.2521 25.7486 23.9556 25.4651 23.5992 25.2783C23.2428 25.0914 22.841 25.0088 22.4398 25.04V25Z" fill="white"/>
</g>
<defs>
<clipPath id="clip0_2_99">
<rect width="51.3" height="54.9" fill="white"/>
</clipPath>
</defs>
</svg>
