<svg xmlns="http://www.w3.org/2000/svg" viewBox="0 0 27.76 34.53"><defs><style>.cls-1{fill:#65778b;}</style></defs><title>Recurso 62</title><g id="Capa_2" data-name="Capa 2"><g id="Capa_1-2" data-name="Capa 1"><path class="cls-1" d="M26.64,34.13a.64.64,0,0,1-.46-.19L.6,8.36a2.07,2.07,0,0,1,0-2.92L5.85.19a.64.64,0,0,1,.91.91L1.51,6.35a.78.78,0,0,0,0,1.1L27.09,33a.64.64,0,0,1-.46,1.1Z"/><path class="cls-1" d="M3.89,11.38a.64.64,0,0,1-.46-.19,2.07,2.07,0,0,1,0-2.92L8.68,3a.64.64,0,1,1,.91.91L4.34,9.18a.79.79,0,0,0,0,1.1.64.64,0,0,1-.46,1.1Z"/><path class="cls-1" d="M27.12,34.53h0L21,34.12a.64.64,0,0,1,.09-1.28l5.33.36-.36-5.33a.64.64,0,1,1,1.28-.09l.41,6.07a.64.64,0,0,1-.64.69Z"/></g></g></svg>