<svg width="52" height="45" viewBox="0 0 52 45" fill="none" xmlns="http://www.w3.org/2000/svg">
<g clip-path="url(#clip0_2_2)">
<path d="M25.8419 2.04344L28.9931 6.1265L33.5478 3.66656L34.7507 8.66674L39.9213 8.25526L38.9678 13.308L43.8603 15.0161L40.9154 19.2477L44.6838 22.7801L40.2566 25.4589L42.2493 30.2048L37.1054 30.8675L36.9779 36.0063L32.0066 34.5386L29.7809 39.1816L25.8419 35.837L21.9029 39.1816L19.6772 34.5386L14.7059 36.0063L14.5784 30.8675L9.43445 30.2048L11.4272 25.4589L7 22.7801L10.7684 19.2477L7.82348 15.0161L12.7159 13.308L11.7625 8.25526L16.9331 8.66674L18.136 3.66656L22.6907 6.1265L25.8419 2.04344Z" fill="#FFB700"/>
<path d="M26.2325 31.6799C32.466 31.6799 37.5193 26.6266 37.5193 20.3931C37.5193 14.1596 32.466 9.10632 26.2325 9.10632C19.999 9.10632 14.9457 14.1596 14.9457 20.3931C14.9457 26.6266 19.999 31.6799 26.2325 31.6799Z" fill="#FECE55"/>
<path d="M9.5 20.33H3.5C3.23478 20.33 2.98043 20.2246 2.79289 20.0371C2.60536 19.8496 2.5 19.5952 2.5 19.33C2.5 19.0648 2.60536 18.8104 2.79289 18.6229C2.98043 18.4354 3.23478 18.33 3.5 18.33H9.5C9.76522 18.33 10.0196 18.4354 10.2071 18.6229C10.3946 18.8104 10.5 19.0648 10.5 19.33C10.5 19.5952 10.3946 19.8496 10.2071 20.0371C10.0196 20.2246 9.76522 20.33 9.5 20.33Z" fill="#FECE55"/>
<path d="M39.85 35.4C39.7184 35.4008 39.5879 35.3755 39.4661 35.3258C39.3443 35.276 39.2335 35.2027 39.14 35.11L34.86 30.83C34.7668 30.7368 34.6928 30.6261 34.6424 30.5043C34.5919 30.3824 34.5659 30.2519 34.5659 30.12C34.5659 29.9882 34.5919 29.8576 34.6424 29.7358C34.6928 29.6139 34.7668 29.5032 34.86 29.41C34.9533 29.3168 35.0639 29.2428 35.1858 29.1924C35.3076 29.1419 35.4382 29.1159 35.57 29.1159C35.7019 29.1159 35.8324 29.1419 35.9543 29.1924C36.0761 29.2428 36.1868 29.3168 36.28 29.41L40.56 33.69C40.701 33.8299 40.7972 34.0086 40.8363 34.2033C40.8754 34.3981 40.8555 34.6 40.7794 34.7835C40.7032 34.9669 40.5741 35.1235 40.4086 35.2333C40.2431 35.3431 40.0486 35.4012 39.85 35.4Z" fill="#FECE55"/>
<path d="M48.32 39.26H34.13C33.4368 39.2554 32.7692 38.9973 32.2531 38.5345C31.737 38.0717 31.4079 37.4361 31.328 36.7475C31.2481 36.0589 31.4228 35.3648 31.8192 34.7961C32.2156 34.2274 32.8063 33.8233 33.48 33.66C33.4393 33.402 33.4192 33.1412 33.42 32.88C33.4662 31.7159 33.9175 30.6045 34.6959 29.7377C35.4743 28.8709 36.5309 28.3031 37.6833 28.1324C38.8357 27.9617 40.0116 28.1987 41.0079 28.8026C42.0041 29.4065 42.7583 30.3393 43.14 31.44C43.5866 31.084 44.1206 30.8543 44.6862 30.7751C45.2518 30.6959 45.8284 30.77 46.3556 30.9897C46.8828 31.2093 47.3413 31.5665 47.6834 32.0239C48.0254 32.4813 48.2384 33.0222 48.3 33.59C49.0532 33.59 49.7756 33.8892 50.3082 34.4218C50.8408 34.9544 51.14 35.6768 51.14 36.43C51.14 37.1832 50.8408 37.9056 50.3082 38.4382C49.7756 38.9708 49.0532 39.27 48.3 39.27L48.32 39.26Z" fill="#C4D0E0"/>
<path d="M48.32 39.76H34.13C33.3495 39.7595 32.5938 39.4857 31.9942 38.9861C31.3946 38.4865 30.9888 37.7927 30.8474 37.0251C30.706 36.2575 30.8379 35.4647 31.2202 34.7842C31.6024 34.1037 32.2109 33.5786 32.94 33.3C32.94 33.16 32.94 33.02 32.94 32.87C32.9442 31.6177 33.3779 30.4048 34.1688 29.4338C34.9596 28.4629 36.0596 27.7927 37.2852 27.5351C38.5107 27.2776 39.7874 27.4484 40.9022 28.019C42.0169 28.5895 42.9022 29.5253 43.41 30.67C43.9103 30.4059 44.4645 30.2601 45.03 30.2437C45.5955 30.2273 46.1572 30.3409 46.672 30.5756C47.1868 30.8102 47.6409 31.1598 47.9994 31.5975C48.3579 32.0351 48.6112 32.5491 48.74 33.1C49.5766 33.2125 50.3396 33.6377 50.8755 34.29C51.4113 34.9422 51.6804 35.7732 51.6284 36.6157C51.5765 37.4583 51.2074 38.2499 50.5955 38.8314C49.9835 39.4129 49.1741 39.7411 48.33 39.75L48.32 39.76ZM38.39 28.4C37.2045 28.4 36.0675 28.871 35.2292 29.7092C34.391 30.5475 33.92 31.6845 33.92 32.87C33.9213 33.1046 33.9414 33.3386 33.98 33.57C34.0011 33.6955 33.9736 33.8244 33.903 33.9303C33.8324 34.0362 33.724 34.1112 33.6 34.14C33.0397 34.2694 32.5467 34.6005 32.215 35.0703C31.8833 35.54 31.7362 36.1154 31.8017 36.6867C31.8673 37.258 32.1409 37.7851 32.5703 38.1676C32.9998 38.55 33.555 38.7609 34.13 38.76H48.33C48.9506 38.76 49.5458 38.5135 49.9846 38.0746C50.4235 37.6358 50.67 37.0406 50.67 36.42C50.67 35.7994 50.4235 35.2042 49.9846 34.7654C49.5458 34.3265 48.9506 34.08 48.33 34.08C48.2034 34.0812 48.0807 34.0361 47.985 33.9532C47.8893 33.8704 47.8271 33.7555 47.81 33.63C47.7574 33.1517 47.5775 32.6962 47.2889 32.3111C47.0004 31.9259 46.6138 31.6253 46.1695 31.4404C45.7252 31.2555 45.2395 31.1932 44.7629 31.26C44.2863 31.3268 43.8364 31.5202 43.46 31.82C43.397 31.8722 43.3218 31.9079 43.2415 31.9236C43.1611 31.9393 43.0781 31.9346 43 31.91C42.9223 31.886 42.8517 31.8434 42.7941 31.7859C42.7366 31.7284 42.694 31.6577 42.67 31.58C42.3887 30.663 41.8217 29.8599 41.0517 29.2878C40.2818 28.7158 39.3492 28.4047 38.39 28.4Z" fill="white"/>
<path d="M17.53 23H3.34C2.64679 22.9953 1.97921 22.7373 1.46309 22.2745C0.946963 21.8117 0.617932 21.1761 0.538005 20.4875C0.458077 19.7989 0.632773 19.1048 1.02917 18.5361C1.42556 17.9674 2.01628 17.5633 2.69 17.4C2.64929 17.142 2.62922 16.8812 2.63 16.62C2.67623 15.4559 3.1275 14.3445 3.90588 13.4777C4.68427 12.6109 5.7409 12.0431 6.89332 11.8724C8.04574 11.7017 9.22161 11.9387 10.2179 12.5426C11.2141 13.1465 11.9683 14.0793 12.35 15.18C12.7966 14.8239 13.3306 14.5943 13.8962 14.5151C14.4618 14.4359 15.0383 14.51 15.5656 14.7297C16.0928 14.9493 16.5513 15.3065 16.8934 15.7639C17.2354 16.2213 17.4484 16.7622 17.51 17.33C18.2632 17.33 18.9856 17.6292 19.5182 18.1618C20.0508 18.6944 20.35 19.4168 20.35 20.17C20.35 20.9232 20.0508 21.6456 19.5182 22.1782C18.9856 22.7108 18.2632 23.01 17.51 23.01L17.53 23Z" fill="#C4D0E0"/>
<path d="M17.53 23.49H3.34C2.54474 23.5096 1.76858 23.2448 1.15121 22.7431C0.533842 22.2414 0.115804 21.5359 -0.0276671 20.7534C-0.171138 19.9709 -0.0306216 19.163 0.368594 18.4749C0.76781 17.7868 1.39951 17.2638 2.15 17C2.15 16.86 2.15 16.72 2.15 16.57C2.15418 15.3177 2.58791 14.1048 3.37875 13.1338C4.16959 12.1629 5.26964 11.4927 6.49516 11.2351C7.72067 10.9776 8.99744 11.1484 10.1122 11.719C11.2269 12.2895 12.1122 13.2253 12.62 14.37C13.1203 14.1059 13.6745 13.9601 14.24 13.9437C14.8055 13.9273 15.3672 14.0409 15.882 14.2755C16.3968 14.5102 16.8508 14.8598 17.2094 15.2975C17.5679 15.7351 17.8212 16.2491 17.95 16.8C18.7866 16.9125 19.5496 17.3377 20.0855 17.99C20.6213 18.6422 20.8903 19.4732 20.8384 20.3157C20.7865 21.1583 20.4174 21.9499 19.8055 22.5314C19.1935 23.1129 18.3841 23.4411 17.54 23.45L17.53 23.49ZM7.6 12.14C6.9542 12.1407 6.31622 12.2813 5.72997 12.5522C5.14372 12.8231 4.62313 13.2178 4.20402 13.7091C3.78491 14.2004 3.47725 14.7767 3.3022 15.3984C3.12715 16.02 3.08887 16.6722 3.19 17.31C3.21112 17.4355 3.18357 17.5644 3.11296 17.6703C3.04235 17.7762 2.934 17.8512 2.81 17.88C2.24972 18.0094 1.75668 18.3405 1.425 18.8103C1.09331 19.28 0.946201 19.8554 1.01174 20.4267C1.07728 20.998 1.35087 21.5251 1.78031 21.9076C2.20976 22.29 2.76497 22.5009 3.34 22.5H17.54C18.1606 22.5 18.7558 22.2535 19.1946 21.8146C19.6335 21.3758 19.88 20.7806 19.88 20.16C19.88 19.5394 19.6335 18.9442 19.1946 18.5054C18.7558 18.0665 18.1606 17.82 17.54 17.82C17.4134 17.8212 17.2907 17.7761 17.195 17.6932C17.0993 17.6104 17.037 17.4955 17.02 17.37C16.9674 16.8917 16.7875 16.4362 16.4989 16.0511C16.2104 15.6659 15.8238 15.3653 15.3795 15.1804C14.9352 14.9955 14.4495 14.9332 13.9729 15C13.4963 15.0668 13.0464 15.2602 12.67 15.56C12.6059 15.6108 12.5303 15.6451 12.4499 15.6599C12.3694 15.6747 12.2866 15.6695 12.2086 15.6448C12.1306 15.6202 12.0599 15.5767 12.0026 15.5184C11.9453 15.46 11.9032 15.3884 11.88 15.31C11.5969 14.3949 11.0291 13.594 10.2593 13.0238C9.48956 12.4537 8.55793 12.144 7.6 12.14Z" fill="white"/>
</g>
<defs>
<clipPath id="clip0_2_2">
<rect width="51.66" height="44.65" fill="white"/>
</clipPath>
</defs>
</svg>
