<svg xmlns="http://www.w3.org/2000/svg" viewBox="0 0 34.53 27.74"><defs><style>.cls-1{fill:#65778b;}</style></defs><title>Recurso 66</title><g id="Capa_2" data-name="Capa 2"><g id="Capa_1-2" data-name="Capa 1"><path class="cls-1" d="M1,27.26a.64.64,0,0,1-.46-1.1L26.17.58a2.12,2.12,0,0,1,2.92,0l5.25,5.25a.64.64,0,1,1-.91.91L28.18,1.49a.8.8,0,0,0-1.1,0L1.5,27.07A.64.64,0,0,1,1,27.26Z"/><path class="cls-1" d="M31.06,9.76a.64.64,0,0,1-.46-.19L25.35,4.32a.79.79,0,0,0-1.1,0,.64.64,0,0,1-.91-.91,2.12,2.12,0,0,1,2.92,0l5.25,5.25a.64.64,0,0,1-.46,1.1Z"/><path class="cls-1" d="M28.23,12.59a.64.64,0,0,1-.46-.19L22.53,7.15a.78.78,0,0,0-1.1,0,.64.64,0,0,1-.91-.91,2.07,2.07,0,0,1,2.92,0l5.25,5.25a.64.64,0,0,1-.46,1.1Z"/><path class="cls-1" d="M.64,27.74A.64.64,0,0,1,0,27.05L.41,21a.64.64,0,1,1,1.28.09L1.33,26.4,6.67,26a.63.63,0,0,1,.69.6.64.64,0,0,1-.6.69l-6.07.41Z"/></g></g></svg>