<svg width="53" height="43" viewBox="0 0 53 43" fill="none" xmlns="http://www.w3.org/2000/svg">
<g clip-path="url(#clip0_2_66)">
<path d="M19.93 30C17.9327 30.0039 15.9791 29.415 14.3168 28.3079C12.6544 27.2007 11.3581 25.625 10.5919 23.7805C9.82574 21.936 9.62424 19.9056 10.0129 17.9464C10.4016 15.9873 11.363 14.1876 12.7753 12.7753C14.1876 11.363 15.9873 10.4016 17.9465 10.0129C19.9056 9.62423 21.936 9.82573 23.7805 10.5919C25.625 11.3581 27.2007 12.6544 28.3079 14.3168C29.415 15.9791 30.004 17.9327 30 19.93C29.9921 22.5983 28.9286 25.155 27.0418 27.0418C25.155 28.9286 22.5983 29.9921 19.93 30Z" fill="#FECE55"/>
<path d="M18.3419 2L21.2422 5.75801L25.4343 3.4939L26.5415 8.09602L31.3004 7.7173L30.4229 12.3678L34.9258 13.94L32.2154 17.8347L35.6838 21.0858L31.6091 23.5514L33.4431 27.9194L28.7087 28.5294L28.5914 33.2591L24.0158 31.9082L21.9673 36.1816L18.3419 33.1033L14.7165 36.1816L12.668 31.9082L8.09244 33.2591L7.97507 28.5294L3.24064 27.9194L5.07472 23.5514L1 21.0858L4.46838 17.8347L1.75792 13.94L6.26089 12.3678L5.38337 7.7173L10.1423 8.09602L11.2495 3.4939L15.4416 5.75801L18.3419 2Z" fill="#FFB700"/>
<path d="M18.7014 29.2771C24.4387 29.2771 29.0897 24.6261 29.0897 18.8889C29.0897 13.1516 24.4387 8.50061 18.7014 8.50061C12.9641 8.50061 8.31317 13.1516 8.31317 18.8889C8.31317 24.6261 12.9641 29.2771 18.7014 29.2771Z" fill="#FECE55"/>
<path d="M19.93 39.86C19.6197 39.86 19.3221 39.7367 19.1027 39.5173C18.8833 39.2979 18.76 39.0003 18.76 38.69V33.37C18.76 33.0584 18.8838 32.7595 19.1041 32.5391C19.3245 32.3188 19.6234 32.195 19.935 32.195C20.2466 32.195 20.5455 32.3188 20.7659 32.5391C20.9862 32.7595 21.11 33.0584 21.11 33.37V38.69C21.11 38.8445 21.0794 38.9974 21.02 39.1401C20.9606 39.2827 20.8735 39.4121 20.7638 39.5209C20.6541 39.6296 20.5239 39.7156 20.3808 39.7738C20.2377 39.832 20.0845 39.8613 19.93 39.86Z" fill="#FECE55"/>
<path d="M38.69 21.1H33.37C33.0597 21.1 32.7621 20.9767 32.5427 20.7573C32.3233 20.5379 32.2 20.2403 32.2 19.93C32.2 19.6197 32.3233 19.3221 32.5427 19.1027C32.7621 18.8833 33.0597 18.76 33.37 18.76H38.69C39.0003 18.76 39.2979 18.8833 39.5173 19.1027C39.7367 19.3221 39.86 19.6197 39.86 19.93C39.86 20.2403 39.7367 20.5379 39.5173 20.7573C39.2979 20.9767 39.0003 21.1 38.69 21.1Z" fill="#FECE55"/>
<path d="M33.2 34.37C33.0461 34.3707 32.8936 34.341 32.7511 34.2827C32.6087 34.2243 32.4792 34.1385 32.37 34.03L28.6 30.26C28.3799 30.0399 28.2562 29.7413 28.2562 29.43C28.2562 29.1187 28.3799 28.8201 28.6 28.6C28.8201 28.3799 29.1187 28.2562 29.43 28.2562C29.7413 28.2562 30.0399 28.3799 30.26 28.6L34 32.37C34.1647 32.5336 34.277 32.7426 34.3226 32.9703C34.3682 33.1979 34.345 33.434 34.256 33.6485C34.167 33.8629 34.0162 34.0461 33.8228 34.1745C33.6294 34.303 33.4022 34.3711 33.17 34.37H33.2Z" fill="#FECE55"/>
<path d="M43.35 41.49H11.19C9.61343 41.4878 8.09259 40.9066 6.91651 39.8566C5.74043 38.8066 4.99109 37.3612 4.81089 35.7949C4.63069 34.2287 5.0322 32.6508 5.9391 31.3612C6.84601 30.0716 8.19511 29.1601 9.73 28.8C9.63462 28.2048 9.5878 27.6028 9.59 27C9.60577 24.3126 10.5831 21.7196 12.345 19.6903C14.1069 17.661 16.5371 16.3295 19.1957 15.9368C21.8543 15.544 24.5657 16.116 26.8391 17.5491C29.1126 18.9823 30.7979 21.1819 31.59 23.75C32.6026 22.9388 33.8148 22.4151 35.0994 22.2337C36.3841 22.0523 37.6939 22.2199 38.8915 22.719C40.0891 23.218 41.1303 24.0302 41.906 25.0702C42.6816 26.1102 43.1631 27.3398 43.3 28.63C45.0053 28.63 46.6408 29.3074 47.8467 30.5133C49.0526 31.7192 49.73 33.3547 49.73 35.06C49.73 36.7653 49.0526 38.4008 47.8467 39.6067C46.6408 40.8125 45.0053 41.49 43.3 41.49H43.35Z" fill="#A0ADBF"/>
<path d="M43.35 42.14H11.19C9.50048 42.1454 7.86473 41.5463 6.57822 40.4512C5.29171 39.356 4.43925 37.8369 4.17482 36.1681C3.91038 34.4994 4.25141 32.7912 5.1363 31.3519C6.02118 29.9126 7.3916 28.8373 9 28.32C8.67697 25.4427 9.41406 22.5462 11.0732 20.1733C12.7324 17.8004 15.1997 16.1138 18.0131 15.4295C20.8265 14.7452 23.7929 15.11 26.3566 16.4558C28.9203 17.8015 30.9053 20.0358 31.94 22.74C33.0307 22.0605 34.2709 21.6577 35.5527 21.5666C36.8345 21.4756 38.1192 21.6989 39.295 22.2174C40.4708 22.7358 41.5022 23.5336 42.2996 24.5414C43.0969 25.5492 43.636 26.7364 43.87 28C45.6955 28.1375 47.3968 28.9767 48.6168 30.3415C49.8369 31.7064 50.4808 33.4908 50.4136 35.3202C50.3463 37.1496 49.573 38.8819 48.256 40.1534C46.939 41.425 45.1807 42.137 43.35 42.14ZM20.84 16.42C19.3071 16.4213 17.7926 16.7548 16.4009 17.3976C15.0093 18.0403 13.7734 18.9769 12.7783 20.143C11.7833 21.3091 11.0528 22.677 10.637 24.1524C10.2213 25.6279 10.1302 27.1759 10.37 28.69C10.3973 28.8525 10.3619 29.0193 10.271 29.1566C10.18 29.294 10.0403 29.3917 9.88 29.43C8.49773 29.7512 7.28193 30.5697 6.46424 31.7295C5.64654 32.8893 5.2841 34.3094 5.44596 35.7193C5.60783 37.1291 6.28269 38.4301 7.34197 39.3745C8.40124 40.3188 9.77091 40.8404 11.19 40.84H43.35C44.883 40.84 46.3531 40.231 47.4371 39.1471C48.521 38.0631 49.13 36.593 49.13 35.06C49.13 33.527 48.521 32.0569 47.4371 30.9729C46.3531 29.889 44.883 29.28 43.35 29.28C43.1851 29.2801 43.0255 29.2219 42.8992 29.1158C42.773 29.0097 42.6883 28.8625 42.66 28.7C42.5324 27.5271 42.0918 26.4101 41.3844 25.466C40.6769 24.5219 39.7287 23.7853 38.6388 23.3334C37.549 22.8815 36.3578 22.731 35.1898 22.8975C34.0218 23.064 32.9201 23.5415 32 24.28C31.92 24.3411 31.8269 24.3828 31.728 24.4018C31.6291 24.4208 31.5271 24.4165 31.4302 24.3894C31.3332 24.3622 31.2439 24.3129 31.1692 24.2454C31.0946 24.1778 31.0366 24.0938 31 24C30.3393 21.8164 28.9962 19.902 27.1676 18.5377C25.3391 17.1735 23.1214 16.4313 20.84 16.42Z" fill="white"/>
<path d="M47.38 29H27.07C26.0837 28.9859 25.1362 28.6131 24.4046 27.9514C23.673 27.2897 23.2074 26.3842 23.0947 25.4043C22.982 24.4243 23.23 23.4368 23.7922 22.6263C24.3545 21.8157 25.1926 21.2377 26.15 21C26.09 20.6297 26.0599 20.2551 26.06 19.88C26.034 18.1579 26.6341 16.4849 27.7486 15.1718C28.8632 13.8587 30.4165 12.9949 32.1199 12.7407C33.8234 12.4865 35.5612 12.8593 37.0105 13.7898C38.4598 14.7204 39.5221 16.1453 40 17.8C40.6391 17.2934 41.4022 16.9671 42.21 16.8549C43.0178 16.7427 43.841 16.8487 44.594 17.162C45.347 17.4752 46.0024 17.9842 46.4923 18.6363C46.9822 19.2883 47.2887 20.0596 47.38 20.87C48.4581 20.87 49.4921 21.2983 50.2544 22.0606C51.0167 22.8229 51.445 23.8569 51.445 24.935C51.445 26.0131 51.0167 27.0471 50.2544 27.8094C49.4921 28.5717 48.4581 29 47.38 29Z" fill="#C4D0E0"/>
<path d="M47.38 29.65H27.07C25.963 29.653 24.8904 29.2661 24.0403 28.557C23.1902 27.848 22.617 26.8622 22.4213 25.7727C22.2256 24.6832 22.4199 23.5596 22.9701 22.599C23.5203 21.6385 24.3912 20.9024 25.43 20.52C25.43 20.3 25.43 20.08 25.43 19.86C25.4411 18.0818 26.0626 16.3615 27.1905 14.9867C28.3183 13.612 29.8841 12.6663 31.6257 12.3079C33.3674 11.9494 35.1794 12.2001 36.7584 13.0178C38.3374 13.8355 39.5877 15.1707 40.3 16.8C41.0111 16.4118 41.8027 16.1941 42.6123 16.1642C43.422 16.1342 44.2275 16.2927 44.9654 16.6272C45.7032 16.9617 46.3533 17.4631 46.8643 18.0918C47.3754 18.7205 47.7333 19.4593 47.91 20.25C49.1054 20.3856 50.2037 20.9735 50.9794 21.8931C51.7551 22.8127 52.1496 23.9942 52.0818 25.1954C52.014 26.3966 51.4891 27.5263 50.6148 28.3528C49.7405 29.1792 48.5831 29.6398 47.38 29.64V29.65ZM33.16 13.4C32.2258 13.4015 31.3031 13.6054 30.4552 13.9974C29.6073 14.3895 28.8543 14.9606 28.2481 15.6713C27.6419 16.382 27.1967 17.2156 26.9433 18.1148C26.6899 19.0139 26.6342 19.9573 26.78 20.88L26.29 21.62C25.4651 21.8015 24.7369 22.2827 24.2465 22.9704C23.7561 23.6581 23.5383 24.5033 23.6354 25.3423C23.7325 26.1814 24.1376 26.9545 24.7721 27.512C25.4066 28.0695 26.2254 28.3717 27.07 28.36H47.38C48.2857 28.36 49.1543 28.0002 49.7948 27.3598C50.4352 26.7193 50.795 25.8507 50.795 24.945C50.795 24.0393 50.4352 23.1707 49.7948 22.5302C49.1543 21.8898 48.2857 21.53 47.38 21.53L46.7 20.95C46.6227 20.2543 46.3606 19.592 45.9408 19.0319C45.521 18.4718 44.9589 18.0343 44.3129 17.7649C43.6669 17.4954 42.9605 17.4039 42.2671 17.4997C41.5737 17.5956 40.9187 17.8754 40.37 18.31L39.37 17.99C38.9616 16.6615 38.1382 15.4989 37.0205 14.6728C35.9028 13.8468 34.5498 13.4006 33.16 13.4Z" fill="white"/>
</g>
<defs>
<clipPath id="clip0_2_66">
<rect width="52.09" height="42.14" fill="white"/>
</clipPath>
</defs>
</svg>
