<svg width="52" height="42" viewBox="0 0 52 42" fill="none" xmlns="http://www.w3.org/2000/svg">
<g clip-path="url(#clip0_7_442)">
<path d="M11.81 41.12C11.6316 41.1155 11.4577 41.0634 11.3062 40.9691C11.1548 40.8748 11.0313 40.7416 10.9487 40.5835C10.866 40.4253 10.8272 40.2479 10.8362 40.0697C10.8453 39.8915 10.9018 39.719 11 39.57L14.63 34.1C14.7772 33.8785 15.0063 33.7246 15.267 33.6721C15.5277 33.6196 15.7985 33.6728 16.02 33.82C16.2415 33.9672 16.3954 34.1963 16.4479 34.457C16.5004 34.7177 16.4472 34.9885 16.3 35.21L12.67 40.68C12.5755 40.82 12.447 40.9338 12.2967 41.0107C12.1463 41.0877 11.9788 41.1253 11.81 41.12Z" fill="#61C3D7"/>
<path d="M24 41.12C23.8199 41.1191 23.6434 41.0695 23.4891 40.9766C23.3349 40.8837 23.2086 40.7508 23.1236 40.5921C23.0385 40.4333 22.998 40.2545 23.0062 40.0746C23.0143 39.8947 23.0709 39.7204 23.17 39.57L26.8 34.1C26.8729 33.9903 26.9666 33.8961 27.0759 33.8227C27.1852 33.7493 27.3079 33.6981 27.437 33.6721C27.5661 33.6461 27.699 33.6458 27.8282 33.6712C27.9574 33.6965 28.0803 33.7471 28.19 33.82C28.2996 33.8929 28.3939 33.9866 28.4673 34.0959C28.5407 34.2052 28.5918 34.3279 28.6178 34.457C28.6438 34.5861 28.6442 34.719 28.6188 34.8482C28.5934 34.9774 28.5429 35.1003 28.47 35.21L24.8 40.67C24.7122 40.8034 24.5938 40.9139 24.4547 40.9922C24.3155 41.0705 24.1596 41.1143 24 41.12Z" fill="#61C3D7"/>
<path d="M36.11 41.12C35.9299 41.1191 35.7534 41.0695 35.5991 40.9766C35.4449 40.8837 35.3186 40.7508 35.2336 40.5921C35.1485 40.4333 35.108 40.2545 35.1161 40.0746C35.1243 39.8947 35.1809 39.7204 35.28 39.57L38.9 34.1C38.9728 33.9903 39.0666 33.8961 39.1759 33.8227C39.2852 33.7493 39.4079 33.6981 39.537 33.6721C39.666 33.6461 39.799 33.6458 39.9282 33.6712C40.0574 33.6965 40.1803 33.7471 40.29 33.82C40.3996 33.8929 40.4938 33.9866 40.5673 34.0959C40.6407 34.2052 40.6918 34.3279 40.7178 34.457C40.7438 34.5861 40.7442 34.719 40.7188 34.8482C40.6934 34.9774 40.6428 35.1003 40.57 35.21L36.94 40.68C36.8482 40.8157 36.7246 40.9268 36.5798 41.0035C36.4351 41.0802 36.2738 41.1202 36.11 41.12Z" fill="#61C3D7"/>
<path d="M43.73 29.36H7.81999C6.05967 29.3574 4.36167 28.7081 3.04862 27.5357C1.73557 26.3633 0.898977 24.7493 0.697812 23.0005C0.496646 21.2517 0.944924 19.49 1.95747 18.05C2.97001 16.6101 4.47625 15.5923 6.18999 15.19C6.0828 14.5287 6.0293 13.8599 6.02999 13.19C6.03001 10.175 7.11457 7.2606 9.08561 4.97909C11.0566 2.69758 13.7826 1.20121 16.7656 0.763281C19.7487 0.325349 22.7897 0.975077 25.3333 2.5938C27.8769 4.21252 29.7534 6.69222 30.62 9.58C31.7503 8.69692 33.0953 8.13065 34.5168 7.93933C35.9383 7.74802 37.3852 7.93856 38.7087 8.49139C40.0323 9.04422 41.1848 9.93941 42.0479 11.085C42.911 12.2306 43.4536 13.5853 43.62 15.01H43.67C45.5742 15.01 47.4005 15.7665 48.747 17.113C50.0935 18.4595 50.85 20.2857 50.85 22.19C50.85 24.0943 50.0935 25.9205 48.747 27.267C47.4005 28.6135 45.5742 29.37 43.67 29.37L43.73 29.36Z" fill="#A0ADBF"/>
<path d="M43.73 30H7.81998C5.94881 30.0007 4.13923 29.3313 2.71898 28.1131C1.29873 26.8948 0.361725 25.2082 0.0776529 23.3587C-0.206419 21.5092 0.181232 19.6191 1.1704 18.0308C2.15956 16.4424 3.68484 15.2608 5.46998 14.7C5.05599 11.4722 5.848 8.20515 7.69417 5.52527C9.54033 2.84538 12.3107 0.941254 15.4742 0.177958C18.6377 -0.585337 21.9716 -0.154081 24.8367 1.38904C27.7018 2.93216 29.8965 5.47855 31 8.53999C32.3995 7.64407 34.0282 7.17178 35.69 7.17999C37.7402 7.17719 39.7257 7.89772 41.297 9.21473C42.8682 10.5317 43.9246 12.3608 44.28 14.38C46.2629 14.5738 48.0973 15.5162 49.4097 17.0153C50.722 18.5143 51.4135 20.4573 51.3434 22.4484C51.2733 24.4395 50.4468 26.329 49.0323 27.732C47.6178 29.1351 45.7216 29.9461 43.73 30ZM18.6 1.29999C16.8767 1.30034 15.1739 1.67435 13.6091 2.39624C12.0443 3.11814 10.6546 4.17075 9.53583 5.48153C8.41705 6.79231 7.5958 8.33009 7.12867 9.98888C6.66154 11.6477 6.55963 13.388 6.82998 15.09C6.85731 15.2525 6.8219 15.4193 6.73094 15.5566C6.63998 15.694 6.50024 15.7917 6.33998 15.83C4.7884 16.2019 3.42666 17.129 2.51188 18.4363C1.5971 19.7435 1.1926 21.3405 1.37474 22.9256C1.55688 24.5107 2.31306 25.9742 3.5005 27.0399C4.68795 28.1056 6.22448 28.6997 7.81998 28.71H43.72C45.4518 28.71 47.1128 28.022 48.3374 26.7974C49.562 25.5728 50.25 23.9119 50.25 22.18C50.25 20.4481 49.562 18.7872 48.3374 17.5626C47.1128 16.338 45.4518 15.65 43.72 15.65C43.5539 15.6505 43.3929 15.5927 43.265 15.4867C43.1371 15.3807 43.0504 15.2333 43.02 15.07C42.8731 13.7514 42.3758 12.4961 41.5798 11.4347C40.7838 10.3732 39.7181 9.54425 38.4933 9.03395C37.2686 8.52365 35.9296 8.35061 34.6154 8.5328C33.3012 8.71499 32.0597 9.24577 31.02 10.07C30.9373 10.1303 30.8416 10.1703 30.7406 10.1866C30.6396 10.203 30.5361 10.1952 30.4387 10.164C30.3412 10.1328 30.2525 10.0791 30.1798 10.0071C30.107 9.9352 30.0523 9.84709 30.02 9.74999C29.2641 7.30916 27.7488 5.17334 25.6948 3.65349C23.6407 2.13364 21.1552 1.30913 18.6 1.29999Z" fill="white"/>
</g>
<defs>
<clipPath id="clip0_7_442">
<rect width="51.55" height="41.12" fill="white"/>
</clipPath>
</defs>
</svg>
